M48
; DRILL file {KiCad (5.1.6)-1} date 04/26/21 19:56:38
; FORMAT={-:-/ absolute / metric / decimal}
; #@! TF.CreationDate,2021-04-26T19:56:38-05:00
; #@! TF.GenerationSoftware,Kicad,Pcbnew,(5.1.6)-1
; #@! TF.FileFunction,Plated,1,4,PTH
FMAT,2
METRIC
T1C0.300
T2C0.400
T3C0.508
T4C0.800
%
G90
G05
T1
X122.352Y-80.975
X149.631Y-89.941
X68.529Y-89.941
X57.785Y-64.567
X135.458Y-115.341
X73.838Y-45.974
X124.333Y-45.796
X75.895Y-81.026
X52.273Y-89.941
X84.76Y-89.941
X143.586Y-115.341
X78.13Y-133.147
X92.862Y-89.941
X82.118Y-133.147
X75.971Y-117.069
X122.682Y-117.17
X54.483Y-115.367
X139.548Y-64.567
X44.196Y-89.941
X88.773Y-89.941
X72.593Y-89.941
X139.548Y-115.341
X122.352Y-76.937
X120.142Y-133.198
X120.269Y-45.796
X122.682Y-121.234
X58.547Y-115.367
X48.235Y-89.941
X75.895Y-76.962
X61.849Y-64.567
X53.746Y-64.567
X62.611Y-115.367
X94.996Y-41.123
X125.273Y-89.941
X116.053Y-133.198
X153.645Y-89.941
X145.618Y-89.941
X113.132Y-89.941
X81.915Y-45.974
X99.06Y-138.786
X116.23Y-45.796
X74.041Y-133.147
X109.042Y-89.941
X124.181Y-133.198
X64.491Y-89.941
X77.927Y-45.974
X129.337Y-89.941
X99.06Y-41.123
X94.996Y-138.786
X75.971Y-125.197
X135.484Y-64.567
X122.682Y-125.298
X143.612Y-64.567
X75.895Y-72.974
X105.004Y-89.941
X103.073Y-41.123
X75.971Y-121.133
X103.124Y-138.786
X122.352Y-72.974
X133.375Y-89.941
T2
X50.013Y-97.561
X53.213Y-61.824
X53.848Y-72.415
X53.95Y-97.561
X54.966Y-63.576
X56.388Y-64.821
X56.388Y-117.919
X56.388Y-119.825
X56.388Y-121.666
X56.388Y-124.333
X56.388Y-126.174
X56.388Y-128.016
X58.229Y-137.033
X58.928Y-136.144
X59.347Y-135.217
X60.389Y-100.838
X62.827Y-135.217
X63.754Y-97.688
X64.44Y-72.288
X64.44Y-78.435
X64.999Y-62.992
X64.999Y-64.567
X66.37Y-65.938
X67.132Y-62.992
X67.291Y-139.554
X67.539Y-69.037
X70.536Y-97.587
X70.619Y-139.554
X70.764Y-142.062
X73.127Y-56.134
X73.558Y-80.137
X73.622Y-53.607
X73.822Y-77.562
X75.108Y-123.012
X76.606Y-97.587
X76.937Y-74.778
X76.987Y-123.444
X80.62Y-99.339
X81.305Y-82.677
X82.372Y-115.316
X83.668Y-140.767
X84.099Y-97.612
X86.741Y-150.647
X90.297Y-147.041
X90.754Y-97.587
X91.77Y-123.596
X93.32Y-79.985
X94.285Y-146.736
X94.539Y-123.596
X94.78Y-48.933
X95.225Y-97.587
X95.987Y-79.985
X96.088Y-48.819
X102.171Y-103.695
X104.038Y-123.596
X104.47Y-152.629
X105.156Y-97.663
X106.578Y-146.99
X106.68Y-88.138
X106.832Y-123.596
X107.442Y-87.185
X108.788Y-50.698
X109.743Y-79.063
X110.033Y-123.393
X111.125Y-97.536
X111.442Y-86.423
X111.519Y-79.096
X111.963Y-123.368
X112.078Y-87.185
X113.233Y-53.543
X113.327Y-68.306
X113.396Y-79.075
X113.817Y-123.368
X114.747Y-72.133
X114.986Y-88.722
X115.316Y-53.543
X115.494Y-140.945
X116.157Y-74.773
X116.307Y-123.393
X116.383Y-53.238
X117.145Y-134.823
X117.864Y-74.785
X118.212Y-123.393
X118.389Y-97.536
X118.796Y-131.547
X119.644Y-74.773
X120.091Y-123.393
X120.683Y-82.85
X121.221Y-94.869
X122.377Y-97.587
X123.165Y-143.104
X124.135Y-73.615
X124.257Y-76.276
X124.612Y-97.587
X125.501Y-140.767
X126.888Y-86.401
X128.041Y-129.692
X130.475Y-72.299
X131.115Y-88.316
X132.791Y-54.092
X132.791Y-57.297
X133.248Y-125.501
X134.112Y-72.217
X136.248Y-71.973
X136.525Y-116.992
X137.122Y-63.028
X137.417Y-67.201
X137.417Y-68.997
X137.417Y-70.815
X141.034Y-86.233
X141.679Y-77.158
X141.691Y-73.556
X141.717Y-75.362
X142.568Y-88.445
X143.459Y-97.511
X143.586Y-91.618
X143.828Y-86.233
X145.425Y-72.187
X145.669Y-125.654
X146.653Y-121.723
X147.041Y-124.358
X148.463Y-123.317
T3
X138.852Y-73.569
X138.852Y-74.764
X138.852Y-75.959
X138.852Y-77.154
X140.242Y-73.569
X140.242Y-74.764
X140.242Y-75.959
X140.242Y-77.154
X57.853Y-118.02
X57.853Y-119.215
X57.853Y-120.41
X57.853Y-121.605
X59.243Y-118.02
X59.243Y-119.215
X59.243Y-120.41
X59.243Y-121.605
X108.346Y-92.593
X108.346Y-93.788
X108.346Y-94.983
X108.346Y-96.178
X109.736Y-92.593
X109.736Y-93.788
X109.736Y-94.983
X109.736Y-96.178
X98.366Y-141.464
X98.366Y-142.659
X98.366Y-143.854
X98.366Y-145.049
X99.756Y-141.464
X99.756Y-142.659
X99.756Y-143.854
X99.756Y-145.049
X108.346Y-98.943
X108.346Y-100.138
X108.346Y-101.333
X108.346Y-102.528
X109.736Y-98.943
X109.736Y-100.138
X109.736Y-101.333
X109.736Y-102.528
X57.853Y-124.37
X57.853Y-125.565
X57.853Y-126.76
X57.853Y-127.955
X59.243Y-124.37
X59.243Y-125.565
X59.243Y-126.76
X59.243Y-127.955
X47.539Y-92.593
X47.539Y-93.788
X47.539Y-94.983
X47.539Y-96.178
X48.929Y-92.593
X48.929Y-93.788
X48.929Y-94.983
X48.929Y-96.178
X47.539Y-98.943
X47.539Y-100.138
X47.539Y-101.333
X47.539Y-102.528
X48.929Y-98.943
X48.929Y-100.138
X48.929Y-101.333
X48.929Y-102.528
X119.573Y-48.448
X119.573Y-49.643
X119.573Y-50.838
X119.573Y-52.033
X120.963Y-48.448
X120.963Y-49.643
X120.963Y-50.838
X120.963Y-52.033
X98.364Y-50.124
X98.364Y-51.319
X98.364Y-52.514
X98.364Y-53.709
X99.754Y-50.124
X99.754Y-51.319
X99.754Y-52.514
X99.754Y-53.709
X98.366Y-147.814
X98.366Y-149.009
X98.366Y-150.204
X98.366Y-151.399
X99.756Y-147.814
X99.756Y-149.009
X99.756Y-150.204
X99.756Y-151.399
X148.937Y-92.595
X148.937Y-93.79
X148.937Y-94.985
X148.937Y-96.18
X150.327Y-92.595
X150.327Y-93.79
X150.327Y-94.985
X150.327Y-96.18
X84.898Y-76.291
X84.898Y-77.681
X86.093Y-76.291
X86.093Y-77.681
X87.288Y-76.291
X87.288Y-77.681
X88.483Y-76.291
X88.483Y-77.681
X77.436Y-142.175
X77.436Y-143.37
X77.436Y-144.565
X77.436Y-145.76
X78.826Y-142.175
X78.826Y-143.37
X78.826Y-144.565
X78.826Y-145.76
X138.854Y-124.345
X138.854Y-125.54
X138.854Y-126.735
X138.854Y-127.93
X140.244Y-124.345
X140.244Y-125.54
X140.244Y-126.735
X140.244Y-127.93
X128.641Y-92.593
X128.641Y-93.788
X128.641Y-94.983
X128.641Y-96.178
X130.031Y-92.593
X130.031Y-93.788
X130.031Y-94.983
X130.031Y-96.178
X138.854Y-117.995
X138.854Y-119.19
X138.854Y-120.385
X138.854Y-121.58
X140.244Y-117.995
X140.244Y-119.19
X140.244Y-120.385
X140.244Y-121.58
X57.116Y-67.22
X57.116Y-68.415
X57.116Y-69.61
X57.116Y-70.805
X58.506Y-67.22
X58.506Y-68.415
X58.506Y-69.61
X58.506Y-70.805
X67.833Y-92.593
X67.833Y-93.788
X67.833Y-94.983
X67.833Y-96.178
X69.223Y-92.593
X69.223Y-93.788
X69.223Y-94.983
X69.223Y-96.178
X98.364Y-43.774
X98.364Y-44.969
X98.364Y-46.164
X98.364Y-47.359
X99.754Y-43.774
X99.754Y-44.969
X99.754Y-46.164
X99.754Y-47.359
X88.102Y-92.593
X88.102Y-93.788
X88.102Y-94.983
X88.102Y-96.178
X89.492Y-92.593
X89.492Y-93.788
X89.492Y-94.983
X89.492Y-96.178
X77.436Y-135.825
X77.436Y-137.02
X77.436Y-138.215
X77.436Y-139.41
X78.826Y-135.825
X78.826Y-137.02
X78.826Y-138.215
X78.826Y-139.41
X110.146Y-120.538
X110.146Y-121.928
X111.341Y-120.538
X111.341Y-121.928
X112.536Y-120.538
X112.536Y-121.928
X113.731Y-120.538
X113.731Y-121.928
X148.937Y-98.945
X148.937Y-100.14
X148.937Y-101.335
X148.937Y-102.53
X150.327Y-98.945
X150.327Y-100.14
X150.327Y-101.335
X150.327Y-102.53
X57.116Y-73.57
X57.116Y-74.765
X57.116Y-75.96
X57.116Y-77.155
X58.506Y-73.57
X58.506Y-74.765
X58.506Y-75.96
X58.506Y-77.155
X119.448Y-142.201
X119.448Y-143.396
X119.448Y-144.591
X119.448Y-145.786
X120.838Y-142.201
X120.838Y-143.396
X120.838Y-144.591
X120.838Y-145.786
X77.206Y-48.626
X77.206Y-49.821
X77.206Y-51.016
X77.206Y-52.211
X78.596Y-48.626
X78.596Y-49.821
X78.596Y-51.016
X78.596Y-52.211
X128.641Y-98.943
X128.641Y-100.138
X128.641Y-101.333
X128.641Y-102.528
X130.031Y-98.943
X130.031Y-100.138
X130.031Y-101.333
X130.031Y-102.528
X84.973Y-120.439
X84.973Y-121.829
X86.168Y-120.439
X86.168Y-121.829
X87.363Y-120.439
X87.363Y-121.829
X88.558Y-120.439
X88.558Y-121.829
X78.548Y-76.291
X78.548Y-77.681
X79.743Y-76.291
X79.743Y-77.681
X80.938Y-76.291
X80.938Y-77.681
X82.133Y-76.291
X82.133Y-77.681
X119.448Y-135.851
X119.448Y-137.046
X119.448Y-138.241
X119.448Y-139.436
X120.838Y-135.851
X120.838Y-137.046
X120.838Y-138.241
X120.838Y-139.436
X88.102Y-98.943
X88.102Y-100.138
X88.102Y-101.333
X88.102Y-102.528
X89.492Y-98.943
X89.492Y-100.138
X89.492Y-101.333
X89.492Y-102.528
X138.854Y-67.22
X138.854Y-68.415
X138.854Y-69.61
X138.854Y-70.805
X140.244Y-67.22
X140.244Y-68.415
X140.244Y-69.61
X140.244Y-70.805
X77.206Y-54.976
X77.206Y-56.171
X77.206Y-57.366
X77.206Y-58.561
X78.596Y-54.976
X78.596Y-56.171
X78.596Y-57.366
X78.596Y-58.561
X78.674Y-120.432
X78.674Y-121.822
X79.869Y-120.432
X79.869Y-121.822
X81.064Y-120.432
X81.064Y-121.822
X82.259Y-120.432
X82.259Y-121.822
X116.42Y-120.538
X116.42Y-121.928
X117.615Y-120.538
X117.615Y-121.928
X118.81Y-120.538
X118.81Y-121.928
X120.005Y-120.538
X120.005Y-121.928
X119.573Y-54.798
X119.573Y-55.993
X119.573Y-57.188
X119.573Y-58.383
X120.963Y-54.798
X120.963Y-55.993
X120.963Y-57.188
X120.963Y-58.383
X67.833Y-98.943
X67.833Y-100.138
X67.833Y-101.333
X67.833Y-102.528
X69.223Y-98.943
X69.223Y-100.138
X69.223Y-101.333
X69.223Y-102.528
X116.114Y-76.217
X116.114Y-77.607
X117.309Y-76.217
X117.309Y-77.607
X118.504Y-76.217
X118.504Y-77.607
X119.699Y-76.217
X119.699Y-77.607
X109.765Y-76.215
X109.765Y-77.605
X110.96Y-76.215
X110.96Y-77.605
X112.155Y-76.215
X112.155Y-77.605
X113.35Y-76.215
X113.35Y-77.605
T4
X40.056Y-93.294
X40.081Y-101.981
X40.157Y-125.476
X43.536Y-128.803
X50.775Y-111.354
X58.42Y-58.42
X59.842Y-140.792
X60.96Y-55.88
X61.392Y-142.9
X63.5Y-53.34
X69.24Y-130.226
X70.561Y-154.0
X83.617Y-124.536
X90.272Y-74.447
X96.088Y-81.432
X96.164Y-131.216
X102.286Y-116.942
X110.973Y-158.928
X112.471Y-156.794
X115.037Y-116.535
X115.722Y-86.258
X124.028Y-70.333
X126.492Y-115.062
X134.62Y-53.34
X136.5Y-143.499
X137.16Y-55.88
X139.7Y-58.42
X139.979Y-62.078
X141.859Y-95.072
X141.986Y-99.974
X150.0Y-115.265
X150.216Y-118.821
X157.505Y-95.098
T3
G00X91.593Y-120.419
M15
G01X91.593Y-120.419
M16
G05
G00X91.593Y-121.846
M15
G01X91.593Y-121.846
M16
G05
G00X153.998Y-105.538
M15
G01X153.998Y-105.538
M16
G05
G00X155.425Y-105.538
M15
G01X155.425Y-105.538
M16
G05
G00X119.049Y-71.168
M15
G01X119.049Y-71.168
M16
G05
G00X119.049Y-72.596
M15
G01X119.049Y-72.596
M16
G05
G00X79.426Y-81.354
M15
G01X79.426Y-81.354
M16
G05
G00X79.426Y-82.781
M15
G01X79.426Y-82.781
M16
G05
G00X62.913Y-130.963
M15
G01X62.913Y-130.963
M16
G05
G00X64.341Y-130.963
M15
G01X64.341Y-130.963
M16
G05
G00X124.635Y-61.392
M15
G01X124.635Y-61.392
M16
G05
G00X126.063Y-61.392
M15
G01X126.063Y-61.392
M16
G05
G00X153.985Y-93.244
M15
G01X153.985Y-93.244
M16
G05
G00X155.412Y-93.244
M15
G01X155.412Y-93.244
M16
G05
G00X138.834Y-80.163
M15
G01X138.834Y-80.163
M16
G05
G00X140.261Y-80.163
M15
G01X140.261Y-80.163
M16
G05
G00X103.426Y-154.407
M15
G01X103.426Y-154.407
M16
G05
G00X104.854Y-154.407
M15
G01X104.854Y-154.407
M16
G05
G00X113.408Y-101.879
M15
G01X113.408Y-101.879
M16
G05
G00X114.836Y-101.879
M15
G01X114.836Y-101.879
M16
G05
G00X82.268Y-61.57
M15
G01X82.268Y-61.57
M16
G05
G00X83.696Y-61.57
M15
G01X83.696Y-61.57
M16
G05
G00X72.337Y-136.475
M15
G01X72.337Y-136.475
M16
G05
G00X73.764Y-136.475
M15
G01X73.764Y-136.475
M16
G05
G00X93.165Y-93.244
M15
G01X93.165Y-93.244
M16
G05
G00X94.592Y-93.244
M15
G01X94.592Y-93.244
M16
G05
G00X133.754Y-127.279
M15
G01X133.754Y-127.279
M16
G05
G00X135.181Y-127.279
M15
G01X135.181Y-127.279
M16
G05
G00X72.895Y-101.879
M15
G01X72.895Y-101.879
M16
G05
G00X74.323Y-101.879
M15
G01X74.323Y-101.879
M16
G05
G00X133.754Y-118.644
M15
G01X133.754Y-118.644
M16
G05
G00X135.181Y-118.644
M15
G01X135.181Y-118.644
M16
G05
G00X62.177Y-76.504
M15
G01X62.177Y-76.504
M16
G05
G00X63.604Y-76.504
M15
G01X63.604Y-76.504
M16
G05
G00X62.177Y-80.163
M15
G01X62.177Y-80.163
M16
G05
G00X63.604Y-80.163
M15
G01X63.604Y-80.163
M16
G05
G00X83.005Y-93.244
M15
G01X83.005Y-93.244
M16
G05
G00X84.432Y-93.244
M15
G01X84.432Y-93.244
M16
G05
G00X79.299Y-115.339
M15
G01X79.299Y-115.339
M16
G05
G00X79.299Y-116.766
M15
G01X79.299Y-116.766
M16
G05
G00X57.833Y-130.963
M15
G01X57.833Y-130.963
M16
G05
G00X59.261Y-130.963
M15
G01X59.261Y-130.963
M16
G05
G00X72.108Y-57.911
M15
G01X72.108Y-57.911
M16
G05
G00X73.536Y-57.911
M15
G01X73.536Y-57.911
M16
G05
G00X103.401Y-150.748
M15
G01X103.401Y-150.748
M16
G05
G00X104.828Y-150.748
M15
G01X104.828Y-150.748
M16
G05
G00X42.441Y-101.879
M15
G01X42.441Y-101.879
M16
G05
G00X43.868Y-101.879
M15
G01X43.868Y-101.879
M16
G05
G00X98.346Y-56.719
M15
G01X98.346Y-56.719
M16
G05
G00X99.774Y-56.719
M15
G01X99.774Y-56.719
M16
G05
G00X83.005Y-101.879
M15
G01X83.005Y-101.879
M16
G05
G00X84.432Y-101.879
M15
G01X84.432Y-101.879
M16
G05
G00X143.914Y-76.504
M15
G01X143.914Y-76.504
M16
G05
G00X145.341Y-76.504
M15
G01X145.341Y-76.504
M16
G05
G00X114.348Y-148.794
M15
G01X114.348Y-148.794
M16
G05
G00X115.776Y-148.794
M15
G01X115.776Y-148.794
M16
G05
G00X82.497Y-145.11
M15
G01X82.497Y-145.11
M16
G05
G00X83.924Y-145.11
M15
G01X83.924Y-145.11
M16
G05
G00X103.248Y-105.538
M15
G01X103.248Y-105.538
M16
G05
G00X104.676Y-105.538
M15
G01X104.676Y-105.538
M16
G05
G00X106.756Y-76.197
M15
G01X106.756Y-76.197
M16
G05
G00X106.756Y-77.625
M15
G01X106.756Y-77.625
M16
G05
G00X114.348Y-136.5
M15
G01X114.348Y-136.5
M16
G05
G00X115.776Y-136.5
M15
G01X115.776Y-136.5
M16
G05
G00X123.543Y-105.538
M15
G01X123.543Y-105.538
M16
G05
G00X124.971Y-105.538
M15
G01X124.971Y-105.538
M16
G05
G00X62.177Y-68.098
M15
G01X62.177Y-68.098
M16
G05
G00X63.604Y-68.098
M15
G01X63.604Y-68.098
M16
G05
G00X119.354Y-125.6
M15
G01X119.354Y-125.6
M16
G05
G00X119.354Y-127.028
M15
G01X119.354Y-127.028
M16
G05
G00X133.703Y-101.879
M15
G01X133.703Y-101.879
M16
G05
G00X135.131Y-101.879
M15
G01X135.131Y-101.879
M16
G05
G00X110.414Y-81.277
M15
G01X110.414Y-81.277
M16
G05
G00X110.414Y-82.705
M15
G01X110.414Y-82.705
M16
G05
G00X52.017Y-68.097
M15
G01X52.017Y-68.097
M16
G05
G00X53.444Y-68.097
M15
G01X53.444Y-68.097
M16
G05
G00X143.914Y-118.644
M15
G01X143.914Y-118.644
M16
G05
G00X145.341Y-118.644
M15
G01X145.341Y-118.644
M16
G05
G00X72.337Y-148.768
M15
G01X72.337Y-148.768
M16
G05
G00X73.764Y-148.768
M15
G01X73.764Y-148.768
M16
G05
G00X62.735Y-101.879
M15
G01X62.735Y-101.879
M16
G05
G00X64.163Y-101.879
M15
G01X64.163Y-101.879
M16
G05
G00X114.475Y-49.099
M15
G01X114.475Y-49.099
M16
G05
G00X115.903Y-49.099
M15
G01X115.903Y-49.099
M16
G05
G00X103.426Y-56.719
M15
G01X103.426Y-56.719
M16
G05
G00X104.854Y-56.719
M15
G01X104.854Y-56.719
M16
G05
G00X110.414Y-71.166
M15
G01X110.414Y-71.166
M16
G05
G00X110.414Y-72.593
M15
G01X110.414Y-72.593
M16
G05
G00X52.017Y-80.163
M15
G01X52.017Y-80.163
M16
G05
G00X53.444Y-80.163
M15
G01X53.444Y-80.163
M16
G05
G00X98.346Y-154.407
M15
G01X98.346Y-154.407
M16
G05
G00X99.774Y-154.407
M15
G01X99.774Y-154.407
M16
G05
G00X124.635Y-57.734
M15
G01X124.635Y-57.734
M16
G05
G00X126.063Y-57.734
M15
G01X126.063Y-57.734
M16
G05
G00X82.497Y-148.768
M15
G01X82.497Y-148.768
M16
G05
G00X83.924Y-148.768
M15
G01X83.924Y-148.768
M16
G05
G00X62.913Y-118.669
M15
G01X62.913Y-118.669
M16
G05
G00X64.341Y-118.669
M15
G01X64.341Y-118.669
M16
G05
G00X52.601Y-93.244
M15
G01X52.601Y-93.244
M16
G05
G00X54.028Y-93.244
M15
G01X54.028Y-93.244
M16
G05
G00X83.005Y-105.537
M15
G01X83.005Y-105.537
M16
G05
G00X84.432Y-105.537
M15
G01X84.432Y-105.537
M16
G05
G00X72.337Y-145.11
M15
G01X72.337Y-145.11
M16
G05
G00X73.764Y-145.11
M15
G01X73.764Y-145.11
M16
G05
G00X72.895Y-93.244
M15
G01X72.895Y-93.244
M16
G05
G00X74.323Y-93.244
M15
G01X74.323Y-93.244
M16
G05
G00X93.266Y-56.719
M15
G01X93.266Y-56.719
M16
G05
G00X94.694Y-56.719
M15
G01X94.694Y-56.719
M16
G05
G00X119.354Y-115.44
M15
G01X119.354Y-115.44
M16
G05
G00X119.354Y-116.868
M15
G01X119.354Y-116.868
M16
G05
G00X133.754Y-80.163
M15
G01X133.754Y-80.163
M16
G05
G00X135.181Y-80.163
M15
G01X135.181Y-80.163
M16
G05
G00X124.635Y-49.099
M15
G01X124.635Y-49.099
M16
G05
G00X126.063Y-49.099
M15
G01X126.063Y-49.099
M16
G05
G00X87.934Y-115.339
M15
G01X87.934Y-115.339
M16
G05
G00X87.934Y-116.766
M15
G01X87.934Y-116.766
M16
G05
G00X107.06Y-125.6
M15
G01X107.06Y-125.6
M16
G05
G00X107.06Y-127.028
M15
G01X107.06Y-127.028
M16
G05
G00X143.838Y-105.538
M15
G01X143.838Y-105.538
M16
G05
G00X145.265Y-105.538
M15
G01X145.265Y-105.538
M16
G05
G00X103.274Y-93.244
M15
G01X103.274Y-93.244
M16
G05
G00X104.701Y-93.244
M15
G01X104.701Y-93.244
M16
G05
G00X153.998Y-101.879
M15
G01X153.998Y-101.879
M16
G05
G00X155.425Y-101.879
M15
G01X155.425Y-101.879
M16
G05
G00X103.261Y-101.879
M15
G01X103.261Y-101.879
M16
G05
G00X104.689Y-101.879
M15
G01X104.689Y-101.879
M16
G05
G00X79.426Y-71.194
M15
G01X79.426Y-71.194
M16
G05
G00X79.426Y-72.621
M15
G01X79.426Y-72.621
M16
G05
G00X143.914Y-130.937
M15
G01X143.914Y-130.937
M16
G05
G00X145.341Y-130.937
M15
G01X145.341Y-130.937
M16
G05
G00X72.108Y-61.57
M15
G01X72.108Y-61.57
M16
G05
G00X73.536Y-61.57
M15
G01X73.536Y-61.57
M16
G05
G00X114.45Y-57.734
M15
G01X114.45Y-57.734
M16
G05
G00X115.877Y-57.734
M15
G01X115.877Y-57.734
M16
G05
G00X77.188Y-61.57
M15
G01X77.188Y-61.57
M16
G05
G00X78.616Y-61.57
M15
G01X78.616Y-61.57
M16
G05
G00X123.543Y-93.244
M15
G01X123.543Y-93.244
M16
G05
G00X124.971Y-93.244
M15
G01X124.971Y-93.244
M16
G05
G00X106.756Y-71.168
M15
G01X106.756Y-71.168
M16
G05
G00X106.756Y-72.596
M15
G01X106.756Y-72.596
M16
G05
G00X52.751Y-118.669
M15
G01X52.751Y-118.669
M16
G05
G00X54.178Y-118.669
M15
G01X54.178Y-118.669
M16
G05
G00X52.601Y-105.537
M15
G01X52.601Y-105.537
M16
G05
G00X54.028Y-105.537
M15
G01X54.028Y-105.537
M16
G05
G00X72.895Y-105.537
M15
G01X72.895Y-105.537
M16
G05
G00X74.323Y-105.537
M15
G01X74.323Y-105.537
M16
G05
G00X133.703Y-93.244
M15
G01X133.703Y-93.244
M16
G05
G00X135.131Y-93.244
M15
G01X135.131Y-93.244
M16
G05
G00X93.266Y-142.114
M15
G01X93.266Y-142.114
M16
G05
G00X94.694Y-142.114
M15
G01X94.694Y-142.114
M16
G05
G00X103.413Y-44.654
M15
G01X103.413Y-44.654
M16
G05
G00X104.841Y-44.654
M15
G01X104.841Y-44.654
M16
G05
G00X62.913Y-127.304
M15
G01X62.913Y-127.304
M16
G05
G00X64.341Y-127.304
M15
G01X64.341Y-127.304
M16
G05
G00X91.593Y-115.339
M15
G01X91.593Y-115.339
M16
G05
G00X91.593Y-116.766
M15
G01X91.593Y-116.766
M16
G05
G00X82.243Y-49.505
M15
G01X82.243Y-49.505
M16
G05
G00X83.67Y-49.505
M15
G01X83.67Y-49.505
M16
G05
G00X107.06Y-120.52
M15
G01X107.06Y-120.52
M16
G05
G00X107.06Y-121.948
M15
G01X107.06Y-121.948
M16
G05
G00X118.821Y-81.277
M15
G01X118.821Y-81.277
M16
G05
G00X118.821Y-82.705
M15
G01X118.821Y-82.705
M16
G05
G00X107.06Y-115.44
M15
G01X107.06Y-115.44
M16
G05
G00X107.06Y-116.868
M15
G01X107.06Y-116.868
M16
G05
G00X124.508Y-148.794
M15
G01X124.508Y-148.794
M16
G05
G00X125.936Y-148.794
M15
G01X125.936Y-148.794
M16
G05
G00X72.108Y-49.505
M15
G01X72.108Y-49.505
M16
G05
G00X73.536Y-49.505
M15
G01X73.536Y-49.505
M16
G05
G00X62.735Y-93.244
M15
G01X62.735Y-93.244
M16
G05
G00X64.163Y-93.244
M15
G01X64.163Y-93.244
M16
G05
G00X143.914Y-127.279
M15
G01X143.914Y-127.279
M16
G05
G00X145.341Y-127.279
M15
G01X145.341Y-127.279
M16
G05
G00X124.508Y-145.135
M15
G01X124.508Y-145.135
M16
G05
G00X125.936Y-145.135
M15
G01X125.936Y-145.135
M16
G05
G00X138.834Y-130.938
M15
G01X138.834Y-130.938
M16
G05
G00X140.261Y-130.938
M15
G01X140.261Y-130.938
M16
G05
G00X143.914Y-67.869
M15
G01X143.914Y-67.869
M16
G05
G00X145.341Y-67.869
M15
G01X145.341Y-67.869
M16
G05
G00X143.838Y-101.879
M15
G01X143.838Y-101.879
M16
G05
G00X145.265Y-101.879
M15
G01X145.265Y-101.879
M16
G05
G00X133.754Y-130.937
M15
G01X133.754Y-130.937
M16
G05
G00X135.181Y-130.937
M15
G01X135.181Y-130.937
M16
G05
G00X67.815Y-105.537
M15
G01X67.815Y-105.537
M16
G05
G00X69.243Y-105.537
M15
G01X69.243Y-105.537
M16
G05
G00X106.756Y-81.277
M15
G01X106.756Y-81.277
M16
G05
G00X106.756Y-82.705
M15
G01X106.756Y-82.705
M16
G05
G00X47.521Y-105.537
M15
G01X47.521Y-105.537
M16
G05
G00X48.948Y-105.537
M15
G01X48.948Y-105.537
M16
G05
G00X143.838Y-93.244
M15
G01X143.838Y-93.244
M16
G05
G00X145.265Y-93.244
M15
G01X145.265Y-93.244
M16
G05
G00X143.914Y-80.162
M15
G01X143.914Y-80.162
M16
G05
G00X145.341Y-80.162
M15
G01X145.341Y-80.162
M16
G05
G00X110.719Y-115.44
M15
G01X110.719Y-115.44
M16
G05
G00X110.719Y-116.868
M15
G01X110.719Y-116.868
M16
G05
G00X91.491Y-81.354
M15
G01X91.491Y-81.354
M16
G05
G00X91.491Y-82.781
M15
G01X91.491Y-82.781
M16
G05
G00X91.491Y-71.194
M15
G01X91.491Y-71.194
M16
G05
G00X91.491Y-72.621
M15
G01X91.491Y-72.621
M16
G05
G00X110.719Y-125.6
M15
G01X110.719Y-125.6
M16
G05
G00X110.719Y-127.028
M15
G01X110.719Y-127.028
M16
G05
G00X82.243Y-57.911
M15
G01X82.243Y-57.911
M16
G05
G00X83.67Y-57.911
M15
G01X83.67Y-57.911
M16
G05
G00X93.266Y-53.06
M15
G01X93.266Y-53.06
M16
G05
G00X94.694Y-53.06
M15
G01X94.694Y-53.06
M16
G05
G00X133.749Y-76.504
M15
G01X133.749Y-76.504
M16
G05
G00X135.176Y-76.504
M15
G01X135.176Y-76.504
M16
G05
G00X133.749Y-67.863
M15
G01X133.749Y-67.863
M16
G05
G00X135.176Y-67.863
M15
G01X135.176Y-67.863
M16
G05
G00X123.543Y-101.879
M15
G01X123.543Y-101.879
M16
G05
G00X124.971Y-101.879
M15
G01X124.971Y-101.879
M16
G05
G00X87.833Y-81.328
M15
G01X87.833Y-81.328
M16
G05
G00X87.833Y-82.756
M15
G01X87.833Y-82.756
M16
G05
G00X82.497Y-136.475
M15
G01X82.497Y-136.475
M16
G05
G00X83.924Y-136.475
M15
G01X83.924Y-136.475
M16
G05
G00X52.017Y-76.504
M15
G01X52.017Y-76.504
M16
G05
G00X53.444Y-76.504
M15
G01X53.444Y-76.504
M16
G05
G00X52.753Y-130.963
M15
G01X52.753Y-130.963
M16
G05
G00X54.181Y-130.963
M15
G01X54.181Y-130.963
M16
G05
G00X119.428Y-148.794
M15
G01X119.428Y-148.794
M16
G05
G00X120.856Y-148.794
M15
G01X120.856Y-148.794
M16
G05
G00X42.441Y-105.537
M15
G01X42.441Y-105.537
M16
G05
G00X43.868Y-105.537
M15
G01X43.868Y-105.537
M16
G05
G00X88.085Y-105.538
M15
G01X88.085Y-105.538
M16
G05
G00X89.512Y-105.538
M15
G01X89.512Y-105.538
M16
G05
G00X87.934Y-125.499
M15
G01X87.934Y-125.499
M16
G05
G00X87.934Y-126.926
M15
G01X87.934Y-126.926
M16
G05
G00X52.601Y-101.879
M15
G01X52.601Y-101.879
M16
G05
G00X54.028Y-101.879
M15
G01X54.028Y-101.879
M16
G05
G00X113.408Y-105.538
M15
G01X113.408Y-105.538
M16
G05
G00X114.836Y-105.538
M15
G01X114.836Y-105.538
M16
G05
G00X79.299Y-125.499
M15
G01X79.299Y-125.499
M16
G05
G00X79.299Y-126.926
M15
G01X79.299Y-126.926
M16
G05
G00X87.833Y-71.194
M15
G01X87.833Y-71.194
M16
G05
G00X87.833Y-72.621
M15
G01X87.833Y-72.621
M16
G05
G00X57.097Y-80.163
M15
G01X57.097Y-80.163
M16
G05
G00X58.524Y-80.163
M15
G01X58.524Y-80.163
M16
G05
G00X108.328Y-105.538
M15
G01X108.328Y-105.538
M16
G05
G00X109.756Y-105.538
M15
G01X109.756Y-105.538
M16
G05
G00X91.593Y-125.524
M15
G01X91.593Y-125.524
M16
G05
G00X91.593Y-126.952
M15
G01X91.593Y-126.952
M16
G05
G00X133.703Y-105.538
M15
G01X133.703Y-105.538
M16
G05
G00X135.131Y-105.538
M15
G01X135.131Y-105.538
M16
G05
G00X113.408Y-93.244
M15
G01X113.408Y-93.244
M16
G05
G00X114.836Y-93.244
M15
G01X114.836Y-93.244
M16
G05
G00X148.892Y-105.538
M15
G01X148.892Y-105.538
M16
G05
G00X150.32Y-105.538
M15
G01X150.32Y-105.538
M16
G05
G00X42.441Y-93.244
M15
G01X42.441Y-93.244
M16
G05
G00X43.868Y-93.244
M15
G01X43.868Y-93.244
M16
G05
G00X124.508Y-136.5
M15
G01X124.508Y-136.5
M16
G05
G00X125.936Y-136.5
M15
G01X125.936Y-136.5
M16
G05
G00X93.266Y-154.407
M15
G01X93.266Y-154.407
M16
G05
G00X94.694Y-154.407
M15
G01X94.694Y-154.407
M16
G05
G00X103.426Y-142.114
M15
G01X103.426Y-142.114
M16
G05
G00X104.854Y-142.114
M15
G01X104.854Y-142.114
M16
G05
G00X77.417Y-148.768
M15
G01X77.417Y-148.768
M16
G05
G00X78.844Y-148.768
M15
G01X78.844Y-148.768
M16
G05
G00X93.279Y-44.654
M15
G01X93.279Y-44.654
M16
G05
G00X94.707Y-44.654
M15
G01X94.707Y-44.654
M16
G05
G00X128.623Y-105.538
M15
G01X128.623Y-105.538
M16
G05
G00X130.051Y-105.538
M15
G01X130.051Y-105.538
M16
G05
G00X93.165Y-105.538
M15
G01X93.165Y-105.538
M16
G05
G00X94.592Y-105.538
M15
G01X94.592Y-105.538
M16
G05
G00X62.735Y-105.537
M15
G01X62.735Y-105.537
M16
G05
G00X64.163Y-105.537
M15
G01X64.163Y-105.537
M16
G05
G00X52.751Y-127.311
M15
G01X52.751Y-127.311
M16
G05
G00X54.178Y-127.311
M15
G01X54.178Y-127.311
M16
G05
G00X93.165Y-101.879
M15
G01X93.165Y-101.879
M16
G05
G00X94.592Y-101.879
M15
G01X94.592Y-101.879
M16
G05
G00X114.348Y-145.135
M15
G01X114.348Y-145.135
M16
G05
G00X115.776Y-145.135
M15
G01X115.776Y-145.135
M16
G05
G00X91.491Y-76.274
M15
G01X91.491Y-76.274
M16
G05
G00X91.491Y-77.701
M15
G01X91.491Y-77.701
M16
G05
G00X93.266Y-150.748
M15
G01X93.266Y-150.748
M16
G05
G00X94.694Y-150.748
M15
G01X94.694Y-150.748
M16
G05
G00X103.426Y-53.06
M15
G01X103.426Y-53.06
M16
G05
G00X104.854Y-53.06
M15
G01X104.854Y-53.06
M16
G05
G00X119.555Y-61.392
M15
G01X119.555Y-61.392
M16
G05
G00X120.983Y-61.392
M15
G01X120.983Y-61.392
M16
G05
G00X114.45Y-61.392
M15
G01X114.45Y-61.392
M16
G05
G00X115.877Y-61.392
M15
G01X115.877Y-61.392
M16
G05
T0
M30
