G04 #@! TF.GenerationSoftware,KiCad,Pcbnew,(5.1.6)-1*
G04 #@! TF.CreationDate,2021-04-26T19:55:32-05:00*
G04 #@! TF.ProjectId,capstone-led,63617073-746f-46e6-952d-6c65642e6b69,rev?*
G04 #@! TF.SameCoordinates,Original*
G04 #@! TF.FileFunction,Copper,L2,Inr*
G04 #@! TF.FilePolarity,Positive*
%FSLAX46Y46*%
G04 Gerber Fmt 4.6, Leading zero omitted, Abs format (unit mm)*
G04 Created by KiCad (PCBNEW (5.1.6)-1) date 2021-04-26 19:55:32*
%MOMM*%
%LPD*%
G01*
G04 APERTURE LIST*
G04 #@! TA.AperFunction,ViaPad*
%ADD10R,1.195000X1.390000*%
G04 #@! TD*
G04 #@! TA.AperFunction,ViaPad*
%ADD11R,1.430000X1.830000*%
G04 #@! TD*
G04 #@! TA.AperFunction,ViaPad*
%ADD12R,1.830000X1.430000*%
G04 #@! TD*
G04 #@! TA.AperFunction,ViaPad*
%ADD13R,1.390000X1.195000*%
G04 #@! TD*
G04 #@! TA.AperFunction,ViaPad*
%ADD14C,0.800000*%
G04 #@! TD*
G04 #@! TA.AperFunction,ViaPad*
%ADD15C,1.600000*%
G04 #@! TD*
G04 #@! TA.AperFunction,Conductor*
%ADD16C,0.381000*%
G04 #@! TD*
G04 #@! TA.AperFunction,Conductor*
%ADD17C,0.635000*%
G04 #@! TD*
G04 #@! TA.AperFunction,Conductor*
%ADD18C,3.000000*%
G04 #@! TD*
G04 #@! TA.AperFunction,Conductor*
%ADD19C,0.250000*%
G04 #@! TD*
G04 #@! TA.AperFunction,Conductor*
%ADD20C,1.750000*%
G04 #@! TD*
G04 #@! TA.AperFunction,NonConductor*
%ADD21C,0.254000*%
G04 #@! TD*
G04 #@! TA.AperFunction,Conductor*
%ADD22C,0.254000*%
G04 #@! TD*
G04 APERTURE END LIST*
G04 #@! TA.AperFunction,ViaPad*
G36*
G01*
X123472000Y-117420200D02*
X121892000Y-117420200D01*
G75*
G02*
X121832000Y-117360200I0J60000D01*
G01*
X121832000Y-116980200D01*
G75*
G02*
X121892000Y-116920200I60000J0D01*
G01*
X123472000Y-116920200D01*
G75*
G02*
X123532000Y-116980200I0J-60000D01*
G01*
X123532000Y-117360200D01*
G75*
G02*
X123472000Y-117420200I-60000J0D01*
G01*
G37*
G04 #@! TD.AperFunction*
G04 #@! TA.AperFunction,ViaPad*
G36*
G01*
X123472000Y-121484200D02*
X121892000Y-121484200D01*
G75*
G02*
X121832000Y-121424200I0J60000D01*
G01*
X121832000Y-121044200D01*
G75*
G02*
X121892000Y-120984200I60000J0D01*
G01*
X123472000Y-120984200D01*
G75*
G02*
X123532000Y-121044200I0J-60000D01*
G01*
X123532000Y-121424200D01*
G75*
G02*
X123472000Y-121484200I-60000J0D01*
G01*
G37*
G04 #@! TD.AperFunction*
G04 #@! TA.AperFunction,ViaPad*
G36*
G01*
X123472000Y-125548200D02*
X121892000Y-125548200D01*
G75*
G02*
X121832000Y-125488200I0J60000D01*
G01*
X121832000Y-125108200D01*
G75*
G02*
X121892000Y-125048200I60000J0D01*
G01*
X123472000Y-125048200D01*
G75*
G02*
X123532000Y-125108200I0J-60000D01*
G01*
X123532000Y-125488200D01*
G75*
G02*
X123472000Y-125548200I-60000J0D01*
G01*
G37*
G04 #@! TD.AperFunction*
G04 #@! TA.AperFunction,ViaPad*
G36*
G01*
X75181400Y-124946600D02*
X76761400Y-124946600D01*
G75*
G02*
X76821400Y-125006600I0J-60000D01*
G01*
X76821400Y-125386600D01*
G75*
G02*
X76761400Y-125446600I-60000J0D01*
G01*
X75181400Y-125446600D01*
G75*
G02*
X75121400Y-125386600I0J60000D01*
G01*
X75121400Y-125006600D01*
G75*
G02*
X75181400Y-124946600I60000J0D01*
G01*
G37*
G04 #@! TD.AperFunction*
G04 #@! TA.AperFunction,ViaPad*
G36*
G01*
X75181400Y-120882600D02*
X76761400Y-120882600D01*
G75*
G02*
X76821400Y-120942600I0J-60000D01*
G01*
X76821400Y-121322600D01*
G75*
G02*
X76761400Y-121382600I-60000J0D01*
G01*
X75181400Y-121382600D01*
G75*
G02*
X75121400Y-121322600I0J60000D01*
G01*
X75121400Y-120942600D01*
G75*
G02*
X75181400Y-120882600I60000J0D01*
G01*
G37*
G04 #@! TD.AperFunction*
G04 #@! TA.AperFunction,ViaPad*
G36*
G01*
X75181400Y-116818600D02*
X76761400Y-116818600D01*
G75*
G02*
X76821400Y-116878600I0J-60000D01*
G01*
X76821400Y-117258600D01*
G75*
G02*
X76761400Y-117318600I-60000J0D01*
G01*
X75181400Y-117318600D01*
G75*
G02*
X75121400Y-117258600I0J60000D01*
G01*
X75121400Y-116878600D01*
G75*
G02*
X75181400Y-116818600I60000J0D01*
G01*
G37*
G04 #@! TD.AperFunction*
G04 #@! TA.AperFunction,ViaPad*
G36*
G01*
X62361000Y-116156800D02*
X62361000Y-114576800D01*
G75*
G02*
X62421000Y-114516800I60000J0D01*
G01*
X62801000Y-114516800D01*
G75*
G02*
X62861000Y-114576800I0J-60000D01*
G01*
X62861000Y-116156800D01*
G75*
G02*
X62801000Y-116216800I-60000J0D01*
G01*
X62421000Y-116216800D01*
G75*
G02*
X62361000Y-116156800I0J60000D01*
G01*
G37*
G04 #@! TD.AperFunction*
G04 #@! TA.AperFunction,ViaPad*
G36*
G01*
X58297000Y-116156800D02*
X58297000Y-114576800D01*
G75*
G02*
X58357000Y-114516800I60000J0D01*
G01*
X58737000Y-114516800D01*
G75*
G02*
X58797000Y-114576800I0J-60000D01*
G01*
X58797000Y-116156800D01*
G75*
G02*
X58737000Y-116216800I-60000J0D01*
G01*
X58357000Y-116216800D01*
G75*
G02*
X58297000Y-116156800I0J60000D01*
G01*
G37*
G04 #@! TD.AperFunction*
G04 #@! TA.AperFunction,ViaPad*
G36*
G01*
X54233000Y-116156800D02*
X54233000Y-114576800D01*
G75*
G02*
X54293000Y-114516800I60000J0D01*
G01*
X54673000Y-114516800D01*
G75*
G02*
X54733000Y-114576800I0J-60000D01*
G01*
X54733000Y-116156800D01*
G75*
G02*
X54673000Y-116216800I-60000J0D01*
G01*
X54293000Y-116216800D01*
G75*
G02*
X54233000Y-116156800I0J60000D01*
G01*
G37*
G04 #@! TD.AperFunction*
G04 #@! TA.AperFunction,ViaPad*
G36*
G01*
X74291000Y-132356800D02*
X74291000Y-133936800D01*
G75*
G02*
X74231000Y-133996800I-60000J0D01*
G01*
X73851000Y-133996800D01*
G75*
G02*
X73791000Y-133936800I0J60000D01*
G01*
X73791000Y-132356800D01*
G75*
G02*
X73851000Y-132296800I60000J0D01*
G01*
X74231000Y-132296800D01*
G75*
G02*
X74291000Y-132356800I0J-60000D01*
G01*
G37*
G04 #@! TD.AperFunction*
G04 #@! TA.AperFunction,ViaPad*
G36*
G01*
X135733600Y-63776800D02*
X135733600Y-65356800D01*
G75*
G02*
X135673600Y-65416800I-60000J0D01*
G01*
X135293600Y-65416800D01*
G75*
G02*
X135233600Y-65356800I0J60000D01*
G01*
X135233600Y-63776800D01*
G75*
G02*
X135293600Y-63716800I60000J0D01*
G01*
X135673600Y-63716800D01*
G75*
G02*
X135733600Y-63776800I0J-60000D01*
G01*
G37*
G04 #@! TD.AperFunction*
G04 #@! TA.AperFunction,ViaPad*
G36*
G01*
X123141800Y-73224200D02*
X121561800Y-73224200D01*
G75*
G02*
X121501800Y-73164200I0J60000D01*
G01*
X121501800Y-72784200D01*
G75*
G02*
X121561800Y-72724200I60000J0D01*
G01*
X123141800Y-72724200D01*
G75*
G02*
X123201800Y-72784200I0J-60000D01*
G01*
X123201800Y-73164200D01*
G75*
G02*
X123141800Y-73224200I-60000J0D01*
G01*
G37*
G04 #@! TD.AperFunction*
G04 #@! TA.AperFunction,ViaPad*
G36*
G01*
X78380400Y-132356800D02*
X78380400Y-133936800D01*
G75*
G02*
X78320400Y-133996800I-60000J0D01*
G01*
X77940400Y-133996800D01*
G75*
G02*
X77880400Y-133936800I0J60000D01*
G01*
X77880400Y-132356800D01*
G75*
G02*
X77940400Y-132296800I60000J0D01*
G01*
X78320400Y-132296800D01*
G75*
G02*
X78380400Y-132356800I0J-60000D01*
G01*
G37*
G04 #@! TD.AperFunction*
G04 #@! TA.AperFunction,ViaPad*
G36*
G01*
X124083000Y-46586200D02*
X124083000Y-45006200D01*
G75*
G02*
X124143000Y-44946200I60000J0D01*
G01*
X124523000Y-44946200D01*
G75*
G02*
X124583000Y-45006200I0J-60000D01*
G01*
X124583000Y-46586200D01*
G75*
G02*
X124523000Y-46646200I-60000J0D01*
G01*
X124143000Y-46646200D01*
G75*
G02*
X124083000Y-46586200I0J60000D01*
G01*
G37*
G04 #@! TD.AperFunction*
G04 #@! TA.AperFunction,ViaPad*
G36*
G01*
X123141800Y-77186600D02*
X121561800Y-77186600D01*
G75*
G02*
X121501800Y-77126600I0J60000D01*
G01*
X121501800Y-76746600D01*
G75*
G02*
X121561800Y-76686600I60000J0D01*
G01*
X123141800Y-76686600D01*
G75*
G02*
X123201800Y-76746600I0J-60000D01*
G01*
X123201800Y-77126600D01*
G75*
G02*
X123141800Y-77186600I-60000J0D01*
G01*
G37*
G04 #@! TD.AperFunction*
G04 #@! TA.AperFunction,ViaPad*
G36*
G01*
X82368200Y-132356800D02*
X82368200Y-133936800D01*
G75*
G02*
X82308200Y-133996800I-60000J0D01*
G01*
X81928200Y-133996800D01*
G75*
G02*
X81868200Y-133936800I0J60000D01*
G01*
X81868200Y-132356800D01*
G75*
G02*
X81928200Y-132296800I60000J0D01*
G01*
X82308200Y-132296800D01*
G75*
G02*
X82368200Y-132356800I0J-60000D01*
G01*
G37*
G04 #@! TD.AperFunction*
G04 #@! TA.AperFunction,ViaPad*
G36*
G01*
X120019000Y-46586200D02*
X120019000Y-45006200D01*
G75*
G02*
X120079000Y-44946200I60000J0D01*
G01*
X120459000Y-44946200D01*
G75*
G02*
X120519000Y-45006200I0J-60000D01*
G01*
X120519000Y-46586200D01*
G75*
G02*
X120459000Y-46646200I-60000J0D01*
G01*
X120079000Y-46646200D01*
G75*
G02*
X120019000Y-46586200I0J60000D01*
G01*
G37*
G04 #@! TD.AperFunction*
G04 #@! TA.AperFunction,ViaPad*
G36*
G01*
X133125400Y-90731400D02*
X133125400Y-89151400D01*
G75*
G02*
X133185400Y-89091400I60000J0D01*
G01*
X133565400Y-89091400D01*
G75*
G02*
X133625400Y-89151400I0J-60000D01*
G01*
X133625400Y-90731400D01*
G75*
G02*
X133565400Y-90791400I-60000J0D01*
G01*
X133185400Y-90791400D01*
G75*
G02*
X133125400Y-90731400I0J60000D01*
G01*
G37*
G04 #@! TD.AperFunction*
G04 #@! TA.AperFunction,ViaPad*
G36*
G01*
X95246000Y-137995600D02*
X95246000Y-139575600D01*
G75*
G02*
X95186000Y-139635600I-60000J0D01*
G01*
X94806000Y-139635600D01*
G75*
G02*
X94746000Y-139575600I0J60000D01*
G01*
X94746000Y-137995600D01*
G75*
G02*
X94806000Y-137935600I60000J0D01*
G01*
X95186000Y-137935600D01*
G75*
G02*
X95246000Y-137995600I0J-60000D01*
G01*
G37*
G04 #@! TD.AperFunction*
G04 #@! TA.AperFunction,ViaPad*
G36*
G01*
X115980400Y-46586200D02*
X115980400Y-45006200D01*
G75*
G02*
X116040400Y-44946200I60000J0D01*
G01*
X116420400Y-44946200D01*
G75*
G02*
X116480400Y-45006200I0J-60000D01*
G01*
X116480400Y-46586200D01*
G75*
G02*
X116420400Y-46646200I-60000J0D01*
G01*
X116040400Y-46646200D01*
G75*
G02*
X115980400Y-46586200I0J60000D01*
G01*
G37*
G04 #@! TD.AperFunction*
G04 #@! TA.AperFunction,ViaPad*
G36*
G01*
X129086800Y-90731400D02*
X129086800Y-89151400D01*
G75*
G02*
X129146800Y-89091400I60000J0D01*
G01*
X129526800Y-89091400D01*
G75*
G02*
X129586800Y-89151400I0J-60000D01*
G01*
X129586800Y-90731400D01*
G75*
G02*
X129526800Y-90791400I-60000J0D01*
G01*
X129146800Y-90791400D01*
G75*
G02*
X129086800Y-90731400I0J60000D01*
G01*
G37*
G04 #@! TD.AperFunction*
G04 #@! TA.AperFunction,ViaPad*
G36*
G01*
X99310000Y-137995600D02*
X99310000Y-139575600D01*
G75*
G02*
X99250000Y-139635600I-60000J0D01*
G01*
X98870000Y-139635600D01*
G75*
G02*
X98810000Y-139575600I0J60000D01*
G01*
X98810000Y-137995600D01*
G75*
G02*
X98870000Y-137935600I60000J0D01*
G01*
X99250000Y-137935600D01*
G75*
G02*
X99310000Y-137995600I0J-60000D01*
G01*
G37*
G04 #@! TD.AperFunction*
G04 #@! TA.AperFunction,ViaPad*
G36*
G01*
X102823200Y-41912600D02*
X102823200Y-40332600D01*
G75*
G02*
X102883200Y-40272600I60000J0D01*
G01*
X103263200Y-40272600D01*
G75*
G02*
X103323200Y-40332600I0J-60000D01*
G01*
X103323200Y-41912600D01*
G75*
G02*
X103263200Y-41972600I-60000J0D01*
G01*
X102883200Y-41972600D01*
G75*
G02*
X102823200Y-41912600I0J60000D01*
G01*
G37*
G04 #@! TD.AperFunction*
G04 #@! TA.AperFunction,ViaPad*
G36*
G01*
X125022800Y-90731400D02*
X125022800Y-89151400D01*
G75*
G02*
X125082800Y-89091400I60000J0D01*
G01*
X125462800Y-89091400D01*
G75*
G02*
X125522800Y-89151400I0J-60000D01*
G01*
X125522800Y-90731400D01*
G75*
G02*
X125462800Y-90791400I-60000J0D01*
G01*
X125082800Y-90791400D01*
G75*
G02*
X125022800Y-90731400I0J60000D01*
G01*
G37*
G04 #@! TD.AperFunction*
G04 #@! TA.AperFunction,ViaPad*
G36*
G01*
X103374000Y-137995600D02*
X103374000Y-139575600D01*
G75*
G02*
X103314000Y-139635600I-60000J0D01*
G01*
X102934000Y-139635600D01*
G75*
G02*
X102874000Y-139575600I0J60000D01*
G01*
X102874000Y-137995600D01*
G75*
G02*
X102934000Y-137935600I60000J0D01*
G01*
X103314000Y-137935600D01*
G75*
G02*
X103374000Y-137995600I0J-60000D01*
G01*
G37*
G04 #@! TD.AperFunction*
G04 #@! TA.AperFunction,ViaPad*
G36*
G01*
X98810000Y-41912600D02*
X98810000Y-40332600D01*
G75*
G02*
X98870000Y-40272600I60000J0D01*
G01*
X99250000Y-40272600D01*
G75*
G02*
X99310000Y-40332600I0J-60000D01*
G01*
X99310000Y-41912600D01*
G75*
G02*
X99250000Y-41972600I-60000J0D01*
G01*
X98870000Y-41972600D01*
G75*
G02*
X98810000Y-41912600I0J60000D01*
G01*
G37*
G04 #@! TD.AperFunction*
G04 #@! TA.AperFunction,ViaPad*
G36*
G01*
X112881600Y-90731400D02*
X112881600Y-89151400D01*
G75*
G02*
X112941600Y-89091400I60000J0D01*
G01*
X113321600Y-89091400D01*
G75*
G02*
X113381600Y-89151400I0J-60000D01*
G01*
X113381600Y-90731400D01*
G75*
G02*
X113321600Y-90791400I-60000J0D01*
G01*
X112941600Y-90791400D01*
G75*
G02*
X112881600Y-90731400I0J60000D01*
G01*
G37*
G04 #@! TD.AperFunction*
G04 #@! TA.AperFunction,ViaPad*
G36*
G01*
X116302600Y-132407600D02*
X116302600Y-133987600D01*
G75*
G02*
X116242600Y-134047600I-60000J0D01*
G01*
X115862600Y-134047600D01*
G75*
G02*
X115802600Y-133987600I0J60000D01*
G01*
X115802600Y-132407600D01*
G75*
G02*
X115862600Y-132347600I60000J0D01*
G01*
X116242600Y-132347600D01*
G75*
G02*
X116302600Y-132407600I0J-60000D01*
G01*
G37*
G04 #@! TD.AperFunction*
G04 #@! TA.AperFunction,ViaPad*
G36*
G01*
X94746000Y-41912600D02*
X94746000Y-40332600D01*
G75*
G02*
X94806000Y-40272600I60000J0D01*
G01*
X95186000Y-40272600D01*
G75*
G02*
X95246000Y-40332600I0J-60000D01*
G01*
X95246000Y-41912600D01*
G75*
G02*
X95186000Y-41972600I-60000J0D01*
G01*
X94806000Y-41972600D01*
G75*
G02*
X94746000Y-41912600I0J60000D01*
G01*
G37*
G04 #@! TD.AperFunction*
G04 #@! TA.AperFunction,ViaPad*
G36*
G01*
X108792200Y-90731400D02*
X108792200Y-89151400D01*
G75*
G02*
X108852200Y-89091400I60000J0D01*
G01*
X109232200Y-89091400D01*
G75*
G02*
X109292200Y-89151400I0J-60000D01*
G01*
X109292200Y-90731400D01*
G75*
G02*
X109232200Y-90791400I-60000J0D01*
G01*
X108852200Y-90791400D01*
G75*
G02*
X108792200Y-90731400I0J60000D01*
G01*
G37*
G04 #@! TD.AperFunction*
G04 #@! TA.AperFunction,ViaPad*
G36*
G01*
X120392000Y-132407600D02*
X120392000Y-133987600D01*
G75*
G02*
X120332000Y-134047600I-60000J0D01*
G01*
X119952000Y-134047600D01*
G75*
G02*
X119892000Y-133987600I0J60000D01*
G01*
X119892000Y-132407600D01*
G75*
G02*
X119952000Y-132347600I60000J0D01*
G01*
X120332000Y-132347600D01*
G75*
G02*
X120392000Y-132407600I0J-60000D01*
G01*
G37*
G04 #@! TD.AperFunction*
G04 #@! TA.AperFunction,ViaPad*
G36*
G01*
X81665000Y-46764000D02*
X81665000Y-45184000D01*
G75*
G02*
X81725000Y-45124000I60000J0D01*
G01*
X82105000Y-45124000D01*
G75*
G02*
X82165000Y-45184000I0J-60000D01*
G01*
X82165000Y-46764000D01*
G75*
G02*
X82105000Y-46824000I-60000J0D01*
G01*
X81725000Y-46824000D01*
G75*
G02*
X81665000Y-46764000I0J60000D01*
G01*
G37*
G04 #@! TD.AperFunction*
G04 #@! TA.AperFunction,ViaPad*
G36*
G01*
X104753600Y-90731400D02*
X104753600Y-89151400D01*
G75*
G02*
X104813600Y-89091400I60000J0D01*
G01*
X105193600Y-89091400D01*
G75*
G02*
X105253600Y-89151400I0J-60000D01*
G01*
X105253600Y-90731400D01*
G75*
G02*
X105193600Y-90791400I-60000J0D01*
G01*
X104813600Y-90791400D01*
G75*
G02*
X104753600Y-90731400I0J60000D01*
G01*
G37*
G04 #@! TD.AperFunction*
G04 #@! TA.AperFunction,ViaPad*
G36*
G01*
X124430600Y-132407600D02*
X124430600Y-133987600D01*
G75*
G02*
X124370600Y-134047600I-60000J0D01*
G01*
X123990600Y-134047600D01*
G75*
G02*
X123930600Y-133987600I0J60000D01*
G01*
X123930600Y-132407600D01*
G75*
G02*
X123990600Y-132347600I60000J0D01*
G01*
X124370600Y-132347600D01*
G75*
G02*
X124430600Y-132407600I0J-60000D01*
G01*
G37*
G04 #@! TD.AperFunction*
G04 #@! TA.AperFunction,ViaPad*
G36*
G01*
X77677200Y-46764000D02*
X77677200Y-45184000D01*
G75*
G02*
X77737200Y-45124000I60000J0D01*
G01*
X78117200Y-45124000D01*
G75*
G02*
X78177200Y-45184000I0J-60000D01*
G01*
X78177200Y-46764000D01*
G75*
G02*
X78117200Y-46824000I-60000J0D01*
G01*
X77737200Y-46824000D01*
G75*
G02*
X77677200Y-46764000I0J60000D01*
G01*
G37*
G04 #@! TD.AperFunction*
G04 #@! TA.AperFunction,ViaPad*
G36*
G01*
X92612400Y-90731400D02*
X92612400Y-89151400D01*
G75*
G02*
X92672400Y-89091400I60000J0D01*
G01*
X93052400Y-89091400D01*
G75*
G02*
X93112400Y-89151400I0J-60000D01*
G01*
X93112400Y-90731400D01*
G75*
G02*
X93052400Y-90791400I-60000J0D01*
G01*
X92672400Y-90791400D01*
G75*
G02*
X92612400Y-90731400I0J60000D01*
G01*
G37*
G04 #@! TD.AperFunction*
G04 #@! TA.AperFunction,ViaPad*
G36*
G01*
X135708200Y-114551400D02*
X135708200Y-116131400D01*
G75*
G02*
X135648200Y-116191400I-60000J0D01*
G01*
X135268200Y-116191400D01*
G75*
G02*
X135208200Y-116131400I0J60000D01*
G01*
X135208200Y-114551400D01*
G75*
G02*
X135268200Y-114491400I60000J0D01*
G01*
X135648200Y-114491400D01*
G75*
G02*
X135708200Y-114551400I0J-60000D01*
G01*
G37*
G04 #@! TD.AperFunction*
G04 #@! TA.AperFunction,ViaPad*
G36*
G01*
X73587800Y-46764000D02*
X73587800Y-45184000D01*
G75*
G02*
X73647800Y-45124000I60000J0D01*
G01*
X74027800Y-45124000D01*
G75*
G02*
X74087800Y-45184000I0J-60000D01*
G01*
X74087800Y-46764000D01*
G75*
G02*
X74027800Y-46824000I-60000J0D01*
G01*
X73647800Y-46824000D01*
G75*
G02*
X73587800Y-46764000I0J60000D01*
G01*
G37*
G04 #@! TD.AperFunction*
G04 #@! TA.AperFunction,ViaPad*
G36*
G01*
X88523000Y-90731400D02*
X88523000Y-89151400D01*
G75*
G02*
X88583000Y-89091400I60000J0D01*
G01*
X88963000Y-89091400D01*
G75*
G02*
X89023000Y-89151400I0J-60000D01*
G01*
X89023000Y-90731400D01*
G75*
G02*
X88963000Y-90791400I-60000J0D01*
G01*
X88583000Y-90791400D01*
G75*
G02*
X88523000Y-90731400I0J60000D01*
G01*
G37*
G04 #@! TD.AperFunction*
G04 #@! TA.AperFunction,ViaPad*
G36*
G01*
X139797600Y-114551400D02*
X139797600Y-116131400D01*
G75*
G02*
X139737600Y-116191400I-60000J0D01*
G01*
X139357600Y-116191400D01*
G75*
G02*
X139297600Y-116131400I0J60000D01*
G01*
X139297600Y-114551400D01*
G75*
G02*
X139357600Y-114491400I60000J0D01*
G01*
X139737600Y-114491400D01*
G75*
G02*
X139797600Y-114551400I0J-60000D01*
G01*
G37*
G04 #@! TD.AperFunction*
G04 #@! TA.AperFunction,ViaPad*
G36*
G01*
X53996400Y-63776800D02*
X53996400Y-65356800D01*
G75*
G02*
X53936400Y-65416800I-60000J0D01*
G01*
X53556400Y-65416800D01*
G75*
G02*
X53496400Y-65356800I0J60000D01*
G01*
X53496400Y-63776800D01*
G75*
G02*
X53556400Y-63716800I60000J0D01*
G01*
X53936400Y-63716800D01*
G75*
G02*
X53996400Y-63776800I0J-60000D01*
G01*
G37*
G04 #@! TD.AperFunction*
G04 #@! TA.AperFunction,ViaPad*
G36*
G01*
X84509800Y-90731400D02*
X84509800Y-89151400D01*
G75*
G02*
X84569800Y-89091400I60000J0D01*
G01*
X84949800Y-89091400D01*
G75*
G02*
X85009800Y-89151400I0J-60000D01*
G01*
X85009800Y-90731400D01*
G75*
G02*
X84949800Y-90791400I-60000J0D01*
G01*
X84569800Y-90791400D01*
G75*
G02*
X84509800Y-90731400I0J60000D01*
G01*
G37*
G04 #@! TD.AperFunction*
G04 #@! TA.AperFunction,ViaPad*
G36*
G01*
X143836200Y-114551400D02*
X143836200Y-116131400D01*
G75*
G02*
X143776200Y-116191400I-60000J0D01*
G01*
X143396200Y-116191400D01*
G75*
G02*
X143336200Y-116131400I0J60000D01*
G01*
X143336200Y-114551400D01*
G75*
G02*
X143396200Y-114491400I60000J0D01*
G01*
X143776200Y-114491400D01*
G75*
G02*
X143836200Y-114551400I0J-60000D01*
G01*
G37*
G04 #@! TD.AperFunction*
G04 #@! TA.AperFunction,ViaPad*
G36*
G01*
X58035000Y-63776800D02*
X58035000Y-65356800D01*
G75*
G02*
X57975000Y-65416800I-60000J0D01*
G01*
X57595000Y-65416800D01*
G75*
G02*
X57535000Y-65356800I0J60000D01*
G01*
X57535000Y-63776800D01*
G75*
G02*
X57595000Y-63716800I60000J0D01*
G01*
X57975000Y-63716800D01*
G75*
G02*
X58035000Y-63776800I0J-60000D01*
G01*
G37*
G04 #@! TD.AperFunction*
G04 #@! TA.AperFunction,ViaPad*
G36*
G01*
X72343200Y-90731400D02*
X72343200Y-89151400D01*
G75*
G02*
X72403200Y-89091400I60000J0D01*
G01*
X72783200Y-89091400D01*
G75*
G02*
X72843200Y-89151400I0J-60000D01*
G01*
X72843200Y-90731400D01*
G75*
G02*
X72783200Y-90791400I-60000J0D01*
G01*
X72403200Y-90791400D01*
G75*
G02*
X72343200Y-90731400I0J60000D01*
G01*
G37*
G04 #@! TD.AperFunction*
G04 #@! TA.AperFunction,ViaPad*
G36*
G01*
X145868200Y-89151400D02*
X145868200Y-90731400D01*
G75*
G02*
X145808200Y-90791400I-60000J0D01*
G01*
X145428200Y-90791400D01*
G75*
G02*
X145368200Y-90731400I0J60000D01*
G01*
X145368200Y-89151400D01*
G75*
G02*
X145428200Y-89091400I60000J0D01*
G01*
X145808200Y-89091400D01*
G75*
G02*
X145868200Y-89151400I0J-60000D01*
G01*
G37*
G04 #@! TD.AperFunction*
G04 #@! TA.AperFunction,ViaPad*
G36*
G01*
X62099000Y-63776800D02*
X62099000Y-65356800D01*
G75*
G02*
X62039000Y-65416800I-60000J0D01*
G01*
X61659000Y-65416800D01*
G75*
G02*
X61599000Y-65356800I0J60000D01*
G01*
X61599000Y-63776800D01*
G75*
G02*
X61659000Y-63716800I60000J0D01*
G01*
X62039000Y-63716800D01*
G75*
G02*
X62099000Y-63776800I0J-60000D01*
G01*
G37*
G04 #@! TD.AperFunction*
G04 #@! TA.AperFunction,ViaPad*
G36*
G01*
X68279200Y-90731400D02*
X68279200Y-89151400D01*
G75*
G02*
X68339200Y-89091400I60000J0D01*
G01*
X68719200Y-89091400D01*
G75*
G02*
X68779200Y-89151400I0J-60000D01*
G01*
X68779200Y-90731400D01*
G75*
G02*
X68719200Y-90791400I-60000J0D01*
G01*
X68339200Y-90791400D01*
G75*
G02*
X68279200Y-90731400I0J60000D01*
G01*
G37*
G04 #@! TD.AperFunction*
G04 #@! TA.AperFunction,ViaPad*
G36*
G01*
X149881400Y-89151400D02*
X149881400Y-90731400D01*
G75*
G02*
X149821400Y-90791400I-60000J0D01*
G01*
X149441400Y-90791400D01*
G75*
G02*
X149381400Y-90731400I0J60000D01*
G01*
X149381400Y-89151400D01*
G75*
G02*
X149441400Y-89091400I60000J0D01*
G01*
X149821400Y-89091400D01*
G75*
G02*
X149881400Y-89151400I0J-60000D01*
G01*
G37*
G04 #@! TD.AperFunction*
G04 #@! TA.AperFunction,ViaPad*
G36*
G01*
X76685200Y-73224200D02*
X75105200Y-73224200D01*
G75*
G02*
X75045200Y-73164200I0J60000D01*
G01*
X75045200Y-72784200D01*
G75*
G02*
X75105200Y-72724200I60000J0D01*
G01*
X76685200Y-72724200D01*
G75*
G02*
X76745200Y-72784200I0J-60000D01*
G01*
X76745200Y-73164200D01*
G75*
G02*
X76685200Y-73224200I-60000J0D01*
G01*
G37*
G04 #@! TD.AperFunction*
G04 #@! TA.AperFunction,ViaPad*
G36*
G01*
X64240600Y-90731400D02*
X64240600Y-89151400D01*
G75*
G02*
X64300600Y-89091400I60000J0D01*
G01*
X64680600Y-89091400D01*
G75*
G02*
X64740600Y-89151400I0J-60000D01*
G01*
X64740600Y-90731400D01*
G75*
G02*
X64680600Y-90791400I-60000J0D01*
G01*
X64300600Y-90791400D01*
G75*
G02*
X64240600Y-90731400I0J60000D01*
G01*
G37*
G04 #@! TD.AperFunction*
G04 #@! TA.AperFunction,ViaPad*
G36*
G01*
X153894600Y-89151400D02*
X153894600Y-90731400D01*
G75*
G02*
X153834600Y-90791400I-60000J0D01*
G01*
X153454600Y-90791400D01*
G75*
G02*
X153394600Y-90731400I0J60000D01*
G01*
X153394600Y-89151400D01*
G75*
G02*
X153454600Y-89091400I60000J0D01*
G01*
X153834600Y-89091400D01*
G75*
G02*
X153894600Y-89151400I0J-60000D01*
G01*
G37*
G04 #@! TD.AperFunction*
G04 #@! TA.AperFunction,ViaPad*
G36*
G01*
X76685200Y-77212000D02*
X75105200Y-77212000D01*
G75*
G02*
X75045200Y-77152000I0J60000D01*
G01*
X75045200Y-76772000D01*
G75*
G02*
X75105200Y-76712000I60000J0D01*
G01*
X76685200Y-76712000D01*
G75*
G02*
X76745200Y-76772000I0J-60000D01*
G01*
X76745200Y-77152000D01*
G75*
G02*
X76685200Y-77212000I-60000J0D01*
G01*
G37*
G04 #@! TD.AperFunction*
G04 #@! TA.AperFunction,ViaPad*
G36*
G01*
X52023200Y-90731400D02*
X52023200Y-89151400D01*
G75*
G02*
X52083200Y-89091400I60000J0D01*
G01*
X52463200Y-89091400D01*
G75*
G02*
X52523200Y-89151400I0J-60000D01*
G01*
X52523200Y-90731400D01*
G75*
G02*
X52463200Y-90791400I-60000J0D01*
G01*
X52083200Y-90791400D01*
G75*
G02*
X52023200Y-90731400I0J60000D01*
G01*
G37*
G04 #@! TD.AperFunction*
G04 #@! TA.AperFunction,ViaPad*
G36*
G01*
X143361600Y-65356800D02*
X143361600Y-63776800D01*
G75*
G02*
X143421600Y-63716800I60000J0D01*
G01*
X143801600Y-63716800D01*
G75*
G02*
X143861600Y-63776800I0J-60000D01*
G01*
X143861600Y-65356800D01*
G75*
G02*
X143801600Y-65416800I-60000J0D01*
G01*
X143421600Y-65416800D01*
G75*
G02*
X143361600Y-65356800I0J60000D01*
G01*
G37*
G04 #@! TD.AperFunction*
G04 #@! TA.AperFunction,ViaPad*
G36*
G01*
X76685200Y-81276000D02*
X75105200Y-81276000D01*
G75*
G02*
X75045200Y-81216000I0J60000D01*
G01*
X75045200Y-80836000D01*
G75*
G02*
X75105200Y-80776000I60000J0D01*
G01*
X76685200Y-80776000D01*
G75*
G02*
X76745200Y-80836000I0J-60000D01*
G01*
X76745200Y-81216000D01*
G75*
G02*
X76685200Y-81276000I-60000J0D01*
G01*
G37*
G04 #@! TD.AperFunction*
G04 #@! TA.AperFunction,ViaPad*
G36*
G01*
X47984600Y-90731400D02*
X47984600Y-89151400D01*
G75*
G02*
X48044600Y-89091400I60000J0D01*
G01*
X48424600Y-89091400D01*
G75*
G02*
X48484600Y-89151400I0J-60000D01*
G01*
X48484600Y-90731400D01*
G75*
G02*
X48424600Y-90791400I-60000J0D01*
G01*
X48044600Y-90791400D01*
G75*
G02*
X47984600Y-90731400I0J60000D01*
G01*
G37*
G04 #@! TD.AperFunction*
G04 #@! TA.AperFunction,ViaPad*
G36*
G01*
X139297600Y-65356800D02*
X139297600Y-63776800D01*
G75*
G02*
X139357600Y-63716800I60000J0D01*
G01*
X139737600Y-63716800D01*
G75*
G02*
X139797600Y-63776800I0J-60000D01*
G01*
X139797600Y-65356800D01*
G75*
G02*
X139737600Y-65416800I-60000J0D01*
G01*
X139357600Y-65416800D01*
G75*
G02*
X139297600Y-65356800I0J60000D01*
G01*
G37*
G04 #@! TD.AperFunction*
G04 #@! TA.AperFunction,ViaPad*
G36*
G01*
X121561800Y-80725200D02*
X123141800Y-80725200D01*
G75*
G02*
X123201800Y-80785200I0J-60000D01*
G01*
X123201800Y-81165200D01*
G75*
G02*
X123141800Y-81225200I-60000J0D01*
G01*
X121561800Y-81225200D01*
G75*
G02*
X121501800Y-81165200I0J60000D01*
G01*
X121501800Y-80785200D01*
G75*
G02*
X121561800Y-80725200I60000J0D01*
G01*
G37*
G04 #@! TD.AperFunction*
G04 #@! TA.AperFunction,ViaPad*
G36*
G01*
X43946000Y-90731400D02*
X43946000Y-89151400D01*
G75*
G02*
X44006000Y-89091400I60000J0D01*
G01*
X44386000Y-89091400D01*
G75*
G02*
X44446000Y-89151400I0J-60000D01*
G01*
X44446000Y-90731400D01*
G75*
G02*
X44386000Y-90791400I-60000J0D01*
G01*
X44006000Y-90791400D01*
G75*
G02*
X43946000Y-90731400I0J60000D01*
G01*
G37*
G04 #@! TD.AperFunction*
D10*
X116419840Y-121928240D03*
X116419840Y-120538240D03*
X117614840Y-121928240D03*
X117614840Y-120538240D03*
X118809840Y-121928240D03*
X118809840Y-120538240D03*
X120004840Y-121928240D03*
X120004840Y-120538240D03*
X82258960Y-120432160D03*
X82258960Y-121822160D03*
X81063960Y-120432160D03*
X81063960Y-121822160D03*
X79868960Y-120432160D03*
X79868960Y-121822160D03*
X78673960Y-120432160D03*
X78673960Y-121822160D03*
X110146040Y-121928240D03*
X110146040Y-120538240D03*
X111341040Y-121928240D03*
X111341040Y-120538240D03*
X112536040Y-121928240D03*
X112536040Y-120538240D03*
X113731040Y-121928240D03*
X113731040Y-120538240D03*
X88558160Y-120438560D03*
X88558160Y-121828560D03*
X87363160Y-120438560D03*
X87363160Y-121828560D03*
X86168160Y-120438560D03*
X86168160Y-121828560D03*
X84973160Y-120438560D03*
X84973160Y-121828560D03*
D11*
X143913860Y-67869400D03*
X145341340Y-67869400D03*
X126062740Y-57733600D03*
X124635260Y-57733600D03*
X103426260Y-56718800D03*
X104853740Y-56718800D03*
X77188060Y-61570200D03*
X78615540Y-61570200D03*
X52016660Y-80163000D03*
X53444140Y-80163000D03*
X145341340Y-76504200D03*
X143913860Y-76504200D03*
X124635260Y-61392400D03*
X126062740Y-61392400D03*
X98346260Y-56718800D03*
X99773740Y-56718800D03*
X72108060Y-61570200D03*
X73535540Y-61570200D03*
D12*
X79426400Y-72621140D03*
X79426400Y-71193660D03*
D11*
X143913860Y-80162400D03*
X145341340Y-80162400D03*
X119555260Y-61392400D03*
X120982740Y-61392400D03*
X93266260Y-56718800D03*
X94693740Y-56718800D03*
X62176660Y-68098000D03*
X63604140Y-68098000D03*
D12*
X87832600Y-71193660D03*
X87832600Y-72621140D03*
D11*
X114449860Y-61391800D03*
X115877340Y-61391800D03*
X82242660Y-49505200D03*
X83670140Y-49505200D03*
X63604140Y-76504200D03*
X62176660Y-76504200D03*
D12*
X91491400Y-72621140D03*
X91491400Y-71193660D03*
D11*
X133753860Y-80163000D03*
X135181340Y-80163000D03*
X103413460Y-44653800D03*
X104840940Y-44653800D03*
X83670140Y-57911400D03*
X82242660Y-57911400D03*
X62176660Y-80163000D03*
X63604140Y-80163000D03*
D12*
X91491400Y-77701140D03*
X91491400Y-76273660D03*
D11*
X124635260Y-49098800D03*
X126062740Y-49098800D03*
X104853740Y-53060000D03*
X103426260Y-53060000D03*
X82268060Y-61570200D03*
X83695540Y-61570200D03*
X57096660Y-80163000D03*
X58524140Y-80163000D03*
D12*
X91491400Y-82781140D03*
X91491400Y-81353660D03*
X118821200Y-81277460D03*
X118821200Y-82704940D03*
D11*
X135130540Y-101878800D03*
X133703060Y-101878800D03*
X113408460Y-105537600D03*
X114835940Y-105537600D03*
X88084660Y-105537600D03*
X89512140Y-105537600D03*
X62735460Y-105537000D03*
X64162940Y-105537000D03*
D12*
X110414400Y-82704940D03*
X110414400Y-81277460D03*
D11*
X133703060Y-105537600D03*
X135130540Y-105537600D03*
X83004660Y-105537000D03*
X84432140Y-105537000D03*
X52600860Y-93244000D03*
X54028340Y-93244000D03*
D12*
X106755600Y-81277460D03*
X106755600Y-82704940D03*
D11*
X128623060Y-105537600D03*
X130050540Y-105537600D03*
X103248460Y-105537600D03*
X104675940Y-105537600D03*
X72895460Y-93244000D03*
X74322940Y-93244000D03*
X54028340Y-101878800D03*
X52600860Y-101878800D03*
D12*
X106755600Y-76197460D03*
X106755600Y-77624940D03*
D11*
X123543060Y-105537600D03*
X124970540Y-105537600D03*
X93164660Y-93244000D03*
X94592140Y-93244000D03*
X74322940Y-101878800D03*
X72895460Y-101878800D03*
X52600860Y-105537000D03*
X54028340Y-105537000D03*
D12*
X106755600Y-71168260D03*
X106755600Y-72595740D03*
D11*
X94592140Y-101878800D03*
X93164660Y-101878800D03*
X72895460Y-105537000D03*
X74322940Y-105537000D03*
X47520860Y-105537000D03*
X48948340Y-105537000D03*
X133703060Y-93244000D03*
X135130540Y-93244000D03*
X114835940Y-101878800D03*
X113408460Y-101878800D03*
X93164660Y-105537600D03*
X94592140Y-105537600D03*
X67815460Y-105537000D03*
X69242940Y-105537000D03*
X42440860Y-105537000D03*
X43868340Y-105537000D03*
X62913260Y-118669400D03*
X64340740Y-118669400D03*
X83924140Y-145109600D03*
X82496660Y-145109600D03*
X103426260Y-154407200D03*
X104853740Y-154407200D03*
X119428260Y-148793800D03*
X120855740Y-148793800D03*
X133753860Y-130937000D03*
X135181340Y-130937000D03*
X64340740Y-127304200D03*
X62913260Y-127304200D03*
X82496660Y-148768400D03*
X83924140Y-148768400D03*
X98346260Y-154407200D03*
X99773740Y-154407200D03*
X114348260Y-148793800D03*
X115775740Y-148793800D03*
X153984860Y-93244000D03*
X155412340Y-93244000D03*
X145265140Y-101878800D03*
X143837660Y-101878800D03*
X93279060Y-44653800D03*
X94706540Y-44653800D03*
X53444140Y-76504200D03*
X52016660Y-76504200D03*
X123543060Y-93244000D03*
X124970540Y-93244000D03*
X84432140Y-101878800D03*
X83004660Y-101878800D03*
X62913260Y-130963000D03*
X64340740Y-130963000D03*
X77416660Y-148768400D03*
X78844140Y-148768400D03*
X93266260Y-154407200D03*
X94693740Y-154407200D03*
X143913860Y-118644000D03*
X145341340Y-118644000D03*
X155425140Y-101878800D03*
X153997660Y-101878800D03*
X135176260Y-76504200D03*
X133748780Y-76504200D03*
X94693740Y-53060000D03*
X93266260Y-53060000D03*
D12*
X79426400Y-82781140D03*
X79426400Y-81353660D03*
D11*
X124970540Y-101878800D03*
X123543060Y-101878800D03*
X62735460Y-93244000D03*
X64162940Y-93244000D03*
X57833260Y-130963000D03*
X59260740Y-130963000D03*
X72336660Y-148768400D03*
X73764140Y-148768400D03*
X124508260Y-136500200D03*
X125935740Y-136500200D03*
X145341340Y-127278800D03*
X143913860Y-127278800D03*
X153997660Y-105537600D03*
X155425140Y-105537600D03*
X133748880Y-67862800D03*
X135176360Y-67862800D03*
X72108060Y-49505200D03*
X73535540Y-49505200D03*
D12*
X87832600Y-81328260D03*
X87832600Y-82755740D03*
D11*
X103273860Y-93244000D03*
X104701340Y-93244000D03*
X64162940Y-101878800D03*
X62735460Y-101878800D03*
X103426260Y-142113600D03*
X104853740Y-142113600D03*
X125935740Y-145135000D03*
X124508260Y-145135000D03*
X143913860Y-130937000D03*
X145341340Y-130937000D03*
X148892260Y-105537600D03*
X150319740Y-105537600D03*
X114475260Y-49098800D03*
X115902740Y-49098800D03*
X73535540Y-57911400D03*
X72108060Y-57911400D03*
D12*
X119049200Y-71168260D03*
X119049200Y-72595740D03*
D11*
X104688740Y-101878800D03*
X103261260Y-101878800D03*
X42440860Y-93244000D03*
X43868340Y-93244000D03*
X82496660Y-136474800D03*
X83924140Y-136474800D03*
X104828340Y-150748400D03*
X103400860Y-150748400D03*
X124508260Y-148793800D03*
X125935740Y-148793800D03*
X138833860Y-130937600D03*
X140261340Y-130937600D03*
X143837660Y-105537600D03*
X145265140Y-105537600D03*
X115877340Y-57733600D03*
X114449860Y-57733600D03*
X52016660Y-68097400D03*
X53444140Y-68097400D03*
D12*
X110414400Y-72593100D03*
X110414400Y-71165620D03*
D11*
X83004660Y-93244000D03*
X84432140Y-93244000D03*
X43868340Y-101878800D03*
X42440860Y-101878800D03*
D13*
X57852960Y-124370040D03*
X59242960Y-124370040D03*
X57852960Y-125565040D03*
X59242960Y-125565040D03*
X57852960Y-126760040D03*
X59242960Y-126760040D03*
X57852960Y-127955040D03*
X59242960Y-127955040D03*
X140241640Y-77153560D03*
X138851640Y-77153560D03*
X140241640Y-75958560D03*
X138851640Y-75958560D03*
X140241640Y-74763560D03*
X138851640Y-74763560D03*
X140241640Y-73568560D03*
X138851640Y-73568560D03*
D10*
X109765040Y-77605240D03*
X109765040Y-76215240D03*
X110960040Y-77605240D03*
X110960040Y-76215240D03*
X112155040Y-77605240D03*
X112155040Y-76215240D03*
X113350040Y-77605240D03*
X113350040Y-76215240D03*
D13*
X57852960Y-118020040D03*
X59242960Y-118020040D03*
X57852960Y-119215040D03*
X59242960Y-119215040D03*
X57852960Y-120410040D03*
X59242960Y-120410040D03*
X57852960Y-121605040D03*
X59242960Y-121605040D03*
X138853560Y-67220040D03*
X140243560Y-67220040D03*
X138853560Y-68415040D03*
X140243560Y-68415040D03*
X138853560Y-69610040D03*
X140243560Y-69610040D03*
X138853560Y-70805040D03*
X140243560Y-70805040D03*
D10*
X119698560Y-76217160D03*
X119698560Y-77607160D03*
X118503560Y-76217160D03*
X118503560Y-77607160D03*
X117308560Y-76217160D03*
X117308560Y-77607160D03*
X116113560Y-76217160D03*
X116113560Y-77607160D03*
D13*
X77436360Y-142175440D03*
X78826360Y-142175440D03*
X77436360Y-143370440D03*
X78826360Y-143370440D03*
X77436360Y-144565440D03*
X78826360Y-144565440D03*
X77436360Y-145760440D03*
X78826360Y-145760440D03*
X120963040Y-58382960D03*
X119573040Y-58382960D03*
X120963040Y-57187960D03*
X119573040Y-57187960D03*
X120963040Y-55992960D03*
X119573040Y-55992960D03*
X120963040Y-54797960D03*
X119573040Y-54797960D03*
X130030840Y-102528160D03*
X128640840Y-102528160D03*
X130030840Y-101333160D03*
X128640840Y-101333160D03*
X130030840Y-100138160D03*
X128640840Y-100138160D03*
X130030840Y-98943160D03*
X128640840Y-98943160D03*
X77436360Y-135825440D03*
X78826360Y-135825440D03*
X77436360Y-137020440D03*
X78826360Y-137020440D03*
X77436360Y-138215440D03*
X78826360Y-138215440D03*
X77436360Y-139410440D03*
X78826360Y-139410440D03*
X120963040Y-52032960D03*
X119573040Y-52032960D03*
X120963040Y-50837960D03*
X119573040Y-50837960D03*
X120963040Y-49642960D03*
X119573040Y-49642960D03*
X120963040Y-48447960D03*
X119573040Y-48447960D03*
X130030840Y-96178160D03*
X128640840Y-96178160D03*
X130030840Y-94983160D03*
X128640840Y-94983160D03*
X130030840Y-93788160D03*
X128640840Y-93788160D03*
X130030840Y-92593160D03*
X128640840Y-92593160D03*
X98365960Y-147814240D03*
X99755960Y-147814240D03*
X98365960Y-149009240D03*
X99755960Y-149009240D03*
X98365960Y-150204240D03*
X99755960Y-150204240D03*
X98365960Y-151399240D03*
X99755960Y-151399240D03*
X99754040Y-53709360D03*
X98364040Y-53709360D03*
X99754040Y-52514360D03*
X98364040Y-52514360D03*
X99754040Y-51319360D03*
X98364040Y-51319360D03*
X99754040Y-50124360D03*
X98364040Y-50124360D03*
X109736240Y-102528160D03*
X108346240Y-102528160D03*
X109736240Y-101333160D03*
X108346240Y-101333160D03*
X109736240Y-100138160D03*
X108346240Y-100138160D03*
X109736240Y-98943160D03*
X108346240Y-98943160D03*
X98365960Y-141464240D03*
X99755960Y-141464240D03*
X98365960Y-142659240D03*
X99755960Y-142659240D03*
X98365960Y-143854240D03*
X99755960Y-143854240D03*
X98365960Y-145049240D03*
X99755960Y-145049240D03*
X99754040Y-47359360D03*
X98364040Y-47359360D03*
X99754040Y-46164360D03*
X98364040Y-46164360D03*
X99754040Y-44969360D03*
X98364040Y-44969360D03*
X99754040Y-43774360D03*
X98364040Y-43774360D03*
X109736240Y-96178160D03*
X108346240Y-96178160D03*
X109736240Y-94983160D03*
X108346240Y-94983160D03*
X109736240Y-93788160D03*
X108346240Y-93788160D03*
X109736240Y-92593160D03*
X108346240Y-92593160D03*
X119447960Y-142200840D03*
X120837960Y-142200840D03*
X119447960Y-143395840D03*
X120837960Y-143395840D03*
X119447960Y-144590840D03*
X120837960Y-144590840D03*
X119447960Y-145785840D03*
X120837960Y-145785840D03*
X89492440Y-102528160D03*
X88102440Y-102528160D03*
X89492440Y-101333160D03*
X88102440Y-101333160D03*
X89492440Y-100138160D03*
X88102440Y-100138160D03*
X89492440Y-98943160D03*
X88102440Y-98943160D03*
X119447960Y-135850840D03*
X120837960Y-135850840D03*
X119447960Y-137045840D03*
X120837960Y-137045840D03*
X119447960Y-138240840D03*
X120837960Y-138240840D03*
X119447960Y-139435840D03*
X120837960Y-139435840D03*
X78595840Y-52210760D03*
X77205840Y-52210760D03*
X78595840Y-51015760D03*
X77205840Y-51015760D03*
X78595840Y-49820760D03*
X77205840Y-49820760D03*
X78595840Y-48625760D03*
X77205840Y-48625760D03*
X89492440Y-96178160D03*
X88102440Y-96178160D03*
X89492440Y-94983160D03*
X88102440Y-94983160D03*
X89492440Y-93788160D03*
X88102440Y-93788160D03*
X89492440Y-92593160D03*
X88102440Y-92593160D03*
X138853560Y-124344640D03*
X140243560Y-124344640D03*
X138853560Y-125539640D03*
X140243560Y-125539640D03*
X138853560Y-126734640D03*
X140243560Y-126734640D03*
X138853560Y-127929640D03*
X140243560Y-127929640D03*
X57116360Y-73570040D03*
X58506360Y-73570040D03*
X57116360Y-74765040D03*
X58506360Y-74765040D03*
X57116360Y-75960040D03*
X58506360Y-75960040D03*
X57116360Y-77155040D03*
X58506360Y-77155040D03*
X69223240Y-102528160D03*
X67833240Y-102528160D03*
X69223240Y-101333160D03*
X67833240Y-101333160D03*
X69223240Y-100138160D03*
X67833240Y-100138160D03*
X69223240Y-98943160D03*
X67833240Y-98943160D03*
D11*
X108328460Y-105537600D03*
X109755940Y-105537600D03*
D13*
X138853560Y-117994640D03*
X140243560Y-117994640D03*
X138853560Y-119189640D03*
X140243560Y-119189640D03*
X138853560Y-120384640D03*
X140243560Y-120384640D03*
X138853560Y-121579640D03*
X140243560Y-121579640D03*
X57116360Y-67220040D03*
X58506360Y-67220040D03*
X57116360Y-68415040D03*
X58506360Y-68415040D03*
X57116360Y-69610040D03*
X58506360Y-69610040D03*
X57116360Y-70805040D03*
X58506360Y-70805040D03*
X69223240Y-96178160D03*
X67833240Y-96178160D03*
X69223240Y-94983160D03*
X67833240Y-94983160D03*
X69223240Y-93788160D03*
X67833240Y-93788160D03*
X69223240Y-92593160D03*
X67833240Y-92593160D03*
X148937360Y-98944640D03*
X150327360Y-98944640D03*
X148937360Y-100139640D03*
X150327360Y-100139640D03*
X148937360Y-101334640D03*
X150327360Y-101334640D03*
X148937360Y-102529640D03*
X150327360Y-102529640D03*
D10*
X84898440Y-77681440D03*
X84898440Y-76291440D03*
X86093440Y-77681440D03*
X86093440Y-76291440D03*
X87288440Y-77681440D03*
X87288440Y-76291440D03*
X88483440Y-77681440D03*
X88483440Y-76291440D03*
D13*
X48928640Y-102528160D03*
X47538640Y-102528160D03*
X48928640Y-101333160D03*
X47538640Y-101333160D03*
X48928640Y-100138160D03*
X47538640Y-100138160D03*
X48928640Y-98943160D03*
X47538640Y-98943160D03*
X148937360Y-92594640D03*
X150327360Y-92594640D03*
X148937360Y-93789640D03*
X150327360Y-93789640D03*
X148937360Y-94984640D03*
X150327360Y-94984640D03*
X148937360Y-96179640D03*
X150327360Y-96179640D03*
D10*
X78548440Y-77681440D03*
X78548440Y-76291440D03*
X79743440Y-77681440D03*
X79743440Y-76291440D03*
X80938440Y-77681440D03*
X80938440Y-76291440D03*
X82133440Y-77681440D03*
X82133440Y-76291440D03*
D13*
X48928640Y-96178160D03*
X47538640Y-96178160D03*
X48928640Y-94983160D03*
X47538640Y-94983160D03*
X48928640Y-93788160D03*
X47538640Y-93788160D03*
X48928640Y-92593160D03*
X47538640Y-92593160D03*
D11*
X143837660Y-93244000D03*
X145265140Y-93244000D03*
X135181340Y-127278800D03*
X133753860Y-127278800D03*
X133753860Y-118644000D03*
X135181340Y-118644000D03*
X115775740Y-145135000D03*
X114348260Y-145135000D03*
X114348260Y-136500200D03*
X115775740Y-136500200D03*
X94693740Y-150748400D03*
X93266260Y-150748400D03*
X93266260Y-142113600D03*
X94693740Y-142113600D03*
X73764140Y-145109600D03*
X72336660Y-145109600D03*
X72336660Y-136474800D03*
X73764140Y-136474800D03*
X54178200Y-127310800D03*
X52750720Y-127310800D03*
D12*
X87934200Y-125498860D03*
X87934200Y-126926340D03*
X79299400Y-126926340D03*
X79299400Y-125498860D03*
X110719200Y-116867940D03*
X110719200Y-115440460D03*
X119354000Y-115440460D03*
X119354000Y-116867940D03*
X91593000Y-126951740D03*
X91593000Y-125524260D03*
X91593000Y-121846340D03*
X91593000Y-120418860D03*
X91593000Y-116766340D03*
X91593000Y-115338860D03*
X87934200Y-115338860D03*
X87934200Y-116766340D03*
X79299400Y-116766340D03*
X79299400Y-115338860D03*
X107060400Y-115440460D03*
X107060400Y-116867940D03*
X107060400Y-120520460D03*
X107060400Y-121947940D03*
X107060400Y-125600460D03*
X107060400Y-127027940D03*
X110719200Y-127027940D03*
X110719200Y-125600460D03*
X119354000Y-125600460D03*
X119354000Y-127027940D03*
D11*
X113408460Y-93244000D03*
X114835940Y-93244000D03*
D13*
X78595840Y-58560760D03*
X77205840Y-58560760D03*
X78595840Y-57365760D03*
X77205840Y-57365760D03*
X78595840Y-56170760D03*
X77205840Y-56170760D03*
X78595840Y-54975760D03*
X77205840Y-54975760D03*
D11*
X52753260Y-130963000D03*
X54180740Y-130963000D03*
X138833860Y-80163000D03*
X140261340Y-80163000D03*
X52750720Y-118668800D03*
X54178200Y-118668800D03*
D14*
X143459200Y-97510600D03*
X133248400Y-125501400D03*
X70764400Y-142062200D03*
X76987400Y-123444000D03*
X136525000Y-116992400D03*
X117144800Y-134823200D03*
X94284800Y-146735800D03*
X118795800Y-131546600D03*
X128041400Y-129692400D03*
X70618600Y-139554200D03*
X86741000Y-150647400D03*
X90297000Y-147040600D03*
X75107800Y-123012200D03*
X115493800Y-140944600D03*
X67291200Y-139554200D03*
X58229500Y-137033000D03*
X91770200Y-123596400D03*
X94538800Y-123596400D03*
X104038400Y-123596400D03*
X106832400Y-123596400D03*
X82372200Y-115316000D03*
D15*
X61391800Y-142900400D03*
X141859000Y-95072200D03*
X150215600Y-118821200D03*
X90271600Y-74447400D03*
X96088200Y-81432400D03*
X139979400Y-62077600D03*
X157505400Y-95097600D03*
X40055800Y-93294200D03*
X40081200Y-101981000D03*
X50774600Y-111353600D03*
X83616800Y-124536200D03*
X102285800Y-116941600D03*
X115036600Y-116535200D03*
D14*
X120683020Y-82849720D03*
D15*
X58420000Y-58420000D03*
X60960000Y-55880000D03*
X63500000Y-53340000D03*
X137160000Y-55880000D03*
X139700000Y-58420000D03*
X134620000Y-53340000D03*
D14*
X67132200Y-62992000D03*
X64998600Y-62992000D03*
D15*
X40157400Y-125476000D03*
D14*
X56388000Y-117919500D03*
X56388000Y-119824500D03*
X56388000Y-121666000D03*
X137416540Y-67200780D03*
X137416540Y-68996560D03*
X137416540Y-70815200D03*
X119644160Y-74772520D03*
X117863620Y-74785220D03*
X116156740Y-74772520D03*
D15*
X43535600Y-128803400D03*
D14*
X56388000Y-124333000D03*
X56388000Y-126174500D03*
X56388000Y-128016000D03*
X113395760Y-79075280D03*
X111518700Y-79095600D03*
X109743240Y-79062580D03*
X141678660Y-77157580D03*
X141716760Y-75361800D03*
X141691360Y-73555860D03*
X112077500Y-87185500D03*
X106680000Y-88138000D03*
X90754200Y-97586800D03*
X95224600Y-97586800D03*
X105156000Y-97663000D03*
X102171500Y-103695500D03*
X121221500Y-94869000D03*
X114985800Y-88722200D03*
X73126600Y-56134000D03*
X53213000Y-61823600D03*
X96088200Y-48818800D03*
X115316000Y-53543200D03*
X108788200Y-50698400D03*
X113233200Y-53543200D03*
X83667600Y-140766800D03*
X58928000Y-136144000D03*
X73558400Y-80137000D03*
X73822000Y-77562000D03*
X93319600Y-79984600D03*
X95986600Y-79984600D03*
X114747040Y-72133460D03*
X113327180Y-68305680D03*
X116382800Y-53238400D03*
X137121900Y-63027560D03*
X106578400Y-146989800D03*
X104470200Y-152628600D03*
X50012600Y-97561400D03*
X63754000Y-97688400D03*
X53949600Y-97561400D03*
X60388500Y-100838000D03*
X111125000Y-97536000D03*
X124612400Y-97586800D03*
X122377200Y-97586800D03*
X118389400Y-97536000D03*
X94780000Y-48933000D03*
X73621800Y-53606800D03*
X125501400Y-140766800D03*
X123164600Y-143103600D03*
X59347000Y-135217000D03*
X62827000Y-135217000D03*
X64998600Y-64566800D03*
X66370200Y-65938400D03*
X84099400Y-97612200D03*
X70535800Y-97586800D03*
X76606400Y-97586800D03*
X80619600Y-99339400D03*
X81305400Y-82677000D03*
X53848000Y-72415400D03*
X143586200Y-91617800D03*
X136248140Y-71973440D03*
X134112000Y-72217280D03*
X142567660Y-88445340D03*
X148463000Y-123317000D03*
X146653000Y-121723400D03*
D15*
X141986000Y-99974400D03*
X150000258Y-115265200D03*
D14*
X147040600Y-124358400D03*
X145669000Y-125653800D03*
X56388000Y-64820800D03*
X54965600Y-63576200D03*
X145425160Y-72186800D03*
D15*
X115722400Y-86258400D03*
X96164400Y-131216400D03*
X70561200Y-154000200D03*
D14*
X111442500Y-86423500D03*
X107442000Y-87185500D03*
X143827600Y-86232900D03*
X141033500Y-86233000D03*
X131114800Y-88315800D03*
X126888240Y-86400640D03*
X64439800Y-72288400D03*
X67538600Y-69037200D03*
X124135310Y-73614710D03*
X124256800Y-76276200D03*
X132791200Y-57297320D03*
X132791200Y-54091840D03*
X76936600Y-74777600D03*
X64439800Y-78435200D03*
X130475360Y-72299200D03*
D15*
X124028200Y-70332600D03*
X69240400Y-130225800D03*
X59842400Y-140792200D03*
X126492000Y-115062000D03*
X136499600Y-143499058D03*
D14*
X113817400Y-123367800D03*
X111963200Y-123367800D03*
X110032800Y-123393200D03*
D15*
X110972600Y-158927800D03*
D14*
X120091200Y-123393200D03*
X118211600Y-123393200D03*
X116306600Y-123393200D03*
D15*
X112471200Y-156794200D03*
D16*
X70764400Y-142062200D02*
X70764400Y-142062200D01*
X76987400Y-123444000D02*
X76987400Y-123444000D01*
X118135400Y-132207000D02*
X118795800Y-131546600D01*
X118135400Y-132207000D02*
X118135400Y-133832600D01*
X118135400Y-133832600D02*
X117144800Y-134823200D01*
X117144800Y-134823200D02*
X117144800Y-134823200D01*
X70764400Y-150114000D02*
X70764400Y-142062200D01*
X94284800Y-146735800D02*
X93853000Y-146304000D01*
X71297800Y-150647400D02*
X70764400Y-150114000D01*
X84836000Y-150647400D02*
X71297800Y-150647400D01*
X133248400Y-125501400D02*
X132232400Y-125501400D01*
X132232400Y-125501400D02*
X128041400Y-129692400D01*
X118795800Y-131546600D02*
X118795800Y-131546600D01*
X128041400Y-129692400D02*
X128041400Y-129692400D01*
X93853000Y-146304000D02*
X91033600Y-146304000D01*
X91033600Y-146304000D02*
X90297000Y-147040600D01*
X84836000Y-150647400D02*
X86741000Y-150647400D01*
X86741000Y-150647400D02*
X86741000Y-150647400D01*
X90297000Y-147040600D02*
X90297000Y-147040600D01*
X76555600Y-123012200D02*
X76987400Y-123444000D01*
X75107800Y-123012200D02*
X76555600Y-123012200D01*
X115493800Y-140944600D02*
X112826800Y-140944600D01*
X64770000Y-137033000D02*
X67291200Y-139554200D01*
X59309000Y-137033000D02*
X64770000Y-137033000D01*
X59309000Y-137033000D02*
X58229500Y-137033000D01*
X58229500Y-137033000D02*
X58229500Y-137033000D01*
X91770200Y-123596400D02*
X94538800Y-123596400D01*
X94538800Y-123596400D02*
X94538800Y-123596400D01*
X104038400Y-123596400D02*
X106832400Y-123596400D01*
X106832400Y-123596400D02*
X106832400Y-123596400D01*
X137439400Y-116078000D02*
X136525000Y-116992400D01*
X137439400Y-101320600D02*
X137439400Y-116078000D01*
X143459200Y-97510600D02*
X141249400Y-97510600D01*
X141249400Y-97510600D02*
X137439400Y-101320600D01*
D17*
X64998600Y-62992000D02*
X67132200Y-62992000D01*
D18*
X50114200Y-120548400D02*
X45237400Y-120548400D01*
X45237400Y-120548400D02*
X45085000Y-120548400D01*
X45085000Y-120548400D02*
X40157400Y-125476000D01*
X40157400Y-125476000D02*
X40157400Y-125476000D01*
X50190400Y-124409200D02*
X47929800Y-124409200D01*
X47929800Y-124409200D02*
X43535600Y-128803400D01*
X43535600Y-128803400D02*
X43535600Y-128803400D01*
D16*
X111125000Y-88138000D02*
X112077500Y-87185500D01*
X106680000Y-88138000D02*
X111125000Y-88138000D01*
X95173800Y-97586800D02*
X90754200Y-97586800D01*
X95224600Y-97586800D02*
X95224600Y-97586800D01*
X95224600Y-97586800D02*
X95173800Y-97586800D01*
X105156000Y-97663000D02*
X105791000Y-97663000D01*
X105791000Y-97663000D02*
X106045000Y-97917000D01*
X106045000Y-97917000D02*
X106045000Y-103124000D01*
X106045000Y-103124000D02*
X105473500Y-103695500D01*
X105473500Y-103695500D02*
X102171500Y-103695500D01*
X102171500Y-103695500D02*
X102171500Y-103695500D01*
X115074700Y-88722200D02*
X114985800Y-88722200D01*
X121221500Y-94869000D02*
X115074700Y-88722200D01*
X73126600Y-56134000D02*
X70739000Y-56134000D01*
X70739000Y-56134000D02*
X65049400Y-61823600D01*
X65049400Y-61823600D02*
X53213000Y-61823600D01*
X53213000Y-61823600D02*
X53213000Y-61823600D01*
X106908600Y-48818800D02*
X96088200Y-48818800D01*
X106908600Y-48818800D02*
X108788200Y-50698400D01*
X108788200Y-50698400D02*
X108788200Y-50698400D01*
X115316000Y-53543200D02*
X113233200Y-53543200D01*
X113233200Y-53543200D02*
X113233200Y-53543200D01*
X83642200Y-140741400D02*
X83667600Y-140766800D01*
X65354200Y-136144000D02*
X69951600Y-140741400D01*
X69951600Y-140741400D02*
X83642200Y-140741400D01*
X65354200Y-136144000D02*
X64325500Y-136144000D01*
X64325500Y-136144000D02*
X58928000Y-136144000D01*
X58928000Y-136144000D02*
X58928000Y-136144000D01*
X73822000Y-77562000D02*
X73771200Y-77562000D01*
X73558400Y-77825600D02*
X73822000Y-77562000D01*
X73558400Y-80137000D02*
X73558400Y-77825600D01*
X95986600Y-79984600D02*
X93319600Y-79984600D01*
X114747040Y-72133460D02*
X114747040Y-69725540D01*
X114747040Y-69725540D02*
X113327180Y-68305680D01*
X113327180Y-68305680D02*
X113327180Y-68305680D01*
X116382800Y-53240940D02*
X116382800Y-53238400D01*
X137121900Y-62052200D02*
X133449060Y-58379360D01*
X133449060Y-58379360D02*
X131699000Y-58379360D01*
X137121900Y-63027560D02*
X137121900Y-62052200D01*
X116583460Y-53441600D02*
X116382800Y-53240940D01*
X131699000Y-58379360D02*
X126761240Y-53441600D01*
X126761240Y-53441600D02*
X116583460Y-53441600D01*
X106578400Y-146989800D02*
X106578400Y-151866600D01*
X106578400Y-151866600D02*
X105816400Y-152628600D01*
X105816400Y-152628600D02*
X104470200Y-152628600D01*
X104470200Y-152628600D02*
X104470200Y-152628600D01*
X63627000Y-97561400D02*
X63754000Y-97688400D01*
X50012600Y-97561400D02*
X53949600Y-97561400D01*
X53949600Y-97561400D02*
X53949600Y-97561400D01*
X63754000Y-97688400D02*
X61696600Y-97688400D01*
X61696600Y-97688400D02*
X60388500Y-98996500D01*
X60388500Y-98996500D02*
X60388500Y-100838000D01*
X60388500Y-100838000D02*
X60388500Y-100838000D01*
X124561600Y-97536000D02*
X124612400Y-97586800D01*
X124612400Y-97586800D02*
X122377200Y-97586800D01*
X122377200Y-97586800D02*
X122377200Y-97586800D01*
X111125000Y-97536000D02*
X118389400Y-97536000D01*
X118389400Y-97536000D02*
X118389400Y-97536000D01*
X73621800Y-53606800D02*
X85890200Y-53606800D01*
X90564000Y-48933000D02*
X94780000Y-48933000D01*
X85890200Y-53606800D02*
X90564000Y-48933000D01*
X123875800Y-140766800D02*
X123164600Y-141478000D01*
X125501400Y-140766800D02*
X123875800Y-140766800D01*
X123164600Y-143103600D02*
X123164600Y-141478000D01*
X59347000Y-135217000D02*
X62827000Y-135217000D01*
D19*
X66370200Y-65938400D02*
X66370200Y-65938400D01*
D16*
X66370200Y-65938400D02*
X64998600Y-64566800D01*
X84074000Y-97586800D02*
X84099400Y-97612200D01*
X70535800Y-97586800D02*
X76606400Y-97586800D01*
X76606400Y-97586800D02*
X76606400Y-97586800D01*
X82346800Y-97612200D02*
X80619600Y-99339400D01*
X84099400Y-97612200D02*
X82346800Y-97612200D01*
X61747400Y-82219800D02*
X74091800Y-82219800D01*
X54152800Y-72110600D02*
X59918600Y-72110600D01*
X81305400Y-83515200D02*
X81305400Y-82677000D01*
X53848000Y-72415400D02*
X54152800Y-72110600D01*
X59918600Y-72110600D02*
X60756800Y-72948800D01*
X60756800Y-81229200D02*
X61747400Y-82219800D01*
X60756800Y-72948800D02*
X60756800Y-81229200D01*
X81305400Y-83515200D02*
X80810100Y-84010500D01*
X75882500Y-84010500D02*
X74091800Y-82219800D01*
X80810100Y-84010500D02*
X75882500Y-84010500D01*
X143586200Y-91617800D02*
X143586200Y-91617800D01*
X134355840Y-71973440D02*
X134112000Y-72217280D01*
X136248140Y-71973440D02*
X134355840Y-71973440D01*
X142567660Y-90599260D02*
X143586200Y-91617800D01*
X142567660Y-88445340D02*
X142567660Y-90599260D01*
X146653000Y-121723400D02*
X147961600Y-121723400D01*
X148463000Y-122224800D02*
X148463000Y-123317000D01*
X147961600Y-121723400D02*
X148463000Y-122224800D01*
X145745200Y-125653800D02*
X147040600Y-124358400D01*
X145669000Y-125653800D02*
X145745200Y-125653800D01*
D19*
X54965600Y-63576200D02*
X55143400Y-63576200D01*
D16*
X56210200Y-64820800D02*
X54965600Y-63576200D01*
X56388000Y-64820800D02*
X56210200Y-64820800D01*
X145425160Y-72186800D02*
X145425160Y-72186800D01*
X148082000Y-84455000D02*
X125095000Y-84455000D01*
X149796500Y-74485500D02*
X149796500Y-82740500D01*
X147497800Y-72186800D02*
X149796500Y-74485500D01*
X145425160Y-72186800D02*
X147497800Y-72186800D01*
X149796500Y-82740500D02*
X148082000Y-84455000D01*
X125095000Y-84455000D02*
X125018800Y-84455000D01*
X125018800Y-84455000D02*
X121691400Y-87782400D01*
X121691400Y-87782400D02*
X116306600Y-87782400D01*
X116306600Y-87782400D02*
X115722400Y-87198200D01*
X115722400Y-87198200D02*
X115722400Y-86258400D01*
X115722400Y-86258400D02*
X115722400Y-86258400D01*
X110680500Y-87185500D02*
X111442500Y-86423500D01*
X107442000Y-87185500D02*
X110680500Y-87185500D01*
X143827500Y-86233000D02*
X143827600Y-86232900D01*
X141033500Y-86233000D02*
X143827500Y-86233000D01*
X131114800Y-88315800D02*
X131114800Y-88315800D01*
X131114800Y-88315800D02*
X128803400Y-88315800D01*
X128803400Y-88315800D02*
X126888240Y-86400640D01*
X126888240Y-86400640D02*
X126888240Y-86400640D01*
X67538600Y-70332600D02*
X67538600Y-69037200D01*
X64439800Y-72288400D02*
X65582800Y-72288400D01*
X65582800Y-72288400D02*
X67538600Y-70332600D01*
X124256800Y-73736200D02*
X124135310Y-73614710D01*
X124256800Y-76276200D02*
X124256800Y-73736200D01*
X132791200Y-57297320D02*
X132791200Y-54091840D01*
X132791200Y-54091840D02*
X132791200Y-54091840D01*
X64439800Y-78435200D02*
X69316600Y-78435200D01*
X72974200Y-74777600D02*
X76936600Y-74777600D01*
X69316600Y-78435200D02*
X72974200Y-74777600D01*
X130475360Y-72299200D02*
X130475360Y-72299200D01*
X125994800Y-72299200D02*
X124028200Y-70332600D01*
X130475360Y-72299200D02*
X125994800Y-72299200D01*
D20*
X126492000Y-133491458D02*
X136499600Y-143499058D01*
X126492000Y-115062000D02*
X126492000Y-133491458D01*
X136499600Y-143499058D02*
X136499600Y-143499058D01*
D21*
G36*
X123076484Y-69254920D02*
G01*
X122913563Y-69417841D01*
X122756520Y-69652873D01*
X122648347Y-69914026D01*
X122593200Y-70191265D01*
X122593200Y-70473935D01*
X122648347Y-70751174D01*
X122709968Y-70899940D01*
X121542846Y-70934636D01*
X121518153Y-70937812D01*
X121494554Y-70945743D01*
X121472956Y-70958127D01*
X121454189Y-70974486D01*
X121438995Y-70994157D01*
X120621115Y-72299717D01*
X120610029Y-72322009D01*
X120603506Y-72346036D01*
X120602272Y-72359657D01*
X120602272Y-70453260D01*
X120590012Y-70328778D01*
X120553702Y-70209080D01*
X120494737Y-70098766D01*
X120415385Y-70002075D01*
X120318694Y-69922723D01*
X120208380Y-69863758D01*
X120088682Y-69827448D01*
X119964200Y-69815188D01*
X118134200Y-69815188D01*
X118009718Y-69827448D01*
X117890020Y-69863758D01*
X117779706Y-69922723D01*
X117683015Y-70002075D01*
X117603663Y-70098766D01*
X117544698Y-70209080D01*
X117508388Y-70328778D01*
X117496128Y-70453260D01*
X117496128Y-73310740D01*
X117508388Y-73435222D01*
X117544698Y-73554920D01*
X117603663Y-73665234D01*
X117683015Y-73761925D01*
X117686882Y-73765098D01*
X117561722Y-73789994D01*
X117373364Y-73868015D01*
X117203846Y-73981283D01*
X117059683Y-74125446D01*
X117014423Y-74193183D01*
X116960677Y-74112746D01*
X116816514Y-73968583D01*
X116646996Y-73855315D01*
X116458638Y-73777294D01*
X116258679Y-73737520D01*
X116054801Y-73737520D01*
X115854842Y-73777294D01*
X115666484Y-73855315D01*
X115605560Y-73896023D01*
X115605560Y-72711545D01*
X115664245Y-72623716D01*
X115742266Y-72435358D01*
X115782040Y-72235399D01*
X115782040Y-72031521D01*
X115742266Y-71831562D01*
X115664245Y-71643204D01*
X115605560Y-71555375D01*
X115605560Y-69253130D01*
X123076484Y-69254920D01*
G37*
X123076484Y-69254920D02*
X122913563Y-69417841D01*
X122756520Y-69652873D01*
X122648347Y-69914026D01*
X122593200Y-70191265D01*
X122593200Y-70473935D01*
X122648347Y-70751174D01*
X122709968Y-70899940D01*
X121542846Y-70934636D01*
X121518153Y-70937812D01*
X121494554Y-70945743D01*
X121472956Y-70958127D01*
X121454189Y-70974486D01*
X121438995Y-70994157D01*
X120621115Y-72299717D01*
X120610029Y-72322009D01*
X120603506Y-72346036D01*
X120602272Y-72359657D01*
X120602272Y-70453260D01*
X120590012Y-70328778D01*
X120553702Y-70209080D01*
X120494737Y-70098766D01*
X120415385Y-70002075D01*
X120318694Y-69922723D01*
X120208380Y-69863758D01*
X120088682Y-69827448D01*
X119964200Y-69815188D01*
X118134200Y-69815188D01*
X118009718Y-69827448D01*
X117890020Y-69863758D01*
X117779706Y-69922723D01*
X117683015Y-70002075D01*
X117603663Y-70098766D01*
X117544698Y-70209080D01*
X117508388Y-70328778D01*
X117496128Y-70453260D01*
X117496128Y-73310740D01*
X117508388Y-73435222D01*
X117544698Y-73554920D01*
X117603663Y-73665234D01*
X117683015Y-73761925D01*
X117686882Y-73765098D01*
X117561722Y-73789994D01*
X117373364Y-73868015D01*
X117203846Y-73981283D01*
X117059683Y-74125446D01*
X117014423Y-74193183D01*
X116960677Y-74112746D01*
X116816514Y-73968583D01*
X116646996Y-73855315D01*
X116458638Y-73777294D01*
X116258679Y-73737520D01*
X116054801Y-73737520D01*
X115854842Y-73777294D01*
X115666484Y-73855315D01*
X115605560Y-73896023D01*
X115605560Y-72711545D01*
X115664245Y-72623716D01*
X115742266Y-72435358D01*
X115782040Y-72235399D01*
X115782040Y-72031521D01*
X115742266Y-71831562D01*
X115664245Y-71643204D01*
X115605560Y-71555375D01*
X115605560Y-69253130D01*
X123076484Y-69254920D01*
G36*
X118984386Y-73968583D02*
G01*
X118874617Y-74078352D01*
X118662151Y-74120040D01*
X118523394Y-73981283D01*
X118474798Y-73948812D01*
X119013975Y-73948812D01*
X118984386Y-73968583D01*
G37*
X118984386Y-73968583D02*
X118874617Y-74078352D01*
X118662151Y-74120040D01*
X118523394Y-73981283D01*
X118474798Y-73948812D01*
X119013975Y-73948812D01*
X118984386Y-73968583D01*
G36*
X120582846Y-73743177D02*
G01*
X120392790Y-73780468D01*
X120415385Y-73761925D01*
X120494737Y-73665234D01*
X120553702Y-73554920D01*
X120586932Y-73445374D01*
X120582846Y-73743177D01*
G37*
X120582846Y-73743177D02*
X120392790Y-73780468D01*
X120415385Y-73761925D01*
X120494737Y-73665234D01*
X120553702Y-73554920D01*
X120586932Y-73445374D01*
X120582846Y-73743177D01*
G36*
X132617081Y-69257205D02*
G01*
X132679386Y-69308337D01*
X132789700Y-69367302D01*
X132909398Y-69403612D01*
X133033880Y-69415872D01*
X135891360Y-69415872D01*
X136015842Y-69403612D01*
X136135540Y-69367302D01*
X136245854Y-69308337D01*
X136307082Y-69258089D01*
X136413289Y-69258114D01*
X136421314Y-69298458D01*
X136499335Y-69486816D01*
X136555275Y-69570537D01*
X136547075Y-70253496D01*
X136499335Y-70324944D01*
X136430109Y-70492069D01*
X125674833Y-70811801D01*
X125442256Y-70579224D01*
X125463200Y-70473935D01*
X125463200Y-70191265D01*
X125408053Y-69914026D01*
X125299880Y-69652873D01*
X125142837Y-69417841D01*
X124980372Y-69255376D01*
X132617081Y-69257205D01*
G37*
X132617081Y-69257205D02*
X132679386Y-69308337D01*
X132789700Y-69367302D01*
X132909398Y-69403612D01*
X133033880Y-69415872D01*
X135891360Y-69415872D01*
X136015842Y-69403612D01*
X136135540Y-69367302D01*
X136245854Y-69308337D01*
X136307082Y-69258089D01*
X136413289Y-69258114D01*
X136421314Y-69298458D01*
X136499335Y-69486816D01*
X136555275Y-69570537D01*
X136547075Y-70253496D01*
X136499335Y-70324944D01*
X136430109Y-70492069D01*
X125674833Y-70811801D01*
X125442256Y-70579224D01*
X125463200Y-70473935D01*
X125463200Y-70191265D01*
X125408053Y-69914026D01*
X125299880Y-69652873D01*
X125142837Y-69417841D01*
X124980372Y-69255376D01*
X132617081Y-69257205D01*
D22*
G36*
X142720060Y-75171664D02*
G01*
X142668323Y-75234706D01*
X142609358Y-75345020D01*
X142573048Y-75464718D01*
X142560788Y-75589200D01*
X142560788Y-77419200D01*
X142573048Y-77543682D01*
X142609358Y-77663380D01*
X142668323Y-77773694D01*
X142720060Y-77836736D01*
X142720060Y-78752762D01*
X141374652Y-78753424D01*
X141330834Y-78717463D01*
X141220520Y-78658498D01*
X141100822Y-78622188D01*
X140976340Y-78609928D01*
X138118860Y-78609928D01*
X137994378Y-78622188D01*
X137874680Y-78658498D01*
X137764366Y-78717463D01*
X137718357Y-78755221D01*
X136297694Y-78755920D01*
X136250834Y-78717463D01*
X136140520Y-78658498D01*
X136020822Y-78622188D01*
X135896340Y-78609928D01*
X133038860Y-78609928D01*
X132914378Y-78622188D01*
X132794680Y-78658498D01*
X132684366Y-78717463D01*
X132635312Y-78757720D01*
X132514278Y-78757780D01*
X132489502Y-78760232D01*
X132465682Y-78767471D01*
X132443731Y-78779218D01*
X132424493Y-78795022D01*
X132408709Y-78814275D01*
X132396983Y-78836237D01*
X132389768Y-78860065D01*
X132387340Y-78884551D01*
X132385028Y-80167439D01*
X123454344Y-80164534D01*
X123408941Y-80140266D01*
X123277987Y-80100541D01*
X123141800Y-80087128D01*
X121561800Y-80087128D01*
X121425613Y-80100541D01*
X121294659Y-80140266D01*
X121250597Y-80163817D01*
X120230233Y-80163486D01*
X120187385Y-80111275D01*
X120090694Y-80031923D01*
X119980380Y-79972958D01*
X119860682Y-79936648D01*
X119736200Y-79924388D01*
X117906200Y-79924388D01*
X117781718Y-79936648D01*
X117662020Y-79972958D01*
X117551706Y-80031923D01*
X117455015Y-80111275D01*
X117412919Y-80162569D01*
X111821188Y-80160750D01*
X111780585Y-80111275D01*
X111683894Y-80031923D01*
X111573580Y-79972958D01*
X111453882Y-79936648D01*
X111329400Y-79924388D01*
X109499400Y-79924388D01*
X109374918Y-79936648D01*
X109255220Y-79972958D01*
X109209840Y-79997215D01*
X109209840Y-78938312D01*
X113947540Y-78938312D01*
X114072022Y-78926052D01*
X114191720Y-78889742D01*
X114279105Y-78843033D01*
X115180544Y-78842841D01*
X115271880Y-78891662D01*
X115391578Y-78927972D01*
X115516060Y-78940232D01*
X120296060Y-78940232D01*
X120420542Y-78927972D01*
X120540240Y-78891662D01*
X120633749Y-78841680D01*
X121008167Y-78841600D01*
X121032943Y-78839154D01*
X121056766Y-78831922D01*
X121078720Y-78820182D01*
X121097962Y-78804383D01*
X121113752Y-78785135D01*
X121125483Y-78763176D01*
X121132705Y-78739350D01*
X121135140Y-78714600D01*
X121135140Y-78138052D01*
X137656170Y-78142190D01*
X137705455Y-78202245D01*
X137802146Y-78281597D01*
X137912460Y-78340562D01*
X138032158Y-78376872D01*
X138156640Y-78389132D01*
X140936640Y-78389132D01*
X141061122Y-78376872D01*
X141180820Y-78340562D01*
X141291134Y-78281597D01*
X141387825Y-78202245D01*
X141467177Y-78105554D01*
X141526142Y-77995240D01*
X141562452Y-77875542D01*
X141574712Y-77751060D01*
X141574712Y-73073260D01*
X142720060Y-73073260D01*
X142720060Y-75171664D01*
G37*
X142720060Y-75171664D02*
X142668323Y-75234706D01*
X142609358Y-75345020D01*
X142573048Y-75464718D01*
X142560788Y-75589200D01*
X142560788Y-77419200D01*
X142573048Y-77543682D01*
X142609358Y-77663380D01*
X142668323Y-77773694D01*
X142720060Y-77836736D01*
X142720060Y-78752762D01*
X141374652Y-78753424D01*
X141330834Y-78717463D01*
X141220520Y-78658498D01*
X141100822Y-78622188D01*
X140976340Y-78609928D01*
X138118860Y-78609928D01*
X137994378Y-78622188D01*
X137874680Y-78658498D01*
X137764366Y-78717463D01*
X137718357Y-78755221D01*
X136297694Y-78755920D01*
X136250834Y-78717463D01*
X136140520Y-78658498D01*
X136020822Y-78622188D01*
X135896340Y-78609928D01*
X133038860Y-78609928D01*
X132914378Y-78622188D01*
X132794680Y-78658498D01*
X132684366Y-78717463D01*
X132635312Y-78757720D01*
X132514278Y-78757780D01*
X132489502Y-78760232D01*
X132465682Y-78767471D01*
X132443731Y-78779218D01*
X132424493Y-78795022D01*
X132408709Y-78814275D01*
X132396983Y-78836237D01*
X132389768Y-78860065D01*
X132387340Y-78884551D01*
X132385028Y-80167439D01*
X123454344Y-80164534D01*
X123408941Y-80140266D01*
X123277987Y-80100541D01*
X123141800Y-80087128D01*
X121561800Y-80087128D01*
X121425613Y-80100541D01*
X121294659Y-80140266D01*
X121250597Y-80163817D01*
X120230233Y-80163486D01*
X120187385Y-80111275D01*
X120090694Y-80031923D01*
X119980380Y-79972958D01*
X119860682Y-79936648D01*
X119736200Y-79924388D01*
X117906200Y-79924388D01*
X117781718Y-79936648D01*
X117662020Y-79972958D01*
X117551706Y-80031923D01*
X117455015Y-80111275D01*
X117412919Y-80162569D01*
X111821188Y-80160750D01*
X111780585Y-80111275D01*
X111683894Y-80031923D01*
X111573580Y-79972958D01*
X111453882Y-79936648D01*
X111329400Y-79924388D01*
X109499400Y-79924388D01*
X109374918Y-79936648D01*
X109255220Y-79972958D01*
X109209840Y-79997215D01*
X109209840Y-78938312D01*
X113947540Y-78938312D01*
X114072022Y-78926052D01*
X114191720Y-78889742D01*
X114279105Y-78843033D01*
X115180544Y-78842841D01*
X115271880Y-78891662D01*
X115391578Y-78927972D01*
X115516060Y-78940232D01*
X120296060Y-78940232D01*
X120420542Y-78927972D01*
X120540240Y-78891662D01*
X120633749Y-78841680D01*
X121008167Y-78841600D01*
X121032943Y-78839154D01*
X121056766Y-78831922D01*
X121078720Y-78820182D01*
X121097962Y-78804383D01*
X121113752Y-78785135D01*
X121125483Y-78763176D01*
X121132705Y-78739350D01*
X121135140Y-78714600D01*
X121135140Y-78138052D01*
X137656170Y-78142190D01*
X137705455Y-78202245D01*
X137802146Y-78281597D01*
X137912460Y-78340562D01*
X138032158Y-78376872D01*
X138156640Y-78389132D01*
X140936640Y-78389132D01*
X141061122Y-78376872D01*
X141180820Y-78340562D01*
X141291134Y-78281597D01*
X141387825Y-78202245D01*
X141467177Y-78105554D01*
X141526142Y-77995240D01*
X141562452Y-77875542D01*
X141574712Y-77751060D01*
X141574712Y-73073260D01*
X142720060Y-73073260D01*
X142720060Y-75171664D01*
G36*
X137914380Y-71992042D02*
G01*
X138034078Y-72028352D01*
X138158560Y-72040612D01*
X140938560Y-72040612D01*
X141063042Y-72028352D01*
X141182740Y-71992042D01*
X141269813Y-71945500D01*
X142748000Y-71945500D01*
X142748000Y-73136915D01*
X141504798Y-78296202D01*
X141260593Y-78297922D01*
X141291134Y-78281597D01*
X141387825Y-78202245D01*
X141467177Y-78105554D01*
X141526142Y-77995240D01*
X141562452Y-77875542D01*
X141574712Y-77751060D01*
X141574712Y-72971060D01*
X141562452Y-72846578D01*
X141526142Y-72726880D01*
X141467177Y-72616566D01*
X141387825Y-72519875D01*
X141291134Y-72440523D01*
X141180820Y-72381558D01*
X141061122Y-72345248D01*
X140936640Y-72332988D01*
X138156640Y-72332988D01*
X138032158Y-72345248D01*
X137912460Y-72381558D01*
X137802146Y-72440523D01*
X137705455Y-72519875D01*
X137626103Y-72616566D01*
X137567138Y-72726880D01*
X137530828Y-72846578D01*
X137518568Y-72971060D01*
X137518568Y-77751060D01*
X137530828Y-77875542D01*
X137567138Y-77995240D01*
X137626103Y-78105554D01*
X137705455Y-78202245D01*
X137802146Y-78281597D01*
X137877262Y-78321748D01*
X123879784Y-78420322D01*
X125121303Y-77178803D01*
X125137097Y-77159557D01*
X125148833Y-77137601D01*
X125156060Y-77113776D01*
X125158500Y-77089000D01*
X125158500Y-76789661D01*
X125174005Y-76766456D01*
X125252026Y-76578098D01*
X125291800Y-76378139D01*
X125291800Y-76174261D01*
X125252026Y-75974302D01*
X125174005Y-75785944D01*
X125158500Y-75762739D01*
X125158500Y-75589200D01*
X132395708Y-75589200D01*
X132395708Y-77419200D01*
X132407968Y-77543682D01*
X132444278Y-77663380D01*
X132503243Y-77773694D01*
X132582595Y-77870385D01*
X132679286Y-77949737D01*
X132789600Y-78008702D01*
X132909298Y-78045012D01*
X133033780Y-78057272D01*
X135891260Y-78057272D01*
X136015742Y-78045012D01*
X136135440Y-78008702D01*
X136245754Y-77949737D01*
X136342445Y-77870385D01*
X136421797Y-77773694D01*
X136480762Y-77663380D01*
X136517072Y-77543682D01*
X136529332Y-77419200D01*
X136529332Y-75589200D01*
X136517072Y-75464718D01*
X136480762Y-75345020D01*
X136421797Y-75234706D01*
X136342445Y-75138015D01*
X136245754Y-75058663D01*
X136135440Y-74999698D01*
X136015742Y-74963388D01*
X135891260Y-74951128D01*
X133033780Y-74951128D01*
X132909298Y-74963388D01*
X132789600Y-74999698D01*
X132679286Y-75058663D01*
X132582595Y-75138015D01*
X132503243Y-75234706D01*
X132444278Y-75345020D01*
X132407968Y-75464718D01*
X132395708Y-75589200D01*
X125158500Y-75589200D01*
X125158500Y-73776022D01*
X125170310Y-73716649D01*
X125170310Y-73512771D01*
X125158500Y-73453398D01*
X125158500Y-73088500D01*
X125753012Y-73088500D01*
X125832974Y-73112756D01*
X125954247Y-73124700D01*
X125954256Y-73124700D01*
X125994799Y-73128693D01*
X126035342Y-73124700D01*
X129847857Y-73124700D01*
X129985104Y-73216405D01*
X130173462Y-73294426D01*
X130373421Y-73334200D01*
X130577299Y-73334200D01*
X130777258Y-73294426D01*
X130965616Y-73216405D01*
X131135134Y-73103137D01*
X131149771Y-73088500D01*
X133552922Y-73088500D01*
X133621744Y-73134485D01*
X133810102Y-73212506D01*
X134010061Y-73252280D01*
X134213939Y-73252280D01*
X134413898Y-73212506D01*
X134602256Y-73134485D01*
X134671078Y-73088500D01*
X135382000Y-73088500D01*
X135406776Y-73086060D01*
X135430601Y-73078833D01*
X135450676Y-73068330D01*
X135742777Y-72880551D01*
X135757884Y-72890645D01*
X135946242Y-72968666D01*
X136146201Y-73008440D01*
X136350079Y-73008440D01*
X136550038Y-72968666D01*
X136738396Y-72890645D01*
X136907914Y-72777377D01*
X137052077Y-72633214D01*
X137165345Y-72463696D01*
X137243366Y-72275338D01*
X137283140Y-72075379D01*
X137283140Y-71945500D01*
X137827307Y-71945500D01*
X137914380Y-71992042D01*
G37*
X137914380Y-71992042D02*
X138034078Y-72028352D01*
X138158560Y-72040612D01*
X140938560Y-72040612D01*
X141063042Y-72028352D01*
X141182740Y-71992042D01*
X141269813Y-71945500D01*
X142748000Y-71945500D01*
X142748000Y-73136915D01*
X141504798Y-78296202D01*
X141260593Y-78297922D01*
X141291134Y-78281597D01*
X141387825Y-78202245D01*
X141467177Y-78105554D01*
X141526142Y-77995240D01*
X141562452Y-77875542D01*
X141574712Y-77751060D01*
X141574712Y-72971060D01*
X141562452Y-72846578D01*
X141526142Y-72726880D01*
X141467177Y-72616566D01*
X141387825Y-72519875D01*
X141291134Y-72440523D01*
X141180820Y-72381558D01*
X141061122Y-72345248D01*
X140936640Y-72332988D01*
X138156640Y-72332988D01*
X138032158Y-72345248D01*
X137912460Y-72381558D01*
X137802146Y-72440523D01*
X137705455Y-72519875D01*
X137626103Y-72616566D01*
X137567138Y-72726880D01*
X137530828Y-72846578D01*
X137518568Y-72971060D01*
X137518568Y-77751060D01*
X137530828Y-77875542D01*
X137567138Y-77995240D01*
X137626103Y-78105554D01*
X137705455Y-78202245D01*
X137802146Y-78281597D01*
X137877262Y-78321748D01*
X123879784Y-78420322D01*
X125121303Y-77178803D01*
X125137097Y-77159557D01*
X125148833Y-77137601D01*
X125156060Y-77113776D01*
X125158500Y-77089000D01*
X125158500Y-76789661D01*
X125174005Y-76766456D01*
X125252026Y-76578098D01*
X125291800Y-76378139D01*
X125291800Y-76174261D01*
X125252026Y-75974302D01*
X125174005Y-75785944D01*
X125158500Y-75762739D01*
X125158500Y-75589200D01*
X132395708Y-75589200D01*
X132395708Y-77419200D01*
X132407968Y-77543682D01*
X132444278Y-77663380D01*
X132503243Y-77773694D01*
X132582595Y-77870385D01*
X132679286Y-77949737D01*
X132789600Y-78008702D01*
X132909298Y-78045012D01*
X133033780Y-78057272D01*
X135891260Y-78057272D01*
X136015742Y-78045012D01*
X136135440Y-78008702D01*
X136245754Y-77949737D01*
X136342445Y-77870385D01*
X136421797Y-77773694D01*
X136480762Y-77663380D01*
X136517072Y-77543682D01*
X136529332Y-77419200D01*
X136529332Y-75589200D01*
X136517072Y-75464718D01*
X136480762Y-75345020D01*
X136421797Y-75234706D01*
X136342445Y-75138015D01*
X136245754Y-75058663D01*
X136135440Y-74999698D01*
X136015742Y-74963388D01*
X135891260Y-74951128D01*
X133033780Y-74951128D01*
X132909298Y-74963388D01*
X132789600Y-74999698D01*
X132679286Y-75058663D01*
X132582595Y-75138015D01*
X132503243Y-75234706D01*
X132444278Y-75345020D01*
X132407968Y-75464718D01*
X132395708Y-75589200D01*
X125158500Y-75589200D01*
X125158500Y-73776022D01*
X125170310Y-73716649D01*
X125170310Y-73512771D01*
X125158500Y-73453398D01*
X125158500Y-73088500D01*
X125753012Y-73088500D01*
X125832974Y-73112756D01*
X125954247Y-73124700D01*
X125954256Y-73124700D01*
X125994799Y-73128693D01*
X126035342Y-73124700D01*
X129847857Y-73124700D01*
X129985104Y-73216405D01*
X130173462Y-73294426D01*
X130373421Y-73334200D01*
X130577299Y-73334200D01*
X130777258Y-73294426D01*
X130965616Y-73216405D01*
X131135134Y-73103137D01*
X131149771Y-73088500D01*
X133552922Y-73088500D01*
X133621744Y-73134485D01*
X133810102Y-73212506D01*
X134010061Y-73252280D01*
X134213939Y-73252280D01*
X134413898Y-73212506D01*
X134602256Y-73134485D01*
X134671078Y-73088500D01*
X135382000Y-73088500D01*
X135406776Y-73086060D01*
X135430601Y-73078833D01*
X135450676Y-73068330D01*
X135742777Y-72880551D01*
X135757884Y-72890645D01*
X135946242Y-72968666D01*
X136146201Y-73008440D01*
X136350079Y-73008440D01*
X136550038Y-72968666D01*
X136738396Y-72890645D01*
X136907914Y-72777377D01*
X137052077Y-72633214D01*
X137165345Y-72463696D01*
X137243366Y-72275338D01*
X137283140Y-72075379D01*
X137283140Y-71945500D01*
X137827307Y-71945500D01*
X137914380Y-71992042D01*
G36*
X142668323Y-78892906D02*
G01*
X142609358Y-79003220D01*
X142573048Y-79122918D01*
X142560788Y-79247400D01*
X142560788Y-81077400D01*
X142573048Y-81201882D01*
X142609358Y-81321580D01*
X142668323Y-81431894D01*
X142747675Y-81528585D01*
X142748000Y-81528852D01*
X142748000Y-83439000D01*
X124714000Y-83439000D01*
X124689224Y-83441440D01*
X124665399Y-83448667D01*
X124643443Y-83460403D01*
X124624197Y-83476197D01*
X124613064Y-83488922D01*
X123952755Y-84353612D01*
X122073368Y-86233000D01*
X117157400Y-86233000D01*
X117157400Y-86117065D01*
X117102253Y-85839826D01*
X116994080Y-85578673D01*
X116837037Y-85343641D01*
X116637159Y-85143763D01*
X116402127Y-84986720D01*
X116140974Y-84878547D01*
X115863735Y-84823400D01*
X115581065Y-84823400D01*
X115303826Y-84878547D01*
X115042673Y-84986720D01*
X114807641Y-85143763D01*
X114607763Y-85343641D01*
X114450720Y-85578673D01*
X114342547Y-85839826D01*
X114287400Y-86117065D01*
X114287400Y-86233000D01*
X113379403Y-86233000D01*
X111967472Y-81364271D01*
X111967472Y-80562460D01*
X117268128Y-80562460D01*
X117268128Y-83419940D01*
X117280388Y-83544422D01*
X117316698Y-83664120D01*
X117375663Y-83774434D01*
X117455015Y-83871125D01*
X117551706Y-83950477D01*
X117662020Y-84009442D01*
X117781718Y-84045752D01*
X117906200Y-84058012D01*
X119736200Y-84058012D01*
X119860682Y-84045752D01*
X119980380Y-84009442D01*
X120090694Y-83950477D01*
X120187385Y-83871125D01*
X120252569Y-83791697D01*
X120381122Y-83844946D01*
X120581081Y-83884720D01*
X120784959Y-83884720D01*
X120984918Y-83844946D01*
X121173276Y-83766925D01*
X121342794Y-83653657D01*
X121486957Y-83509494D01*
X121600225Y-83339976D01*
X121678246Y-83151618D01*
X121718020Y-82951659D01*
X121718020Y-82747781D01*
X121678246Y-82547822D01*
X121600225Y-82359464D01*
X121486957Y-82189946D01*
X121342794Y-82045783D01*
X121173276Y-81932515D01*
X120984918Y-81854494D01*
X120784959Y-81814720D01*
X120581081Y-81814720D01*
X120381122Y-81854494D01*
X120374272Y-81857331D01*
X120374272Y-80785200D01*
X120863728Y-80785200D01*
X120863728Y-81165200D01*
X120877141Y-81301387D01*
X120916866Y-81432341D01*
X120981374Y-81553028D01*
X121068189Y-81658811D01*
X121173972Y-81745626D01*
X121294659Y-81810134D01*
X121425613Y-81849859D01*
X121561800Y-81863272D01*
X123141800Y-81863272D01*
X123277987Y-81849859D01*
X123408941Y-81810134D01*
X123529628Y-81745626D01*
X123635411Y-81658811D01*
X123722226Y-81553028D01*
X123786734Y-81432341D01*
X123826459Y-81301387D01*
X123839872Y-81165200D01*
X123839872Y-80785200D01*
X123826459Y-80649013D01*
X123786734Y-80518059D01*
X123722226Y-80397372D01*
X123635411Y-80291589D01*
X123529628Y-80204774D01*
X123408941Y-80140266D01*
X123277987Y-80100541D01*
X123141800Y-80087128D01*
X121561800Y-80087128D01*
X121425613Y-80100541D01*
X121294659Y-80140266D01*
X121173972Y-80204774D01*
X121068189Y-80291589D01*
X120981374Y-80397372D01*
X120916866Y-80518059D01*
X120877141Y-80649013D01*
X120863728Y-80785200D01*
X120374272Y-80785200D01*
X120374272Y-80562460D01*
X120362012Y-80437978D01*
X120325702Y-80318280D01*
X120266737Y-80207966D01*
X120187385Y-80111275D01*
X120090694Y-80031923D01*
X119980380Y-79972958D01*
X119860682Y-79936648D01*
X119736200Y-79924388D01*
X117906200Y-79924388D01*
X117781718Y-79936648D01*
X117662020Y-79972958D01*
X117551706Y-80031923D01*
X117455015Y-80111275D01*
X117375663Y-80207966D01*
X117316698Y-80318280D01*
X117280388Y-80437978D01*
X117268128Y-80562460D01*
X111967472Y-80562460D01*
X111955212Y-80437978D01*
X111918902Y-80318280D01*
X111859937Y-80207966D01*
X111790250Y-80123052D01*
X132400788Y-79290303D01*
X132400788Y-81078000D01*
X132413048Y-81202482D01*
X132449358Y-81322180D01*
X132508323Y-81432494D01*
X132587675Y-81529185D01*
X132684366Y-81608537D01*
X132794680Y-81667502D01*
X132914378Y-81703812D01*
X133038860Y-81716072D01*
X135896340Y-81716072D01*
X136020822Y-81703812D01*
X136140520Y-81667502D01*
X136250834Y-81608537D01*
X136347525Y-81529185D01*
X136426877Y-81432494D01*
X136485842Y-81322180D01*
X136522152Y-81202482D01*
X136534412Y-81078000D01*
X136534412Y-79248000D01*
X136522178Y-79123782D01*
X137505014Y-79084072D01*
X137493048Y-79123518D01*
X137480788Y-79248000D01*
X137480788Y-81078000D01*
X137493048Y-81202482D01*
X137529358Y-81322180D01*
X137588323Y-81432494D01*
X137667675Y-81529185D01*
X137764366Y-81608537D01*
X137874680Y-81667502D01*
X137994378Y-81703812D01*
X138118860Y-81716072D01*
X140976340Y-81716072D01*
X141100822Y-81703812D01*
X141220520Y-81667502D01*
X141330834Y-81608537D01*
X141427525Y-81529185D01*
X141506877Y-81432494D01*
X141565842Y-81322180D01*
X141602152Y-81202482D01*
X141614412Y-81078000D01*
X141614412Y-79248000D01*
X141602152Y-79123518D01*
X141565842Y-79003820D01*
X141521985Y-78921770D01*
X142683137Y-78874855D01*
X142668323Y-78892906D01*
G37*
X142668323Y-78892906D02*
X142609358Y-79003220D01*
X142573048Y-79122918D01*
X142560788Y-79247400D01*
X142560788Y-81077400D01*
X142573048Y-81201882D01*
X142609358Y-81321580D01*
X142668323Y-81431894D01*
X142747675Y-81528585D01*
X142748000Y-81528852D01*
X142748000Y-83439000D01*
X124714000Y-83439000D01*
X124689224Y-83441440D01*
X124665399Y-83448667D01*
X124643443Y-83460403D01*
X124624197Y-83476197D01*
X124613064Y-83488922D01*
X123952755Y-84353612D01*
X122073368Y-86233000D01*
X117157400Y-86233000D01*
X117157400Y-86117065D01*
X117102253Y-85839826D01*
X116994080Y-85578673D01*
X116837037Y-85343641D01*
X116637159Y-85143763D01*
X116402127Y-84986720D01*
X116140974Y-84878547D01*
X115863735Y-84823400D01*
X115581065Y-84823400D01*
X115303826Y-84878547D01*
X115042673Y-84986720D01*
X114807641Y-85143763D01*
X114607763Y-85343641D01*
X114450720Y-85578673D01*
X114342547Y-85839826D01*
X114287400Y-86117065D01*
X114287400Y-86233000D01*
X113379403Y-86233000D01*
X111967472Y-81364271D01*
X111967472Y-80562460D01*
X117268128Y-80562460D01*
X117268128Y-83419940D01*
X117280388Y-83544422D01*
X117316698Y-83664120D01*
X117375663Y-83774434D01*
X117455015Y-83871125D01*
X117551706Y-83950477D01*
X117662020Y-84009442D01*
X117781718Y-84045752D01*
X117906200Y-84058012D01*
X119736200Y-84058012D01*
X119860682Y-84045752D01*
X119980380Y-84009442D01*
X120090694Y-83950477D01*
X120187385Y-83871125D01*
X120252569Y-83791697D01*
X120381122Y-83844946D01*
X120581081Y-83884720D01*
X120784959Y-83884720D01*
X120984918Y-83844946D01*
X121173276Y-83766925D01*
X121342794Y-83653657D01*
X121486957Y-83509494D01*
X121600225Y-83339976D01*
X121678246Y-83151618D01*
X121718020Y-82951659D01*
X121718020Y-82747781D01*
X121678246Y-82547822D01*
X121600225Y-82359464D01*
X121486957Y-82189946D01*
X121342794Y-82045783D01*
X121173276Y-81932515D01*
X120984918Y-81854494D01*
X120784959Y-81814720D01*
X120581081Y-81814720D01*
X120381122Y-81854494D01*
X120374272Y-81857331D01*
X120374272Y-80785200D01*
X120863728Y-80785200D01*
X120863728Y-81165200D01*
X120877141Y-81301387D01*
X120916866Y-81432341D01*
X120981374Y-81553028D01*
X121068189Y-81658811D01*
X121173972Y-81745626D01*
X121294659Y-81810134D01*
X121425613Y-81849859D01*
X121561800Y-81863272D01*
X123141800Y-81863272D01*
X123277987Y-81849859D01*
X123408941Y-81810134D01*
X123529628Y-81745626D01*
X123635411Y-81658811D01*
X123722226Y-81553028D01*
X123786734Y-81432341D01*
X123826459Y-81301387D01*
X123839872Y-81165200D01*
X123839872Y-80785200D01*
X123826459Y-80649013D01*
X123786734Y-80518059D01*
X123722226Y-80397372D01*
X123635411Y-80291589D01*
X123529628Y-80204774D01*
X123408941Y-80140266D01*
X123277987Y-80100541D01*
X123141800Y-80087128D01*
X121561800Y-80087128D01*
X121425613Y-80100541D01*
X121294659Y-80140266D01*
X121173972Y-80204774D01*
X121068189Y-80291589D01*
X120981374Y-80397372D01*
X120916866Y-80518059D01*
X120877141Y-80649013D01*
X120863728Y-80785200D01*
X120374272Y-80785200D01*
X120374272Y-80562460D01*
X120362012Y-80437978D01*
X120325702Y-80318280D01*
X120266737Y-80207966D01*
X120187385Y-80111275D01*
X120090694Y-80031923D01*
X119980380Y-79972958D01*
X119860682Y-79936648D01*
X119736200Y-79924388D01*
X117906200Y-79924388D01*
X117781718Y-79936648D01*
X117662020Y-79972958D01*
X117551706Y-80031923D01*
X117455015Y-80111275D01*
X117375663Y-80207966D01*
X117316698Y-80318280D01*
X117280388Y-80437978D01*
X117268128Y-80562460D01*
X111967472Y-80562460D01*
X111955212Y-80437978D01*
X111918902Y-80318280D01*
X111859937Y-80207966D01*
X111790250Y-80123052D01*
X132400788Y-79290303D01*
X132400788Y-81078000D01*
X132413048Y-81202482D01*
X132449358Y-81322180D01*
X132508323Y-81432494D01*
X132587675Y-81529185D01*
X132684366Y-81608537D01*
X132794680Y-81667502D01*
X132914378Y-81703812D01*
X133038860Y-81716072D01*
X135896340Y-81716072D01*
X136020822Y-81703812D01*
X136140520Y-81667502D01*
X136250834Y-81608537D01*
X136347525Y-81529185D01*
X136426877Y-81432494D01*
X136485842Y-81322180D01*
X136522152Y-81202482D01*
X136534412Y-81078000D01*
X136534412Y-79248000D01*
X136522178Y-79123782D01*
X137505014Y-79084072D01*
X137493048Y-79123518D01*
X137480788Y-79248000D01*
X137480788Y-81078000D01*
X137493048Y-81202482D01*
X137529358Y-81322180D01*
X137588323Y-81432494D01*
X137667675Y-81529185D01*
X137764366Y-81608537D01*
X137874680Y-81667502D01*
X137994378Y-81703812D01*
X138118860Y-81716072D01*
X140976340Y-81716072D01*
X141100822Y-81703812D01*
X141220520Y-81667502D01*
X141330834Y-81608537D01*
X141427525Y-81529185D01*
X141506877Y-81432494D01*
X141565842Y-81322180D01*
X141602152Y-81202482D01*
X141614412Y-81078000D01*
X141614412Y-79248000D01*
X141602152Y-79123518D01*
X141565842Y-79003820D01*
X141521985Y-78921770D01*
X142683137Y-78874855D01*
X142668323Y-78892906D01*
G36*
X141670658Y-78548759D02*
G01*
X141729778Y-81977689D01*
X131807918Y-81915678D01*
X131393968Y-79248000D01*
X132400788Y-79248000D01*
X132400788Y-81078000D01*
X132413048Y-81202482D01*
X132449358Y-81322180D01*
X132508323Y-81432494D01*
X132587675Y-81529185D01*
X132684366Y-81608537D01*
X132794680Y-81667502D01*
X132914378Y-81703812D01*
X133038860Y-81716072D01*
X135896340Y-81716072D01*
X136020822Y-81703812D01*
X136140520Y-81667502D01*
X136250834Y-81608537D01*
X136347525Y-81529185D01*
X136426877Y-81432494D01*
X136485842Y-81322180D01*
X136522152Y-81202482D01*
X136534412Y-81078000D01*
X136534412Y-79248000D01*
X137480788Y-79248000D01*
X137480788Y-81078000D01*
X137493048Y-81202482D01*
X137529358Y-81322180D01*
X137588323Y-81432494D01*
X137667675Y-81529185D01*
X137764366Y-81608537D01*
X137874680Y-81667502D01*
X137994378Y-81703812D01*
X138118860Y-81716072D01*
X140976340Y-81716072D01*
X141100822Y-81703812D01*
X141220520Y-81667502D01*
X141330834Y-81608537D01*
X141427525Y-81529185D01*
X141506877Y-81432494D01*
X141565842Y-81322180D01*
X141602152Y-81202482D01*
X141614412Y-81078000D01*
X141614412Y-79248000D01*
X141602152Y-79123518D01*
X141565842Y-79003820D01*
X141506877Y-78893506D01*
X141427525Y-78796815D01*
X141330834Y-78717463D01*
X141220520Y-78658498D01*
X141100822Y-78622188D01*
X140976340Y-78609928D01*
X138118860Y-78609928D01*
X137994378Y-78622188D01*
X137874680Y-78658498D01*
X137764366Y-78717463D01*
X137667675Y-78796815D01*
X137588323Y-78893506D01*
X137529358Y-79003820D01*
X137493048Y-79123518D01*
X137480788Y-79248000D01*
X136534412Y-79248000D01*
X136522152Y-79123518D01*
X136485842Y-79003820D01*
X136426877Y-78893506D01*
X136347525Y-78796815D01*
X136250834Y-78717463D01*
X136140520Y-78658498D01*
X136020822Y-78622188D01*
X135896340Y-78609928D01*
X133038860Y-78609928D01*
X132914378Y-78622188D01*
X132794680Y-78658498D01*
X132684366Y-78717463D01*
X132587675Y-78796815D01*
X132508323Y-78893506D01*
X132449358Y-79003820D01*
X132413048Y-79123518D01*
X132400788Y-79248000D01*
X131393968Y-79248000D01*
X131275864Y-78486886D01*
X141670658Y-78548759D01*
G37*
X141670658Y-78548759D02*
X141729778Y-81977689D01*
X131807918Y-81915678D01*
X131393968Y-79248000D01*
X132400788Y-79248000D01*
X132400788Y-81078000D01*
X132413048Y-81202482D01*
X132449358Y-81322180D01*
X132508323Y-81432494D01*
X132587675Y-81529185D01*
X132684366Y-81608537D01*
X132794680Y-81667502D01*
X132914378Y-81703812D01*
X133038860Y-81716072D01*
X135896340Y-81716072D01*
X136020822Y-81703812D01*
X136140520Y-81667502D01*
X136250834Y-81608537D01*
X136347525Y-81529185D01*
X136426877Y-81432494D01*
X136485842Y-81322180D01*
X136522152Y-81202482D01*
X136534412Y-81078000D01*
X136534412Y-79248000D01*
X137480788Y-79248000D01*
X137480788Y-81078000D01*
X137493048Y-81202482D01*
X137529358Y-81322180D01*
X137588323Y-81432494D01*
X137667675Y-81529185D01*
X137764366Y-81608537D01*
X137874680Y-81667502D01*
X137994378Y-81703812D01*
X138118860Y-81716072D01*
X140976340Y-81716072D01*
X141100822Y-81703812D01*
X141220520Y-81667502D01*
X141330834Y-81608537D01*
X141427525Y-81529185D01*
X141506877Y-81432494D01*
X141565842Y-81322180D01*
X141602152Y-81202482D01*
X141614412Y-81078000D01*
X141614412Y-79248000D01*
X141602152Y-79123518D01*
X141565842Y-79003820D01*
X141506877Y-78893506D01*
X141427525Y-78796815D01*
X141330834Y-78717463D01*
X141220520Y-78658498D01*
X141100822Y-78622188D01*
X140976340Y-78609928D01*
X138118860Y-78609928D01*
X137994378Y-78622188D01*
X137874680Y-78658498D01*
X137764366Y-78717463D01*
X137667675Y-78796815D01*
X137588323Y-78893506D01*
X137529358Y-79003820D01*
X137493048Y-79123518D01*
X137480788Y-79248000D01*
X136534412Y-79248000D01*
X136522152Y-79123518D01*
X136485842Y-79003820D01*
X136426877Y-78893506D01*
X136347525Y-78796815D01*
X136250834Y-78717463D01*
X136140520Y-78658498D01*
X136020822Y-78622188D01*
X135896340Y-78609928D01*
X133038860Y-78609928D01*
X132914378Y-78622188D01*
X132794680Y-78658498D01*
X132684366Y-78717463D01*
X132587675Y-78796815D01*
X132508323Y-78893506D01*
X132449358Y-79003820D01*
X132413048Y-79123518D01*
X132400788Y-79248000D01*
X131393968Y-79248000D01*
X131275864Y-78486886D01*
X141670658Y-78548759D01*
G36*
X148653500Y-75046106D02*
G01*
X148653500Y-82306894D01*
X147521394Y-83439000D01*
X141743829Y-83439000D01*
X142117602Y-79247400D01*
X142560788Y-79247400D01*
X142560788Y-81077400D01*
X142573048Y-81201882D01*
X142609358Y-81321580D01*
X142668323Y-81431894D01*
X142747675Y-81528585D01*
X142844366Y-81607937D01*
X142954680Y-81666902D01*
X143074378Y-81703212D01*
X143198860Y-81715472D01*
X146056340Y-81715472D01*
X146180822Y-81703212D01*
X146300520Y-81666902D01*
X146410834Y-81607937D01*
X146507525Y-81528585D01*
X146586877Y-81431894D01*
X146645842Y-81321580D01*
X146682152Y-81201882D01*
X146694412Y-81077400D01*
X146694412Y-79247400D01*
X146682152Y-79122918D01*
X146645842Y-79003220D01*
X146586877Y-78892906D01*
X146507525Y-78796215D01*
X146410834Y-78716863D01*
X146300520Y-78657898D01*
X146180822Y-78621588D01*
X146056340Y-78609328D01*
X143198860Y-78609328D01*
X143074378Y-78621588D01*
X142954680Y-78657898D01*
X142844366Y-78716863D01*
X142747675Y-78796215D01*
X142668323Y-78892906D01*
X142609358Y-79003220D01*
X142573048Y-79122918D01*
X142560788Y-79247400D01*
X142117602Y-79247400D01*
X142443810Y-75589200D01*
X142560788Y-75589200D01*
X142560788Y-77419200D01*
X142573048Y-77543682D01*
X142609358Y-77663380D01*
X142668323Y-77773694D01*
X142747675Y-77870385D01*
X142844366Y-77949737D01*
X142954680Y-78008702D01*
X143074378Y-78045012D01*
X143198860Y-78057272D01*
X146056340Y-78057272D01*
X146180822Y-78045012D01*
X146300520Y-78008702D01*
X146410834Y-77949737D01*
X146507525Y-77870385D01*
X146586877Y-77773694D01*
X146645842Y-77663380D01*
X146682152Y-77543682D01*
X146694412Y-77419200D01*
X146694412Y-75589200D01*
X146682152Y-75464718D01*
X146645842Y-75345020D01*
X146586877Y-75234706D01*
X146507525Y-75138015D01*
X146410834Y-75058663D01*
X146300520Y-74999698D01*
X146180822Y-74963388D01*
X146056340Y-74951128D01*
X143198860Y-74951128D01*
X143074378Y-74963388D01*
X142954680Y-74999698D01*
X142844366Y-75058663D01*
X142747675Y-75138015D01*
X142668323Y-75234706D01*
X142609358Y-75345020D01*
X142573048Y-75464718D01*
X142560788Y-75589200D01*
X142443810Y-75589200D01*
X142610179Y-73723500D01*
X147330894Y-73723500D01*
X148653500Y-75046106D01*
G37*
X148653500Y-75046106D02*
X148653500Y-82306894D01*
X147521394Y-83439000D01*
X141743829Y-83439000D01*
X142117602Y-79247400D01*
X142560788Y-79247400D01*
X142560788Y-81077400D01*
X142573048Y-81201882D01*
X142609358Y-81321580D01*
X142668323Y-81431894D01*
X142747675Y-81528585D01*
X142844366Y-81607937D01*
X142954680Y-81666902D01*
X143074378Y-81703212D01*
X143198860Y-81715472D01*
X146056340Y-81715472D01*
X146180822Y-81703212D01*
X146300520Y-81666902D01*
X146410834Y-81607937D01*
X146507525Y-81528585D01*
X146586877Y-81431894D01*
X146645842Y-81321580D01*
X146682152Y-81201882D01*
X146694412Y-81077400D01*
X146694412Y-79247400D01*
X146682152Y-79122918D01*
X146645842Y-79003220D01*
X146586877Y-78892906D01*
X146507525Y-78796215D01*
X146410834Y-78716863D01*
X146300520Y-78657898D01*
X146180822Y-78621588D01*
X146056340Y-78609328D01*
X143198860Y-78609328D01*
X143074378Y-78621588D01*
X142954680Y-78657898D01*
X142844366Y-78716863D01*
X142747675Y-78796215D01*
X142668323Y-78892906D01*
X142609358Y-79003220D01*
X142573048Y-79122918D01*
X142560788Y-79247400D01*
X142117602Y-79247400D01*
X142443810Y-75589200D01*
X142560788Y-75589200D01*
X142560788Y-77419200D01*
X142573048Y-77543682D01*
X142609358Y-77663380D01*
X142668323Y-77773694D01*
X142747675Y-77870385D01*
X142844366Y-77949737D01*
X142954680Y-78008702D01*
X143074378Y-78045012D01*
X143198860Y-78057272D01*
X146056340Y-78057272D01*
X146180822Y-78045012D01*
X146300520Y-78008702D01*
X146410834Y-77949737D01*
X146507525Y-77870385D01*
X146586877Y-77773694D01*
X146645842Y-77663380D01*
X146682152Y-77543682D01*
X146694412Y-77419200D01*
X146694412Y-75589200D01*
X146682152Y-75464718D01*
X146645842Y-75345020D01*
X146586877Y-75234706D01*
X146507525Y-75138015D01*
X146410834Y-75058663D01*
X146300520Y-74999698D01*
X146180822Y-74963388D01*
X146056340Y-74951128D01*
X143198860Y-74951128D01*
X143074378Y-74963388D01*
X142954680Y-74999698D01*
X142844366Y-75058663D01*
X142747675Y-75138015D01*
X142668323Y-75234706D01*
X142609358Y-75345020D01*
X142573048Y-75464718D01*
X142560788Y-75589200D01*
X142443810Y-75589200D01*
X142610179Y-73723500D01*
X147330894Y-73723500D01*
X148653500Y-75046106D01*
G36*
X125626335Y-69417941D02*
G01*
X125156309Y-69438003D01*
X125142837Y-69417841D01*
X124942959Y-69217963D01*
X124707927Y-69060920D01*
X124446774Y-68952747D01*
X124169535Y-68897600D01*
X123886865Y-68897600D01*
X123609626Y-68952747D01*
X123348473Y-69060920D01*
X123113441Y-69217963D01*
X122913563Y-69417841D01*
X122833855Y-69537132D01*
X115633500Y-69844464D01*
X115633500Y-67437000D01*
X123645394Y-67437000D01*
X125626335Y-69417941D01*
G37*
X125626335Y-69417941D02*
X125156309Y-69438003D01*
X125142837Y-69417841D01*
X124942959Y-69217963D01*
X124707927Y-69060920D01*
X124446774Y-68952747D01*
X124169535Y-68897600D01*
X123886865Y-68897600D01*
X123609626Y-68952747D01*
X123348473Y-69060920D01*
X123113441Y-69217963D01*
X122913563Y-69417841D01*
X122833855Y-69537132D01*
X115633500Y-69844464D01*
X115633500Y-67437000D01*
X123645394Y-67437000D01*
X125626335Y-69417941D01*
G36*
X116956561Y-67614294D02*
G01*
X115716867Y-74866500D01*
X107827560Y-74866500D01*
X107795082Y-74856648D01*
X107670600Y-74844388D01*
X105840600Y-74844388D01*
X105716118Y-74856648D01*
X105683640Y-74866500D01*
X100584000Y-74866500D01*
X100584000Y-70453260D01*
X105202528Y-70453260D01*
X105202528Y-73310740D01*
X105214788Y-73435222D01*
X105251098Y-73554920D01*
X105310063Y-73665234D01*
X105389415Y-73761925D01*
X105486106Y-73841277D01*
X105596420Y-73900242D01*
X105716118Y-73936552D01*
X105840600Y-73948812D01*
X107670600Y-73948812D01*
X107795082Y-73936552D01*
X107914780Y-73900242D01*
X108025094Y-73841277D01*
X108121785Y-73761925D01*
X108201137Y-73665234D01*
X108260102Y-73554920D01*
X108296412Y-73435222D01*
X108308672Y-73310740D01*
X108308672Y-70453260D01*
X108308412Y-70450620D01*
X108861328Y-70450620D01*
X108861328Y-73308100D01*
X108873588Y-73432582D01*
X108909898Y-73552280D01*
X108968863Y-73662594D01*
X109048215Y-73759285D01*
X109144906Y-73838637D01*
X109255220Y-73897602D01*
X109374918Y-73933912D01*
X109499400Y-73946172D01*
X111329400Y-73946172D01*
X111453882Y-73933912D01*
X111573580Y-73897602D01*
X111683894Y-73838637D01*
X111780585Y-73759285D01*
X111859937Y-73662594D01*
X111918902Y-73552280D01*
X111955212Y-73432582D01*
X111967472Y-73308100D01*
X111967472Y-70450620D01*
X111955212Y-70326138D01*
X111918902Y-70206440D01*
X111859937Y-70096126D01*
X111780585Y-69999435D01*
X111683894Y-69920083D01*
X111573580Y-69861118D01*
X111453882Y-69824808D01*
X111329400Y-69812548D01*
X109499400Y-69812548D01*
X109374918Y-69824808D01*
X109255220Y-69861118D01*
X109144906Y-69920083D01*
X109048215Y-69999435D01*
X108968863Y-70096126D01*
X108909898Y-70206440D01*
X108873588Y-70326138D01*
X108861328Y-70450620D01*
X108308412Y-70450620D01*
X108296412Y-70328778D01*
X108260102Y-70209080D01*
X108201137Y-70098766D01*
X108121785Y-70002075D01*
X108025094Y-69922723D01*
X107914780Y-69863758D01*
X107795082Y-69827448D01*
X107670600Y-69815188D01*
X105840600Y-69815188D01*
X105716118Y-69827448D01*
X105596420Y-69863758D01*
X105486106Y-69922723D01*
X105389415Y-70002075D01*
X105310063Y-70098766D01*
X105251098Y-70209080D01*
X105214788Y-70328778D01*
X105202528Y-70453260D01*
X100584000Y-70453260D01*
X100584000Y-69139936D01*
X101503477Y-68203741D01*
X112292180Y-68203741D01*
X112292180Y-68407619D01*
X112331954Y-68607578D01*
X112409975Y-68795936D01*
X112523243Y-68965454D01*
X112667406Y-69109617D01*
X112836924Y-69222885D01*
X113025282Y-69300906D01*
X113187176Y-69333108D01*
X113921541Y-70067474D01*
X113921540Y-71505957D01*
X113829835Y-71643204D01*
X113751814Y-71831562D01*
X113712040Y-72031521D01*
X113712040Y-72235399D01*
X113751814Y-72435358D01*
X113829835Y-72623716D01*
X113943103Y-72793234D01*
X114087266Y-72937397D01*
X114256784Y-73050665D01*
X114445142Y-73128686D01*
X114645101Y-73168460D01*
X114848979Y-73168460D01*
X115048938Y-73128686D01*
X115237296Y-73050665D01*
X115406814Y-72937397D01*
X115550977Y-72793234D01*
X115664245Y-72623716D01*
X115742266Y-72435358D01*
X115782040Y-72235399D01*
X115782040Y-72031521D01*
X115742266Y-71831562D01*
X115664245Y-71643204D01*
X115572540Y-71505957D01*
X115572540Y-69766090D01*
X115576534Y-69725539D01*
X115572540Y-69684987D01*
X115560596Y-69563714D01*
X115513393Y-69408106D01*
X115456093Y-69300906D01*
X115436739Y-69264697D01*
X115359431Y-69170498D01*
X115333581Y-69138999D01*
X115302079Y-69113146D01*
X114354608Y-68165676D01*
X114322406Y-68003782D01*
X114244385Y-67815424D01*
X114131117Y-67645906D01*
X113986954Y-67501743D01*
X113817436Y-67388475D01*
X113629078Y-67310454D01*
X113429119Y-67270680D01*
X113225241Y-67270680D01*
X113025282Y-67310454D01*
X112836924Y-67388475D01*
X112667406Y-67501743D01*
X112523243Y-67645906D01*
X112409975Y-67815424D01*
X112331954Y-68003782D01*
X112292180Y-68203741D01*
X101503477Y-68203741D01*
X104002777Y-65659000D01*
X114634649Y-65659000D01*
X116956561Y-67614294D01*
G37*
X116956561Y-67614294D02*
X115716867Y-74866500D01*
X107827560Y-74866500D01*
X107795082Y-74856648D01*
X107670600Y-74844388D01*
X105840600Y-74844388D01*
X105716118Y-74856648D01*
X105683640Y-74866500D01*
X100584000Y-74866500D01*
X100584000Y-70453260D01*
X105202528Y-70453260D01*
X105202528Y-73310740D01*
X105214788Y-73435222D01*
X105251098Y-73554920D01*
X105310063Y-73665234D01*
X105389415Y-73761925D01*
X105486106Y-73841277D01*
X105596420Y-73900242D01*
X105716118Y-73936552D01*
X105840600Y-73948812D01*
X107670600Y-73948812D01*
X107795082Y-73936552D01*
X107914780Y-73900242D01*
X108025094Y-73841277D01*
X108121785Y-73761925D01*
X108201137Y-73665234D01*
X108260102Y-73554920D01*
X108296412Y-73435222D01*
X108308672Y-73310740D01*
X108308672Y-70453260D01*
X108308412Y-70450620D01*
X108861328Y-70450620D01*
X108861328Y-73308100D01*
X108873588Y-73432582D01*
X108909898Y-73552280D01*
X108968863Y-73662594D01*
X109048215Y-73759285D01*
X109144906Y-73838637D01*
X109255220Y-73897602D01*
X109374918Y-73933912D01*
X109499400Y-73946172D01*
X111329400Y-73946172D01*
X111453882Y-73933912D01*
X111573580Y-73897602D01*
X111683894Y-73838637D01*
X111780585Y-73759285D01*
X111859937Y-73662594D01*
X111918902Y-73552280D01*
X111955212Y-73432582D01*
X111967472Y-73308100D01*
X111967472Y-70450620D01*
X111955212Y-70326138D01*
X111918902Y-70206440D01*
X111859937Y-70096126D01*
X111780585Y-69999435D01*
X111683894Y-69920083D01*
X111573580Y-69861118D01*
X111453882Y-69824808D01*
X111329400Y-69812548D01*
X109499400Y-69812548D01*
X109374918Y-69824808D01*
X109255220Y-69861118D01*
X109144906Y-69920083D01*
X109048215Y-69999435D01*
X108968863Y-70096126D01*
X108909898Y-70206440D01*
X108873588Y-70326138D01*
X108861328Y-70450620D01*
X108308412Y-70450620D01*
X108296412Y-70328778D01*
X108260102Y-70209080D01*
X108201137Y-70098766D01*
X108121785Y-70002075D01*
X108025094Y-69922723D01*
X107914780Y-69863758D01*
X107795082Y-69827448D01*
X107670600Y-69815188D01*
X105840600Y-69815188D01*
X105716118Y-69827448D01*
X105596420Y-69863758D01*
X105486106Y-69922723D01*
X105389415Y-70002075D01*
X105310063Y-70098766D01*
X105251098Y-70209080D01*
X105214788Y-70328778D01*
X105202528Y-70453260D01*
X100584000Y-70453260D01*
X100584000Y-69139936D01*
X101503477Y-68203741D01*
X112292180Y-68203741D01*
X112292180Y-68407619D01*
X112331954Y-68607578D01*
X112409975Y-68795936D01*
X112523243Y-68965454D01*
X112667406Y-69109617D01*
X112836924Y-69222885D01*
X113025282Y-69300906D01*
X113187176Y-69333108D01*
X113921541Y-70067474D01*
X113921540Y-71505957D01*
X113829835Y-71643204D01*
X113751814Y-71831562D01*
X113712040Y-72031521D01*
X113712040Y-72235399D01*
X113751814Y-72435358D01*
X113829835Y-72623716D01*
X113943103Y-72793234D01*
X114087266Y-72937397D01*
X114256784Y-73050665D01*
X114445142Y-73128686D01*
X114645101Y-73168460D01*
X114848979Y-73168460D01*
X115048938Y-73128686D01*
X115237296Y-73050665D01*
X115406814Y-72937397D01*
X115550977Y-72793234D01*
X115664245Y-72623716D01*
X115742266Y-72435358D01*
X115782040Y-72235399D01*
X115782040Y-72031521D01*
X115742266Y-71831562D01*
X115664245Y-71643204D01*
X115572540Y-71505957D01*
X115572540Y-69766090D01*
X115576534Y-69725539D01*
X115572540Y-69684987D01*
X115560596Y-69563714D01*
X115513393Y-69408106D01*
X115456093Y-69300906D01*
X115436739Y-69264697D01*
X115359431Y-69170498D01*
X115333581Y-69138999D01*
X115302079Y-69113146D01*
X114354608Y-68165676D01*
X114322406Y-68003782D01*
X114244385Y-67815424D01*
X114131117Y-67645906D01*
X113986954Y-67501743D01*
X113817436Y-67388475D01*
X113629078Y-67310454D01*
X113429119Y-67270680D01*
X113225241Y-67270680D01*
X113025282Y-67310454D01*
X112836924Y-67388475D01*
X112667406Y-67501743D01*
X112523243Y-67645906D01*
X112409975Y-67815424D01*
X112331954Y-68003782D01*
X112292180Y-68203741D01*
X101503477Y-68203741D01*
X104002777Y-65659000D01*
X114634649Y-65659000D01*
X116956561Y-67614294D01*
G36*
X134648666Y-65623941D02*
G01*
X134713174Y-65744628D01*
X134799989Y-65850411D01*
X134905772Y-65937226D01*
X135026459Y-66001734D01*
X135157413Y-66041459D01*
X135293600Y-66054872D01*
X135673600Y-66054872D01*
X135809787Y-66041459D01*
X135940741Y-66001734D01*
X136061428Y-65937226D01*
X136167211Y-65850411D01*
X136254026Y-65744628D01*
X136318534Y-65623941D01*
X136346424Y-65532000D01*
X137541000Y-65532000D01*
X137541000Y-66470855D01*
X137532748Y-66498058D01*
X137520488Y-66622540D01*
X137520488Y-66779426D01*
X136581028Y-69597805D01*
X125397702Y-69889037D01*
X125299880Y-69652873D01*
X125142837Y-69417841D01*
X124942959Y-69217963D01*
X124707927Y-69060920D01*
X124446774Y-68952747D01*
X124169535Y-68897600D01*
X124070337Y-68897600D01*
X123426000Y-67507189D01*
X124894396Y-66947800D01*
X132395808Y-66947800D01*
X132395808Y-68777800D01*
X132408068Y-68902282D01*
X132444378Y-69021980D01*
X132503343Y-69132294D01*
X132582695Y-69228985D01*
X132679386Y-69308337D01*
X132789700Y-69367302D01*
X132909398Y-69403612D01*
X133033880Y-69415872D01*
X135891360Y-69415872D01*
X136015842Y-69403612D01*
X136135540Y-69367302D01*
X136245854Y-69308337D01*
X136342545Y-69228985D01*
X136421897Y-69132294D01*
X136480862Y-69021980D01*
X136517172Y-68902282D01*
X136529432Y-68777800D01*
X136529432Y-66947800D01*
X136517172Y-66823318D01*
X136480862Y-66703620D01*
X136421897Y-66593306D01*
X136342545Y-66496615D01*
X136245854Y-66417263D01*
X136135540Y-66358298D01*
X136015842Y-66321988D01*
X135891360Y-66309728D01*
X133033880Y-66309728D01*
X132909398Y-66321988D01*
X132789700Y-66358298D01*
X132679386Y-66417263D01*
X132582695Y-66496615D01*
X132503343Y-66593306D01*
X132444378Y-66703620D01*
X132408068Y-66823318D01*
X132395808Y-66947800D01*
X124894396Y-66947800D01*
X128610871Y-65532000D01*
X134620776Y-65532000D01*
X134648666Y-65623941D01*
G37*
X134648666Y-65623941D02*
X134713174Y-65744628D01*
X134799989Y-65850411D01*
X134905772Y-65937226D01*
X135026459Y-66001734D01*
X135157413Y-66041459D01*
X135293600Y-66054872D01*
X135673600Y-66054872D01*
X135809787Y-66041459D01*
X135940741Y-66001734D01*
X136061428Y-65937226D01*
X136167211Y-65850411D01*
X136254026Y-65744628D01*
X136318534Y-65623941D01*
X136346424Y-65532000D01*
X137541000Y-65532000D01*
X137541000Y-66470855D01*
X137532748Y-66498058D01*
X137520488Y-66622540D01*
X137520488Y-66779426D01*
X136581028Y-69597805D01*
X125397702Y-69889037D01*
X125299880Y-69652873D01*
X125142837Y-69417841D01*
X124942959Y-69217963D01*
X124707927Y-69060920D01*
X124446774Y-68952747D01*
X124169535Y-68897600D01*
X124070337Y-68897600D01*
X123426000Y-67507189D01*
X124894396Y-66947800D01*
X132395808Y-66947800D01*
X132395808Y-68777800D01*
X132408068Y-68902282D01*
X132444378Y-69021980D01*
X132503343Y-69132294D01*
X132582695Y-69228985D01*
X132679386Y-69308337D01*
X132789700Y-69367302D01*
X132909398Y-69403612D01*
X133033880Y-69415872D01*
X135891360Y-69415872D01*
X136015842Y-69403612D01*
X136135540Y-69367302D01*
X136245854Y-69308337D01*
X136342545Y-69228985D01*
X136421897Y-69132294D01*
X136480862Y-69021980D01*
X136517172Y-68902282D01*
X136529432Y-68777800D01*
X136529432Y-66947800D01*
X136517172Y-66823318D01*
X136480862Y-66703620D01*
X136421897Y-66593306D01*
X136342545Y-66496615D01*
X136245854Y-66417263D01*
X136135540Y-66358298D01*
X136015842Y-66321988D01*
X135891360Y-66309728D01*
X133033880Y-66309728D01*
X132909398Y-66321988D01*
X132789700Y-66358298D01*
X132679386Y-66417263D01*
X132582695Y-66496615D01*
X132503343Y-66593306D01*
X132444378Y-66703620D01*
X132408068Y-66823318D01*
X132395808Y-66947800D01*
X124894396Y-66947800D01*
X128610871Y-65532000D01*
X134620776Y-65532000D01*
X134648666Y-65623941D01*
G36*
X128778000Y-67877165D02*
G01*
X113781751Y-67373694D01*
X113629078Y-67310454D01*
X113429119Y-67270680D01*
X113225241Y-67270680D01*
X113025282Y-67310454D01*
X112940772Y-67345459D01*
X102714821Y-67002142D01*
X104130514Y-65532000D01*
X128778000Y-65532000D01*
X128778000Y-67877165D01*
G37*
X128778000Y-67877165D02*
X113781751Y-67373694D01*
X113629078Y-67310454D01*
X113429119Y-67270680D01*
X113225241Y-67270680D01*
X113025282Y-67310454D01*
X112940772Y-67345459D01*
X102714821Y-67002142D01*
X104130514Y-65532000D01*
X128778000Y-65532000D01*
X128778000Y-67877165D01*
G36*
X102966372Y-74709925D02*
G01*
X102967779Y-74734782D01*
X102974008Y-74758886D01*
X102984820Y-74781312D01*
X102999799Y-74801198D01*
X103018370Y-74817780D01*
X103039819Y-74830420D01*
X103063322Y-74838632D01*
X103088318Y-74842116D01*
X105219500Y-74925149D01*
X105219500Y-75342445D01*
X105214788Y-75357978D01*
X105202528Y-75482460D01*
X105202528Y-77895481D01*
X97622164Y-88125891D01*
X97614631Y-88138471D01*
X97577762Y-88185874D01*
X97575968Y-88188237D01*
X97452755Y-88354525D01*
X97439141Y-88365697D01*
X97428696Y-88377530D01*
X97219886Y-88646000D01*
X93531646Y-88646000D01*
X93440228Y-88570974D01*
X93319541Y-88506466D01*
X93188587Y-88466741D01*
X93052400Y-88453328D01*
X92672400Y-88453328D01*
X92536213Y-88466741D01*
X92405259Y-88506466D01*
X92284572Y-88570974D01*
X92193154Y-88646000D01*
X89442246Y-88646000D01*
X89350828Y-88570974D01*
X89230141Y-88506466D01*
X89099187Y-88466741D01*
X88963000Y-88453328D01*
X88583000Y-88453328D01*
X88446813Y-88466741D01*
X88315859Y-88506466D01*
X88195172Y-88570974D01*
X88103754Y-88646000D01*
X85429046Y-88646000D01*
X85337628Y-88570974D01*
X85216941Y-88506466D01*
X85085987Y-88466741D01*
X84949800Y-88453328D01*
X84569800Y-88453328D01*
X84433613Y-88466741D01*
X84302659Y-88506466D01*
X84181972Y-88570974D01*
X84090554Y-88646000D01*
X73262446Y-88646000D01*
X73171028Y-88570974D01*
X73050341Y-88506466D01*
X72919387Y-88466741D01*
X72783200Y-88453328D01*
X72403200Y-88453328D01*
X72267013Y-88466741D01*
X72136059Y-88506466D01*
X72015372Y-88570974D01*
X71923954Y-88646000D01*
X69198446Y-88646000D01*
X69107028Y-88570974D01*
X68986341Y-88506466D01*
X68855387Y-88466741D01*
X68719200Y-88453328D01*
X68339200Y-88453328D01*
X68203013Y-88466741D01*
X68072059Y-88506466D01*
X67951372Y-88570974D01*
X67859954Y-88646000D01*
X65159846Y-88646000D01*
X65068428Y-88570974D01*
X64947741Y-88506466D01*
X64816787Y-88466741D01*
X64680600Y-88453328D01*
X64300600Y-88453328D01*
X64164413Y-88466741D01*
X64033459Y-88506466D01*
X63912772Y-88570974D01*
X63821354Y-88646000D01*
X60007500Y-88646000D01*
X59982724Y-88648440D01*
X59958899Y-88655667D01*
X59936943Y-88667403D01*
X59917697Y-88683197D01*
X59901903Y-88702443D01*
X59890167Y-88724399D01*
X59882940Y-88748224D01*
X59880500Y-88773000D01*
X59880500Y-98337068D01*
X59833466Y-98384102D01*
X59801959Y-98409959D01*
X59737503Y-98488500D01*
X59698801Y-98535658D01*
X59660829Y-98606699D01*
X59622147Y-98679067D01*
X59574944Y-98834675D01*
X59567048Y-98914848D01*
X59559006Y-98996500D01*
X59563000Y-99037051D01*
X59563001Y-100210496D01*
X59471295Y-100347744D01*
X59393274Y-100536102D01*
X59353500Y-100736061D01*
X59353500Y-100939939D01*
X59393274Y-101139898D01*
X59471295Y-101328256D01*
X59584563Y-101497774D01*
X59728726Y-101641937D01*
X59880500Y-101743349D01*
X59880500Y-112088394D01*
X57976364Y-113992530D01*
X57969172Y-113996374D01*
X57863389Y-114083189D01*
X57776574Y-114188972D01*
X57712066Y-114309659D01*
X57672341Y-114440613D01*
X57658928Y-114576800D01*
X57658928Y-116156800D01*
X57672341Y-116292987D01*
X57712066Y-116423941D01*
X57776574Y-116544628D01*
X57848500Y-116632269D01*
X57848500Y-116776500D01*
X56832500Y-116776500D01*
X56807724Y-116778940D01*
X56783899Y-116786167D01*
X56761943Y-116797903D01*
X56742697Y-116813697D01*
X56726903Y-116832943D01*
X56715167Y-116854899D01*
X56707940Y-116878724D01*
X56705500Y-116903500D01*
X56705500Y-116972909D01*
X56627423Y-117068046D01*
X56568458Y-117178360D01*
X56532148Y-117298058D01*
X56519888Y-117422540D01*
X56519888Y-122202540D01*
X56523331Y-122237500D01*
X49339500Y-122237500D01*
X49339500Y-117753800D01*
X51397648Y-117753800D01*
X51397648Y-119583800D01*
X51409908Y-119708282D01*
X51446218Y-119827980D01*
X51505183Y-119938294D01*
X51584535Y-120034985D01*
X51681226Y-120114337D01*
X51791540Y-120173302D01*
X51911238Y-120209612D01*
X52035720Y-120221872D01*
X54893200Y-120221872D01*
X55017682Y-120209612D01*
X55137380Y-120173302D01*
X55247694Y-120114337D01*
X55344385Y-120034985D01*
X55423737Y-119938294D01*
X55482702Y-119827980D01*
X55519012Y-119708282D01*
X55531272Y-119583800D01*
X55531272Y-117753800D01*
X55519012Y-117629318D01*
X55482702Y-117509620D01*
X55423737Y-117399306D01*
X55344385Y-117302615D01*
X55247694Y-117223263D01*
X55137380Y-117164298D01*
X55017682Y-117127988D01*
X54893200Y-117115728D01*
X52035720Y-117115728D01*
X51911238Y-117127988D01*
X51791540Y-117164298D01*
X51681226Y-117223263D01*
X51584535Y-117302615D01*
X51505183Y-117399306D01*
X51446218Y-117509620D01*
X51409908Y-117629318D01*
X51397648Y-117753800D01*
X49339500Y-117753800D01*
X49339500Y-115876606D01*
X50639306Y-114576800D01*
X53594928Y-114576800D01*
X53594928Y-116156800D01*
X53608341Y-116292987D01*
X53648066Y-116423941D01*
X53712574Y-116544628D01*
X53799389Y-116650411D01*
X53905172Y-116737226D01*
X54025859Y-116801734D01*
X54156813Y-116841459D01*
X54293000Y-116854872D01*
X54673000Y-116854872D01*
X54809187Y-116841459D01*
X54940141Y-116801734D01*
X55060828Y-116737226D01*
X55166611Y-116650411D01*
X55253426Y-116544628D01*
X55317934Y-116423941D01*
X55357659Y-116292987D01*
X55371072Y-116156800D01*
X55371072Y-114576800D01*
X55357659Y-114440613D01*
X55317934Y-114309659D01*
X55253426Y-114188972D01*
X55166611Y-114083189D01*
X55060828Y-113996374D01*
X54940141Y-113931866D01*
X54809187Y-113892141D01*
X54673000Y-113878728D01*
X54293000Y-113878728D01*
X54156813Y-113892141D01*
X54025859Y-113931866D01*
X53905172Y-113996374D01*
X53799389Y-114083189D01*
X53712574Y-114188972D01*
X53648066Y-114309659D01*
X53608341Y-114440613D01*
X53594928Y-114576800D01*
X50639306Y-114576800D01*
X55017303Y-110198803D01*
X55033097Y-110179557D01*
X55044833Y-110157601D01*
X55052060Y-110133776D01*
X55054500Y-110109000D01*
X55054500Y-107005700D01*
X55097834Y-106982537D01*
X55194525Y-106903185D01*
X55273877Y-106806494D01*
X55332842Y-106696180D01*
X55369152Y-106576482D01*
X55381412Y-106452000D01*
X55381412Y-104622000D01*
X55369152Y-104497518D01*
X55332842Y-104377820D01*
X55273877Y-104267506D01*
X55194525Y-104170815D01*
X55097834Y-104091463D01*
X55054500Y-104068300D01*
X55054500Y-103347500D01*
X55097834Y-103324337D01*
X55194525Y-103244985D01*
X55273877Y-103148294D01*
X55332842Y-103037980D01*
X55369152Y-102918282D01*
X55381412Y-102793800D01*
X55381412Y-100963800D01*
X55369152Y-100839318D01*
X55332842Y-100719620D01*
X55273877Y-100609306D01*
X55194525Y-100512615D01*
X55097834Y-100433263D01*
X55054500Y-100410100D01*
X55054500Y-94712700D01*
X55097834Y-94689537D01*
X55194525Y-94610185D01*
X55273877Y-94513494D01*
X55332842Y-94403180D01*
X55369152Y-94283482D01*
X55381412Y-94159000D01*
X55381412Y-92329000D01*
X55369152Y-92204518D01*
X55332842Y-92084820D01*
X55273877Y-91974506D01*
X55194525Y-91877815D01*
X55097834Y-91798463D01*
X55054500Y-91775300D01*
X55054500Y-84836000D01*
X75841949Y-84836000D01*
X75882499Y-84839994D01*
X75923050Y-84836000D01*
X80769550Y-84836000D01*
X80810100Y-84839994D01*
X80850650Y-84836000D01*
X94777278Y-84836000D01*
X94802054Y-84833560D01*
X94825879Y-84826333D01*
X94847835Y-84814597D01*
X94867081Y-84798803D01*
X94877526Y-84786970D01*
X96396330Y-82834222D01*
X96506774Y-82812253D01*
X96767927Y-82704080D01*
X97002959Y-82547037D01*
X97202837Y-82347159D01*
X97359880Y-82112127D01*
X97468053Y-81850974D01*
X97523200Y-81573735D01*
X97523200Y-81385389D01*
X100557248Y-77484470D01*
X100570533Y-77463415D01*
X100579455Y-77440172D01*
X100584000Y-77406500D01*
X100584000Y-74744545D01*
X102561252Y-74821580D01*
X102586104Y-74820106D01*
X102610192Y-74813812D01*
X102632589Y-74802939D01*
X102652434Y-74787907D01*
X102666444Y-74772646D01*
X102980588Y-74368747D01*
X102966372Y-74709925D01*
G37*
X102966372Y-74709925D02*
X102967779Y-74734782D01*
X102974008Y-74758886D01*
X102984820Y-74781312D01*
X102999799Y-74801198D01*
X103018370Y-74817780D01*
X103039819Y-74830420D01*
X103063322Y-74838632D01*
X103088318Y-74842116D01*
X105219500Y-74925149D01*
X105219500Y-75342445D01*
X105214788Y-75357978D01*
X105202528Y-75482460D01*
X105202528Y-77895481D01*
X97622164Y-88125891D01*
X97614631Y-88138471D01*
X97577762Y-88185874D01*
X97575968Y-88188237D01*
X97452755Y-88354525D01*
X97439141Y-88365697D01*
X97428696Y-88377530D01*
X97219886Y-88646000D01*
X93531646Y-88646000D01*
X93440228Y-88570974D01*
X93319541Y-88506466D01*
X93188587Y-88466741D01*
X93052400Y-88453328D01*
X92672400Y-88453328D01*
X92536213Y-88466741D01*
X92405259Y-88506466D01*
X92284572Y-88570974D01*
X92193154Y-88646000D01*
X89442246Y-88646000D01*
X89350828Y-88570974D01*
X89230141Y-88506466D01*
X89099187Y-88466741D01*
X88963000Y-88453328D01*
X88583000Y-88453328D01*
X88446813Y-88466741D01*
X88315859Y-88506466D01*
X88195172Y-88570974D01*
X88103754Y-88646000D01*
X85429046Y-88646000D01*
X85337628Y-88570974D01*
X85216941Y-88506466D01*
X85085987Y-88466741D01*
X84949800Y-88453328D01*
X84569800Y-88453328D01*
X84433613Y-88466741D01*
X84302659Y-88506466D01*
X84181972Y-88570974D01*
X84090554Y-88646000D01*
X73262446Y-88646000D01*
X73171028Y-88570974D01*
X73050341Y-88506466D01*
X72919387Y-88466741D01*
X72783200Y-88453328D01*
X72403200Y-88453328D01*
X72267013Y-88466741D01*
X72136059Y-88506466D01*
X72015372Y-88570974D01*
X71923954Y-88646000D01*
X69198446Y-88646000D01*
X69107028Y-88570974D01*
X68986341Y-88506466D01*
X68855387Y-88466741D01*
X68719200Y-88453328D01*
X68339200Y-88453328D01*
X68203013Y-88466741D01*
X68072059Y-88506466D01*
X67951372Y-88570974D01*
X67859954Y-88646000D01*
X65159846Y-88646000D01*
X65068428Y-88570974D01*
X64947741Y-88506466D01*
X64816787Y-88466741D01*
X64680600Y-88453328D01*
X64300600Y-88453328D01*
X64164413Y-88466741D01*
X64033459Y-88506466D01*
X63912772Y-88570974D01*
X63821354Y-88646000D01*
X60007500Y-88646000D01*
X59982724Y-88648440D01*
X59958899Y-88655667D01*
X59936943Y-88667403D01*
X59917697Y-88683197D01*
X59901903Y-88702443D01*
X59890167Y-88724399D01*
X59882940Y-88748224D01*
X59880500Y-88773000D01*
X59880500Y-98337068D01*
X59833466Y-98384102D01*
X59801959Y-98409959D01*
X59737503Y-98488500D01*
X59698801Y-98535658D01*
X59660829Y-98606699D01*
X59622147Y-98679067D01*
X59574944Y-98834675D01*
X59567048Y-98914848D01*
X59559006Y-98996500D01*
X59563000Y-99037051D01*
X59563001Y-100210496D01*
X59471295Y-100347744D01*
X59393274Y-100536102D01*
X59353500Y-100736061D01*
X59353500Y-100939939D01*
X59393274Y-101139898D01*
X59471295Y-101328256D01*
X59584563Y-101497774D01*
X59728726Y-101641937D01*
X59880500Y-101743349D01*
X59880500Y-112088394D01*
X57976364Y-113992530D01*
X57969172Y-113996374D01*
X57863389Y-114083189D01*
X57776574Y-114188972D01*
X57712066Y-114309659D01*
X57672341Y-114440613D01*
X57658928Y-114576800D01*
X57658928Y-116156800D01*
X57672341Y-116292987D01*
X57712066Y-116423941D01*
X57776574Y-116544628D01*
X57848500Y-116632269D01*
X57848500Y-116776500D01*
X56832500Y-116776500D01*
X56807724Y-116778940D01*
X56783899Y-116786167D01*
X56761943Y-116797903D01*
X56742697Y-116813697D01*
X56726903Y-116832943D01*
X56715167Y-116854899D01*
X56707940Y-116878724D01*
X56705500Y-116903500D01*
X56705500Y-116972909D01*
X56627423Y-117068046D01*
X56568458Y-117178360D01*
X56532148Y-117298058D01*
X56519888Y-117422540D01*
X56519888Y-122202540D01*
X56523331Y-122237500D01*
X49339500Y-122237500D01*
X49339500Y-117753800D01*
X51397648Y-117753800D01*
X51397648Y-119583800D01*
X51409908Y-119708282D01*
X51446218Y-119827980D01*
X51505183Y-119938294D01*
X51584535Y-120034985D01*
X51681226Y-120114337D01*
X51791540Y-120173302D01*
X51911238Y-120209612D01*
X52035720Y-120221872D01*
X54893200Y-120221872D01*
X55017682Y-120209612D01*
X55137380Y-120173302D01*
X55247694Y-120114337D01*
X55344385Y-120034985D01*
X55423737Y-119938294D01*
X55482702Y-119827980D01*
X55519012Y-119708282D01*
X55531272Y-119583800D01*
X55531272Y-117753800D01*
X55519012Y-117629318D01*
X55482702Y-117509620D01*
X55423737Y-117399306D01*
X55344385Y-117302615D01*
X55247694Y-117223263D01*
X55137380Y-117164298D01*
X55017682Y-117127988D01*
X54893200Y-117115728D01*
X52035720Y-117115728D01*
X51911238Y-117127988D01*
X51791540Y-117164298D01*
X51681226Y-117223263D01*
X51584535Y-117302615D01*
X51505183Y-117399306D01*
X51446218Y-117509620D01*
X51409908Y-117629318D01*
X51397648Y-117753800D01*
X49339500Y-117753800D01*
X49339500Y-115876606D01*
X50639306Y-114576800D01*
X53594928Y-114576800D01*
X53594928Y-116156800D01*
X53608341Y-116292987D01*
X53648066Y-116423941D01*
X53712574Y-116544628D01*
X53799389Y-116650411D01*
X53905172Y-116737226D01*
X54025859Y-116801734D01*
X54156813Y-116841459D01*
X54293000Y-116854872D01*
X54673000Y-116854872D01*
X54809187Y-116841459D01*
X54940141Y-116801734D01*
X55060828Y-116737226D01*
X55166611Y-116650411D01*
X55253426Y-116544628D01*
X55317934Y-116423941D01*
X55357659Y-116292987D01*
X55371072Y-116156800D01*
X55371072Y-114576800D01*
X55357659Y-114440613D01*
X55317934Y-114309659D01*
X55253426Y-114188972D01*
X55166611Y-114083189D01*
X55060828Y-113996374D01*
X54940141Y-113931866D01*
X54809187Y-113892141D01*
X54673000Y-113878728D01*
X54293000Y-113878728D01*
X54156813Y-113892141D01*
X54025859Y-113931866D01*
X53905172Y-113996374D01*
X53799389Y-114083189D01*
X53712574Y-114188972D01*
X53648066Y-114309659D01*
X53608341Y-114440613D01*
X53594928Y-114576800D01*
X50639306Y-114576800D01*
X55017303Y-110198803D01*
X55033097Y-110179557D01*
X55044833Y-110157601D01*
X55052060Y-110133776D01*
X55054500Y-110109000D01*
X55054500Y-107005700D01*
X55097834Y-106982537D01*
X55194525Y-106903185D01*
X55273877Y-106806494D01*
X55332842Y-106696180D01*
X55369152Y-106576482D01*
X55381412Y-106452000D01*
X55381412Y-104622000D01*
X55369152Y-104497518D01*
X55332842Y-104377820D01*
X55273877Y-104267506D01*
X55194525Y-104170815D01*
X55097834Y-104091463D01*
X55054500Y-104068300D01*
X55054500Y-103347500D01*
X55097834Y-103324337D01*
X55194525Y-103244985D01*
X55273877Y-103148294D01*
X55332842Y-103037980D01*
X55369152Y-102918282D01*
X55381412Y-102793800D01*
X55381412Y-100963800D01*
X55369152Y-100839318D01*
X55332842Y-100719620D01*
X55273877Y-100609306D01*
X55194525Y-100512615D01*
X55097834Y-100433263D01*
X55054500Y-100410100D01*
X55054500Y-94712700D01*
X55097834Y-94689537D01*
X55194525Y-94610185D01*
X55273877Y-94513494D01*
X55332842Y-94403180D01*
X55369152Y-94283482D01*
X55381412Y-94159000D01*
X55381412Y-92329000D01*
X55369152Y-92204518D01*
X55332842Y-92084820D01*
X55273877Y-91974506D01*
X55194525Y-91877815D01*
X55097834Y-91798463D01*
X55054500Y-91775300D01*
X55054500Y-84836000D01*
X75841949Y-84836000D01*
X75882499Y-84839994D01*
X75923050Y-84836000D01*
X80769550Y-84836000D01*
X80810100Y-84839994D01*
X80850650Y-84836000D01*
X94777278Y-84836000D01*
X94802054Y-84833560D01*
X94825879Y-84826333D01*
X94847835Y-84814597D01*
X94867081Y-84798803D01*
X94877526Y-84786970D01*
X96396330Y-82834222D01*
X96506774Y-82812253D01*
X96767927Y-82704080D01*
X97002959Y-82547037D01*
X97202837Y-82347159D01*
X97359880Y-82112127D01*
X97468053Y-81850974D01*
X97523200Y-81573735D01*
X97523200Y-81385389D01*
X100557248Y-77484470D01*
X100570533Y-77463415D01*
X100579455Y-77440172D01*
X100584000Y-77406500D01*
X100584000Y-74744545D01*
X102561252Y-74821580D01*
X102586104Y-74820106D01*
X102610192Y-74813812D01*
X102632589Y-74802939D01*
X102652434Y-74787907D01*
X102666444Y-74772646D01*
X102980588Y-74368747D01*
X102966372Y-74709925D01*
G36*
X105716118Y-78965752D02*
G01*
X105840600Y-78978012D01*
X107670600Y-78978012D01*
X107795082Y-78965752D01*
X107911292Y-78930500D01*
X109088221Y-78930500D01*
X109167540Y-78938312D01*
X109315804Y-78938312D01*
X110652197Y-79924388D01*
X109499400Y-79924388D01*
X109374918Y-79936648D01*
X109255220Y-79972958D01*
X109144906Y-80031923D01*
X109048215Y-80111275D01*
X108968863Y-80207966D01*
X108909898Y-80318280D01*
X108873588Y-80437978D01*
X108861328Y-80562460D01*
X108861328Y-83419940D01*
X108873588Y-83544422D01*
X108909898Y-83664120D01*
X108968863Y-83774434D01*
X109048215Y-83871125D01*
X109144906Y-83950477D01*
X109255220Y-84009442D01*
X109374918Y-84045752D01*
X109499400Y-84058012D01*
X111329400Y-84058012D01*
X111453882Y-84045752D01*
X111573580Y-84009442D01*
X111683894Y-83950477D01*
X111780585Y-83871125D01*
X111859937Y-83774434D01*
X111918902Y-83664120D01*
X111955212Y-83544422D01*
X111967472Y-83419940D01*
X111967472Y-80562460D01*
X111955212Y-80437978D01*
X111918902Y-80318280D01*
X111912092Y-80305539D01*
X111895881Y-79989431D01*
X113231313Y-80363352D01*
X113338780Y-81276825D01*
X113031293Y-81461318D01*
X113011303Y-81476158D01*
X112994592Y-81494613D01*
X112981802Y-81515973D01*
X112973426Y-81539418D01*
X112969784Y-81564047D01*
X112971017Y-81588912D01*
X112977078Y-81613060D01*
X112987732Y-81635561D01*
X113002572Y-81655551D01*
X113021230Y-81672412D01*
X115714754Y-83659866D01*
X115713104Y-83683010D01*
X115716213Y-83707711D01*
X115724081Y-83731331D01*
X115736406Y-83752963D01*
X115752715Y-83771774D01*
X115772380Y-83787043D01*
X115794645Y-83798181D01*
X115818656Y-83804762D01*
X115854802Y-83805719D01*
X115920335Y-83798059D01*
X113485394Y-86233000D01*
X112482546Y-86233000D01*
X112457849Y-86222770D01*
X112437726Y-86121602D01*
X112359705Y-85933244D01*
X112246437Y-85763726D01*
X112102274Y-85619563D01*
X111932756Y-85506295D01*
X111744398Y-85428274D01*
X111544439Y-85388500D01*
X111340561Y-85388500D01*
X111140602Y-85428274D01*
X110952244Y-85506295D01*
X110782726Y-85619563D01*
X110638563Y-85763726D01*
X110525295Y-85933244D01*
X110447274Y-86121602D01*
X110425116Y-86233000D01*
X107847047Y-86233000D01*
X107743898Y-86190274D01*
X107543939Y-86150500D01*
X107340061Y-86150500D01*
X107140102Y-86190274D01*
X107036953Y-86233000D01*
X105854500Y-86233000D01*
X105829724Y-86235440D01*
X105805899Y-86242667D01*
X105783943Y-86254403D01*
X105764697Y-86270197D01*
X105750082Y-86287710D01*
X101178082Y-92891710D01*
X101165985Y-92913470D01*
X101158366Y-92937172D01*
X101155500Y-92964000D01*
X101155500Y-103498041D01*
X101136500Y-103593561D01*
X101136500Y-103797439D01*
X101155500Y-103892959D01*
X101155500Y-111262894D01*
X98562742Y-113855652D01*
X76517135Y-113919001D01*
X76492366Y-113921512D01*
X76468562Y-113928807D01*
X76446639Y-113940607D01*
X76427697Y-113956197D01*
X73189197Y-117194697D01*
X73184502Y-117199652D01*
X67266302Y-123790952D01*
X67251565Y-123811018D01*
X67241025Y-123833574D01*
X67235089Y-123857752D01*
X67233800Y-123876102D01*
X67258897Y-134416897D01*
X63493469Y-134419758D01*
X63486774Y-134413063D01*
X63317256Y-134299795D01*
X63128898Y-134221774D01*
X62928939Y-134182000D01*
X62725061Y-134182000D01*
X62525102Y-134221774D01*
X62336744Y-134299795D01*
X62199497Y-134391500D01*
X59974503Y-134391500D01*
X59837256Y-134299795D01*
X59648898Y-134221774D01*
X59448939Y-134182000D01*
X59245061Y-134182000D01*
X59045102Y-134221774D01*
X58856744Y-134299795D01*
X58687226Y-134413063D01*
X58676871Y-134423418D01*
X50721901Y-134429463D01*
X49326937Y-133166780D01*
X49334506Y-130048000D01*
X51400188Y-130048000D01*
X51400188Y-131878000D01*
X51412448Y-132002482D01*
X51448758Y-132122180D01*
X51507723Y-132232494D01*
X51587075Y-132329185D01*
X51683766Y-132408537D01*
X51794080Y-132467502D01*
X51913778Y-132503812D01*
X52038260Y-132516072D01*
X54895740Y-132516072D01*
X55020222Y-132503812D01*
X55139920Y-132467502D01*
X55250234Y-132408537D01*
X55346925Y-132329185D01*
X55426277Y-132232494D01*
X55485242Y-132122180D01*
X55521552Y-132002482D01*
X55533812Y-131878000D01*
X55533812Y-130048000D01*
X56480188Y-130048000D01*
X56480188Y-131878000D01*
X56492448Y-132002482D01*
X56528758Y-132122180D01*
X56587723Y-132232494D01*
X56667075Y-132329185D01*
X56763766Y-132408537D01*
X56874080Y-132467502D01*
X56993778Y-132503812D01*
X57118260Y-132516072D01*
X59975740Y-132516072D01*
X60100222Y-132503812D01*
X60219920Y-132467502D01*
X60330234Y-132408537D01*
X60426925Y-132329185D01*
X60506277Y-132232494D01*
X60565242Y-132122180D01*
X60601552Y-132002482D01*
X60613812Y-131878000D01*
X60613812Y-130048000D01*
X61560188Y-130048000D01*
X61560188Y-131878000D01*
X61572448Y-132002482D01*
X61608758Y-132122180D01*
X61667723Y-132232494D01*
X61747075Y-132329185D01*
X61843766Y-132408537D01*
X61954080Y-132467502D01*
X62073778Y-132503812D01*
X62198260Y-132516072D01*
X65055740Y-132516072D01*
X65180222Y-132503812D01*
X65299920Y-132467502D01*
X65410234Y-132408537D01*
X65506925Y-132329185D01*
X65586277Y-132232494D01*
X65645242Y-132122180D01*
X65681552Y-132002482D01*
X65693812Y-131878000D01*
X65693812Y-130048000D01*
X65681552Y-129923518D01*
X65645242Y-129803820D01*
X65586277Y-129693506D01*
X65506925Y-129596815D01*
X65410234Y-129517463D01*
X65299920Y-129458498D01*
X65180222Y-129422188D01*
X65055740Y-129409928D01*
X62198260Y-129409928D01*
X62073778Y-129422188D01*
X61954080Y-129458498D01*
X61843766Y-129517463D01*
X61747075Y-129596815D01*
X61667723Y-129693506D01*
X61608758Y-129803820D01*
X61572448Y-129923518D01*
X61560188Y-130048000D01*
X60613812Y-130048000D01*
X60601552Y-129923518D01*
X60565242Y-129803820D01*
X60506277Y-129693506D01*
X60426925Y-129596815D01*
X60330234Y-129517463D01*
X60219920Y-129458498D01*
X60100222Y-129422188D01*
X59975740Y-129409928D01*
X57118260Y-129409928D01*
X56993778Y-129422188D01*
X56874080Y-129458498D01*
X56763766Y-129517463D01*
X56667075Y-129596815D01*
X56587723Y-129693506D01*
X56528758Y-129803820D01*
X56492448Y-129923518D01*
X56480188Y-130048000D01*
X55533812Y-130048000D01*
X55521552Y-129923518D01*
X55485242Y-129803820D01*
X55426277Y-129693506D01*
X55346925Y-129596815D01*
X55250234Y-129517463D01*
X55139920Y-129458498D01*
X55020222Y-129422188D01*
X54895740Y-129409928D01*
X52038260Y-129409928D01*
X51913778Y-129422188D01*
X51794080Y-129458498D01*
X51683766Y-129517463D01*
X51587075Y-129596815D01*
X51507723Y-129693506D01*
X51448758Y-129803820D01*
X51412448Y-129923518D01*
X51400188Y-130048000D01*
X49334506Y-130048000D01*
X49343371Y-126395800D01*
X51397648Y-126395800D01*
X51397648Y-128225800D01*
X51409908Y-128350282D01*
X51446218Y-128469980D01*
X51505183Y-128580294D01*
X51584535Y-128676985D01*
X51681226Y-128756337D01*
X51791540Y-128815302D01*
X51911238Y-128851612D01*
X52035720Y-128863872D01*
X54893200Y-128863872D01*
X55017682Y-128851612D01*
X55137380Y-128815302D01*
X55247694Y-128756337D01*
X55344385Y-128676985D01*
X55423737Y-128580294D01*
X55482702Y-128469980D01*
X55519012Y-128350282D01*
X55531272Y-128225800D01*
X55531272Y-126395800D01*
X55519012Y-126271318D01*
X55482702Y-126151620D01*
X55423737Y-126041306D01*
X55344385Y-125944615D01*
X55247694Y-125865263D01*
X55137380Y-125806298D01*
X55017682Y-125769988D01*
X54893200Y-125757728D01*
X52035720Y-125757728D01*
X51911238Y-125769988D01*
X51791540Y-125806298D01*
X51681226Y-125865263D01*
X51584535Y-125944615D01*
X51505183Y-126041306D01*
X51446218Y-126151620D01*
X51409908Y-126271318D01*
X51397648Y-126395800D01*
X49343371Y-126395800D01*
X49349738Y-123772540D01*
X56519888Y-123772540D01*
X56519888Y-128552540D01*
X56532148Y-128677022D01*
X56568458Y-128796720D01*
X56627423Y-128907034D01*
X56706775Y-129003725D01*
X56803466Y-129083077D01*
X56913780Y-129142042D01*
X57033478Y-129178352D01*
X57157960Y-129190612D01*
X59937960Y-129190612D01*
X60062442Y-129178352D01*
X60182140Y-129142042D01*
X60292454Y-129083077D01*
X60389145Y-129003725D01*
X60468497Y-128907034D01*
X60527462Y-128796720D01*
X60563772Y-128677022D01*
X60576032Y-128552540D01*
X60576032Y-126389200D01*
X61560188Y-126389200D01*
X61560188Y-128219200D01*
X61572448Y-128343682D01*
X61608758Y-128463380D01*
X61667723Y-128573694D01*
X61747075Y-128670385D01*
X61843766Y-128749737D01*
X61954080Y-128808702D01*
X62073778Y-128845012D01*
X62198260Y-128857272D01*
X65055740Y-128857272D01*
X65180222Y-128845012D01*
X65299920Y-128808702D01*
X65410234Y-128749737D01*
X65506925Y-128670385D01*
X65586277Y-128573694D01*
X65645242Y-128463380D01*
X65681552Y-128343682D01*
X65693812Y-128219200D01*
X65693812Y-126389200D01*
X65681552Y-126264718D01*
X65645242Y-126145020D01*
X65586277Y-126034706D01*
X65506925Y-125938015D01*
X65410234Y-125858663D01*
X65299920Y-125799698D01*
X65180222Y-125763388D01*
X65055740Y-125751128D01*
X62198260Y-125751128D01*
X62073778Y-125763388D01*
X61954080Y-125799698D01*
X61843766Y-125858663D01*
X61747075Y-125938015D01*
X61667723Y-126034706D01*
X61608758Y-126145020D01*
X61572448Y-126264718D01*
X61560188Y-126389200D01*
X60576032Y-126389200D01*
X60576032Y-123772540D01*
X60563772Y-123648058D01*
X60527462Y-123528360D01*
X60468497Y-123418046D01*
X60389145Y-123321355D01*
X60292454Y-123242003D01*
X60182140Y-123183038D01*
X60062442Y-123146728D01*
X59937960Y-123134468D01*
X57157960Y-123134468D01*
X57033478Y-123146728D01*
X56913780Y-123183038D01*
X56803466Y-123242003D01*
X56706775Y-123321355D01*
X56627423Y-123418046D01*
X56568458Y-123528360D01*
X56532148Y-123648058D01*
X56519888Y-123772540D01*
X49349738Y-123772540D01*
X49351893Y-122884925D01*
X60909476Y-122859800D01*
X60934247Y-122857306D01*
X60958056Y-122850027D01*
X60979987Y-122838243D01*
X60999003Y-122822603D01*
X63171606Y-120650000D01*
X65151000Y-120650000D01*
X65175776Y-120647560D01*
X65199601Y-120640333D01*
X65221557Y-120628597D01*
X65240803Y-120612803D01*
X66574303Y-119279303D01*
X66590097Y-119260057D01*
X66601833Y-119238101D01*
X66609060Y-119214276D01*
X66611500Y-119189500D01*
X66611500Y-117464726D01*
X74220155Y-109981834D01*
X93279267Y-109921136D01*
X93304036Y-109918617D01*
X93327837Y-109911314D01*
X93349756Y-109899508D01*
X93368666Y-109883940D01*
X96054177Y-107198429D01*
X96068792Y-107180916D01*
X96189687Y-107006290D01*
X96201784Y-106984530D01*
X96209403Y-106960828D01*
X96212252Y-106936095D01*
X96210220Y-106911282D01*
X96203387Y-106887341D01*
X96202500Y-106885614D01*
X96202500Y-97930526D01*
X96219826Y-97888698D01*
X96259600Y-97688739D01*
X96259600Y-97484861D01*
X96219826Y-97284902D01*
X96202500Y-97243074D01*
X96202500Y-91164014D01*
X103962400Y-80562460D01*
X105202528Y-80562460D01*
X105202528Y-83419940D01*
X105214788Y-83544422D01*
X105251098Y-83664120D01*
X105310063Y-83774434D01*
X105389415Y-83871125D01*
X105486106Y-83950477D01*
X105596420Y-84009442D01*
X105716118Y-84045752D01*
X105840600Y-84058012D01*
X107670600Y-84058012D01*
X107795082Y-84045752D01*
X107914780Y-84009442D01*
X108025094Y-83950477D01*
X108121785Y-83871125D01*
X108201137Y-83774434D01*
X108260102Y-83664120D01*
X108296412Y-83544422D01*
X108308672Y-83419940D01*
X108308672Y-80562460D01*
X108296412Y-80437978D01*
X108260102Y-80318280D01*
X108201137Y-80207966D01*
X108121785Y-80111275D01*
X108025094Y-80031923D01*
X107914780Y-79972958D01*
X107795082Y-79936648D01*
X107670600Y-79924388D01*
X105840600Y-79924388D01*
X105716118Y-79936648D01*
X105596420Y-79972958D01*
X105486106Y-80031923D01*
X105389415Y-80111275D01*
X105310063Y-80207966D01*
X105251098Y-80318280D01*
X105214788Y-80437978D01*
X105202528Y-80562460D01*
X103962400Y-80562460D01*
X105156928Y-78930500D01*
X105599908Y-78930500D01*
X105716118Y-78965752D01*
G37*
X105716118Y-78965752D02*
X105840600Y-78978012D01*
X107670600Y-78978012D01*
X107795082Y-78965752D01*
X107911292Y-78930500D01*
X109088221Y-78930500D01*
X109167540Y-78938312D01*
X109315804Y-78938312D01*
X110652197Y-79924388D01*
X109499400Y-79924388D01*
X109374918Y-79936648D01*
X109255220Y-79972958D01*
X109144906Y-80031923D01*
X109048215Y-80111275D01*
X108968863Y-80207966D01*
X108909898Y-80318280D01*
X108873588Y-80437978D01*
X108861328Y-80562460D01*
X108861328Y-83419940D01*
X108873588Y-83544422D01*
X108909898Y-83664120D01*
X108968863Y-83774434D01*
X109048215Y-83871125D01*
X109144906Y-83950477D01*
X109255220Y-84009442D01*
X109374918Y-84045752D01*
X109499400Y-84058012D01*
X111329400Y-84058012D01*
X111453882Y-84045752D01*
X111573580Y-84009442D01*
X111683894Y-83950477D01*
X111780585Y-83871125D01*
X111859937Y-83774434D01*
X111918902Y-83664120D01*
X111955212Y-83544422D01*
X111967472Y-83419940D01*
X111967472Y-80562460D01*
X111955212Y-80437978D01*
X111918902Y-80318280D01*
X111912092Y-80305539D01*
X111895881Y-79989431D01*
X113231313Y-80363352D01*
X113338780Y-81276825D01*
X113031293Y-81461318D01*
X113011303Y-81476158D01*
X112994592Y-81494613D01*
X112981802Y-81515973D01*
X112973426Y-81539418D01*
X112969784Y-81564047D01*
X112971017Y-81588912D01*
X112977078Y-81613060D01*
X112987732Y-81635561D01*
X113002572Y-81655551D01*
X113021230Y-81672412D01*
X115714754Y-83659866D01*
X115713104Y-83683010D01*
X115716213Y-83707711D01*
X115724081Y-83731331D01*
X115736406Y-83752963D01*
X115752715Y-83771774D01*
X115772380Y-83787043D01*
X115794645Y-83798181D01*
X115818656Y-83804762D01*
X115854802Y-83805719D01*
X115920335Y-83798059D01*
X113485394Y-86233000D01*
X112482546Y-86233000D01*
X112457849Y-86222770D01*
X112437726Y-86121602D01*
X112359705Y-85933244D01*
X112246437Y-85763726D01*
X112102274Y-85619563D01*
X111932756Y-85506295D01*
X111744398Y-85428274D01*
X111544439Y-85388500D01*
X111340561Y-85388500D01*
X111140602Y-85428274D01*
X110952244Y-85506295D01*
X110782726Y-85619563D01*
X110638563Y-85763726D01*
X110525295Y-85933244D01*
X110447274Y-86121602D01*
X110425116Y-86233000D01*
X107847047Y-86233000D01*
X107743898Y-86190274D01*
X107543939Y-86150500D01*
X107340061Y-86150500D01*
X107140102Y-86190274D01*
X107036953Y-86233000D01*
X105854500Y-86233000D01*
X105829724Y-86235440D01*
X105805899Y-86242667D01*
X105783943Y-86254403D01*
X105764697Y-86270197D01*
X105750082Y-86287710D01*
X101178082Y-92891710D01*
X101165985Y-92913470D01*
X101158366Y-92937172D01*
X101155500Y-92964000D01*
X101155500Y-103498041D01*
X101136500Y-103593561D01*
X101136500Y-103797439D01*
X101155500Y-103892959D01*
X101155500Y-111262894D01*
X98562742Y-113855652D01*
X76517135Y-113919001D01*
X76492366Y-113921512D01*
X76468562Y-113928807D01*
X76446639Y-113940607D01*
X76427697Y-113956197D01*
X73189197Y-117194697D01*
X73184502Y-117199652D01*
X67266302Y-123790952D01*
X67251565Y-123811018D01*
X67241025Y-123833574D01*
X67235089Y-123857752D01*
X67233800Y-123876102D01*
X67258897Y-134416897D01*
X63493469Y-134419758D01*
X63486774Y-134413063D01*
X63317256Y-134299795D01*
X63128898Y-134221774D01*
X62928939Y-134182000D01*
X62725061Y-134182000D01*
X62525102Y-134221774D01*
X62336744Y-134299795D01*
X62199497Y-134391500D01*
X59974503Y-134391500D01*
X59837256Y-134299795D01*
X59648898Y-134221774D01*
X59448939Y-134182000D01*
X59245061Y-134182000D01*
X59045102Y-134221774D01*
X58856744Y-134299795D01*
X58687226Y-134413063D01*
X58676871Y-134423418D01*
X50721901Y-134429463D01*
X49326937Y-133166780D01*
X49334506Y-130048000D01*
X51400188Y-130048000D01*
X51400188Y-131878000D01*
X51412448Y-132002482D01*
X51448758Y-132122180D01*
X51507723Y-132232494D01*
X51587075Y-132329185D01*
X51683766Y-132408537D01*
X51794080Y-132467502D01*
X51913778Y-132503812D01*
X52038260Y-132516072D01*
X54895740Y-132516072D01*
X55020222Y-132503812D01*
X55139920Y-132467502D01*
X55250234Y-132408537D01*
X55346925Y-132329185D01*
X55426277Y-132232494D01*
X55485242Y-132122180D01*
X55521552Y-132002482D01*
X55533812Y-131878000D01*
X55533812Y-130048000D01*
X56480188Y-130048000D01*
X56480188Y-131878000D01*
X56492448Y-132002482D01*
X56528758Y-132122180D01*
X56587723Y-132232494D01*
X56667075Y-132329185D01*
X56763766Y-132408537D01*
X56874080Y-132467502D01*
X56993778Y-132503812D01*
X57118260Y-132516072D01*
X59975740Y-132516072D01*
X60100222Y-132503812D01*
X60219920Y-132467502D01*
X60330234Y-132408537D01*
X60426925Y-132329185D01*
X60506277Y-132232494D01*
X60565242Y-132122180D01*
X60601552Y-132002482D01*
X60613812Y-131878000D01*
X60613812Y-130048000D01*
X61560188Y-130048000D01*
X61560188Y-131878000D01*
X61572448Y-132002482D01*
X61608758Y-132122180D01*
X61667723Y-132232494D01*
X61747075Y-132329185D01*
X61843766Y-132408537D01*
X61954080Y-132467502D01*
X62073778Y-132503812D01*
X62198260Y-132516072D01*
X65055740Y-132516072D01*
X65180222Y-132503812D01*
X65299920Y-132467502D01*
X65410234Y-132408537D01*
X65506925Y-132329185D01*
X65586277Y-132232494D01*
X65645242Y-132122180D01*
X65681552Y-132002482D01*
X65693812Y-131878000D01*
X65693812Y-130048000D01*
X65681552Y-129923518D01*
X65645242Y-129803820D01*
X65586277Y-129693506D01*
X65506925Y-129596815D01*
X65410234Y-129517463D01*
X65299920Y-129458498D01*
X65180222Y-129422188D01*
X65055740Y-129409928D01*
X62198260Y-129409928D01*
X62073778Y-129422188D01*
X61954080Y-129458498D01*
X61843766Y-129517463D01*
X61747075Y-129596815D01*
X61667723Y-129693506D01*
X61608758Y-129803820D01*
X61572448Y-129923518D01*
X61560188Y-130048000D01*
X60613812Y-130048000D01*
X60601552Y-129923518D01*
X60565242Y-129803820D01*
X60506277Y-129693506D01*
X60426925Y-129596815D01*
X60330234Y-129517463D01*
X60219920Y-129458498D01*
X60100222Y-129422188D01*
X59975740Y-129409928D01*
X57118260Y-129409928D01*
X56993778Y-129422188D01*
X56874080Y-129458498D01*
X56763766Y-129517463D01*
X56667075Y-129596815D01*
X56587723Y-129693506D01*
X56528758Y-129803820D01*
X56492448Y-129923518D01*
X56480188Y-130048000D01*
X55533812Y-130048000D01*
X55521552Y-129923518D01*
X55485242Y-129803820D01*
X55426277Y-129693506D01*
X55346925Y-129596815D01*
X55250234Y-129517463D01*
X55139920Y-129458498D01*
X55020222Y-129422188D01*
X54895740Y-129409928D01*
X52038260Y-129409928D01*
X51913778Y-129422188D01*
X51794080Y-129458498D01*
X51683766Y-129517463D01*
X51587075Y-129596815D01*
X51507723Y-129693506D01*
X51448758Y-129803820D01*
X51412448Y-129923518D01*
X51400188Y-130048000D01*
X49334506Y-130048000D01*
X49343371Y-126395800D01*
X51397648Y-126395800D01*
X51397648Y-128225800D01*
X51409908Y-128350282D01*
X51446218Y-128469980D01*
X51505183Y-128580294D01*
X51584535Y-128676985D01*
X51681226Y-128756337D01*
X51791540Y-128815302D01*
X51911238Y-128851612D01*
X52035720Y-128863872D01*
X54893200Y-128863872D01*
X55017682Y-128851612D01*
X55137380Y-128815302D01*
X55247694Y-128756337D01*
X55344385Y-128676985D01*
X55423737Y-128580294D01*
X55482702Y-128469980D01*
X55519012Y-128350282D01*
X55531272Y-128225800D01*
X55531272Y-126395800D01*
X55519012Y-126271318D01*
X55482702Y-126151620D01*
X55423737Y-126041306D01*
X55344385Y-125944615D01*
X55247694Y-125865263D01*
X55137380Y-125806298D01*
X55017682Y-125769988D01*
X54893200Y-125757728D01*
X52035720Y-125757728D01*
X51911238Y-125769988D01*
X51791540Y-125806298D01*
X51681226Y-125865263D01*
X51584535Y-125944615D01*
X51505183Y-126041306D01*
X51446218Y-126151620D01*
X51409908Y-126271318D01*
X51397648Y-126395800D01*
X49343371Y-126395800D01*
X49349738Y-123772540D01*
X56519888Y-123772540D01*
X56519888Y-128552540D01*
X56532148Y-128677022D01*
X56568458Y-128796720D01*
X56627423Y-128907034D01*
X56706775Y-129003725D01*
X56803466Y-129083077D01*
X56913780Y-129142042D01*
X57033478Y-129178352D01*
X57157960Y-129190612D01*
X59937960Y-129190612D01*
X60062442Y-129178352D01*
X60182140Y-129142042D01*
X60292454Y-129083077D01*
X60389145Y-129003725D01*
X60468497Y-128907034D01*
X60527462Y-128796720D01*
X60563772Y-128677022D01*
X60576032Y-128552540D01*
X60576032Y-126389200D01*
X61560188Y-126389200D01*
X61560188Y-128219200D01*
X61572448Y-128343682D01*
X61608758Y-128463380D01*
X61667723Y-128573694D01*
X61747075Y-128670385D01*
X61843766Y-128749737D01*
X61954080Y-128808702D01*
X62073778Y-128845012D01*
X62198260Y-128857272D01*
X65055740Y-128857272D01*
X65180222Y-128845012D01*
X65299920Y-128808702D01*
X65410234Y-128749737D01*
X65506925Y-128670385D01*
X65586277Y-128573694D01*
X65645242Y-128463380D01*
X65681552Y-128343682D01*
X65693812Y-128219200D01*
X65693812Y-126389200D01*
X65681552Y-126264718D01*
X65645242Y-126145020D01*
X65586277Y-126034706D01*
X65506925Y-125938015D01*
X65410234Y-125858663D01*
X65299920Y-125799698D01*
X65180222Y-125763388D01*
X65055740Y-125751128D01*
X62198260Y-125751128D01*
X62073778Y-125763388D01*
X61954080Y-125799698D01*
X61843766Y-125858663D01*
X61747075Y-125938015D01*
X61667723Y-126034706D01*
X61608758Y-126145020D01*
X61572448Y-126264718D01*
X61560188Y-126389200D01*
X60576032Y-126389200D01*
X60576032Y-123772540D01*
X60563772Y-123648058D01*
X60527462Y-123528360D01*
X60468497Y-123418046D01*
X60389145Y-123321355D01*
X60292454Y-123242003D01*
X60182140Y-123183038D01*
X60062442Y-123146728D01*
X59937960Y-123134468D01*
X57157960Y-123134468D01*
X57033478Y-123146728D01*
X56913780Y-123183038D01*
X56803466Y-123242003D01*
X56706775Y-123321355D01*
X56627423Y-123418046D01*
X56568458Y-123528360D01*
X56532148Y-123648058D01*
X56519888Y-123772540D01*
X49349738Y-123772540D01*
X49351893Y-122884925D01*
X60909476Y-122859800D01*
X60934247Y-122857306D01*
X60958056Y-122850027D01*
X60979987Y-122838243D01*
X60999003Y-122822603D01*
X63171606Y-120650000D01*
X65151000Y-120650000D01*
X65175776Y-120647560D01*
X65199601Y-120640333D01*
X65221557Y-120628597D01*
X65240803Y-120612803D01*
X66574303Y-119279303D01*
X66590097Y-119260057D01*
X66601833Y-119238101D01*
X66609060Y-119214276D01*
X66611500Y-119189500D01*
X66611500Y-117464726D01*
X74220155Y-109981834D01*
X93279267Y-109921136D01*
X93304036Y-109918617D01*
X93327837Y-109911314D01*
X93349756Y-109899508D01*
X93368666Y-109883940D01*
X96054177Y-107198429D01*
X96068792Y-107180916D01*
X96189687Y-107006290D01*
X96201784Y-106984530D01*
X96209403Y-106960828D01*
X96212252Y-106936095D01*
X96210220Y-106911282D01*
X96203387Y-106887341D01*
X96202500Y-106885614D01*
X96202500Y-97930526D01*
X96219826Y-97888698D01*
X96259600Y-97688739D01*
X96259600Y-97484861D01*
X96219826Y-97284902D01*
X96202500Y-97243074D01*
X96202500Y-91164014D01*
X103962400Y-80562460D01*
X105202528Y-80562460D01*
X105202528Y-83419940D01*
X105214788Y-83544422D01*
X105251098Y-83664120D01*
X105310063Y-83774434D01*
X105389415Y-83871125D01*
X105486106Y-83950477D01*
X105596420Y-84009442D01*
X105716118Y-84045752D01*
X105840600Y-84058012D01*
X107670600Y-84058012D01*
X107795082Y-84045752D01*
X107914780Y-84009442D01*
X108025094Y-83950477D01*
X108121785Y-83871125D01*
X108201137Y-83774434D01*
X108260102Y-83664120D01*
X108296412Y-83544422D01*
X108308672Y-83419940D01*
X108308672Y-80562460D01*
X108296412Y-80437978D01*
X108260102Y-80318280D01*
X108201137Y-80207966D01*
X108121785Y-80111275D01*
X108025094Y-80031923D01*
X107914780Y-79972958D01*
X107795082Y-79936648D01*
X107670600Y-79924388D01*
X105840600Y-79924388D01*
X105716118Y-79936648D01*
X105596420Y-79972958D01*
X105486106Y-80031923D01*
X105389415Y-80111275D01*
X105310063Y-80207966D01*
X105251098Y-80318280D01*
X105214788Y-80437978D01*
X105202528Y-80562460D01*
X103962400Y-80562460D01*
X105156928Y-78930500D01*
X105599908Y-78930500D01*
X105716118Y-78965752D01*
G36*
X122756520Y-69652873D02*
G01*
X122648347Y-69914026D01*
X122593200Y-70191265D01*
X122593200Y-70473935D01*
X122648347Y-70751174D01*
X122756520Y-71012327D01*
X122913563Y-71247359D01*
X123085924Y-71419720D01*
X121759980Y-71419720D01*
X121735204Y-71422160D01*
X121711379Y-71429387D01*
X121689423Y-71441123D01*
X121672265Y-71454877D01*
X121220145Y-71886677D01*
X121203913Y-71905554D01*
X121191675Y-71927235D01*
X121183903Y-71950887D01*
X121180860Y-71978668D01*
X121181117Y-72199955D01*
X121173972Y-72203774D01*
X121068189Y-72290589D01*
X120981374Y-72396372D01*
X120916866Y-72517059D01*
X120877141Y-72648013D01*
X120863728Y-72784200D01*
X120863728Y-73164200D01*
X120877141Y-73300387D01*
X120916866Y-73431341D01*
X120981374Y-73552028D01*
X121068189Y-73657811D01*
X121173972Y-73744626D01*
X121182916Y-73749407D01*
X121183336Y-74110772D01*
X120357949Y-74890183D01*
X120296060Y-74884088D01*
X115607743Y-74884088D01*
X115605816Y-73924160D01*
X117968867Y-73924160D01*
X118009718Y-73936552D01*
X118134200Y-73948812D01*
X119964200Y-73948812D01*
X120088682Y-73936552D01*
X120208380Y-73900242D01*
X120318694Y-73841277D01*
X120415385Y-73761925D01*
X120494737Y-73665234D01*
X120553702Y-73554920D01*
X120590012Y-73435222D01*
X120602272Y-73310740D01*
X120602272Y-70453260D01*
X120590012Y-70328778D01*
X120554496Y-70211699D01*
X121154598Y-69613771D01*
X122782829Y-69613499D01*
X122756520Y-69652873D01*
G37*
X122756520Y-69652873D02*
X122648347Y-69914026D01*
X122593200Y-70191265D01*
X122593200Y-70473935D01*
X122648347Y-70751174D01*
X122756520Y-71012327D01*
X122913563Y-71247359D01*
X123085924Y-71419720D01*
X121759980Y-71419720D01*
X121735204Y-71422160D01*
X121711379Y-71429387D01*
X121689423Y-71441123D01*
X121672265Y-71454877D01*
X121220145Y-71886677D01*
X121203913Y-71905554D01*
X121191675Y-71927235D01*
X121183903Y-71950887D01*
X121180860Y-71978668D01*
X121181117Y-72199955D01*
X121173972Y-72203774D01*
X121068189Y-72290589D01*
X120981374Y-72396372D01*
X120916866Y-72517059D01*
X120877141Y-72648013D01*
X120863728Y-72784200D01*
X120863728Y-73164200D01*
X120877141Y-73300387D01*
X120916866Y-73431341D01*
X120981374Y-73552028D01*
X121068189Y-73657811D01*
X121173972Y-73744626D01*
X121182916Y-73749407D01*
X121183336Y-74110772D01*
X120357949Y-74890183D01*
X120296060Y-74884088D01*
X115607743Y-74884088D01*
X115605816Y-73924160D01*
X117968867Y-73924160D01*
X118009718Y-73936552D01*
X118134200Y-73948812D01*
X119964200Y-73948812D01*
X120088682Y-73936552D01*
X120208380Y-73900242D01*
X120318694Y-73841277D01*
X120415385Y-73761925D01*
X120494737Y-73665234D01*
X120553702Y-73554920D01*
X120590012Y-73435222D01*
X120602272Y-73310740D01*
X120602272Y-70453260D01*
X120590012Y-70328778D01*
X120554496Y-70211699D01*
X121154598Y-69613771D01*
X122782829Y-69613499D01*
X122756520Y-69652873D01*
G36*
X137520488Y-71402540D02*
G01*
X137522180Y-71419720D01*
X137122940Y-71419720D01*
X137052077Y-71313666D01*
X136907914Y-71169503D01*
X136738396Y-71056235D01*
X136550038Y-70978214D01*
X136350079Y-70938440D01*
X136146201Y-70938440D01*
X135946242Y-70978214D01*
X135757884Y-71056235D01*
X135620637Y-71147940D01*
X134396390Y-71147940D01*
X134355840Y-71143946D01*
X134315289Y-71147940D01*
X134315287Y-71147940D01*
X134194014Y-71159884D01*
X134120184Y-71182280D01*
X134010061Y-71182280D01*
X133810102Y-71222054D01*
X133621744Y-71300075D01*
X133452226Y-71413343D01*
X133445849Y-71419720D01*
X131022076Y-71419720D01*
X130965616Y-71381995D01*
X130777258Y-71303974D01*
X130577299Y-71264200D01*
X130373421Y-71264200D01*
X130173462Y-71303974D01*
X129985104Y-71381995D01*
X129928644Y-71419720D01*
X126282753Y-71419720D01*
X125442256Y-70579224D01*
X125463200Y-70473935D01*
X125463200Y-70191265D01*
X125408053Y-69914026D01*
X125299880Y-69652873D01*
X125273293Y-69613082D01*
X136286261Y-69611240D01*
X136311037Y-69608796D01*
X136334860Y-69601565D01*
X136356815Y-69589825D01*
X136376058Y-69574028D01*
X136391848Y-69554780D01*
X136403581Y-69532821D01*
X136410804Y-69508996D01*
X136413240Y-69484240D01*
X136413240Y-69142843D01*
X136421897Y-69132294D01*
X136480862Y-69021980D01*
X136517172Y-68902282D01*
X136529432Y-68777800D01*
X136529432Y-66947800D01*
X136517172Y-66823318D01*
X136480862Y-66703620D01*
X136446557Y-66639440D01*
X137520488Y-66639440D01*
X137520488Y-71402540D01*
G37*
X137520488Y-71402540D02*
X137522180Y-71419720D01*
X137122940Y-71419720D01*
X137052077Y-71313666D01*
X136907914Y-71169503D01*
X136738396Y-71056235D01*
X136550038Y-70978214D01*
X136350079Y-70938440D01*
X136146201Y-70938440D01*
X135946242Y-70978214D01*
X135757884Y-71056235D01*
X135620637Y-71147940D01*
X134396390Y-71147940D01*
X134355840Y-71143946D01*
X134315289Y-71147940D01*
X134315287Y-71147940D01*
X134194014Y-71159884D01*
X134120184Y-71182280D01*
X134010061Y-71182280D01*
X133810102Y-71222054D01*
X133621744Y-71300075D01*
X133452226Y-71413343D01*
X133445849Y-71419720D01*
X131022076Y-71419720D01*
X130965616Y-71381995D01*
X130777258Y-71303974D01*
X130577299Y-71264200D01*
X130373421Y-71264200D01*
X130173462Y-71303974D01*
X129985104Y-71381995D01*
X129928644Y-71419720D01*
X126282753Y-71419720D01*
X125442256Y-70579224D01*
X125463200Y-70473935D01*
X125463200Y-70191265D01*
X125408053Y-69914026D01*
X125299880Y-69652873D01*
X125273293Y-69613082D01*
X136286261Y-69611240D01*
X136311037Y-69608796D01*
X136334860Y-69601565D01*
X136356815Y-69589825D01*
X136376058Y-69574028D01*
X136391848Y-69554780D01*
X136403581Y-69532821D01*
X136410804Y-69508996D01*
X136413240Y-69484240D01*
X136413240Y-69142843D01*
X136421897Y-69132294D01*
X136480862Y-69021980D01*
X136517172Y-68902282D01*
X136529432Y-68777800D01*
X136529432Y-66947800D01*
X136517172Y-66823318D01*
X136480862Y-66703620D01*
X136446557Y-66639440D01*
X137520488Y-66639440D01*
X137520488Y-71402540D01*
M02*
